G04 #@! TF.GenerationSoftware,KiCad,Pcbnew,5.1.5-52549c5~86~ubuntu18.04.1*
G04 #@! TF.CreationDate,2020-04-03T22:47:33+02:00*
G04 #@! TF.ProjectId,7001-ventilator_mainboard,37303031-2d76-4656-9e74-696c61746f72,2.0*
G04 #@! TF.SameCoordinates,Original*
G04 #@! TF.FileFunction,Soldermask,Bot*
G04 #@! TF.FilePolarity,Negative*
%FSLAX46Y46*%
G04 Gerber Fmt 4.6, Leading zero omitted, Abs format (unit mm)*
G04 Created by KiCad (PCBNEW 5.1.5-52549c5~86~ubuntu18.04.1) date 2020-04-03 22:47:33*
%MOMM*%
%LPD*%
G04 APERTURE LIST*
%ADD10C,0.100000*%
G04 APERTURE END LIST*
D10*
G36*
X160219074Y-203412231D02*
G01*
X160466703Y-203461487D01*
X160757884Y-203582098D01*
X161019941Y-203757199D01*
X161242801Y-203980059D01*
X161417902Y-204242116D01*
X161538513Y-204533297D01*
X161600000Y-204842414D01*
X161600000Y-205157586D01*
X161538513Y-205466703D01*
X161417902Y-205757884D01*
X161242801Y-206019941D01*
X161019941Y-206242801D01*
X160757884Y-206417902D01*
X160466703Y-206538513D01*
X160219074Y-206587769D01*
X160157587Y-206600000D01*
X159842413Y-206600000D01*
X159780926Y-206587769D01*
X159533297Y-206538513D01*
X159242116Y-206417902D01*
X158980059Y-206242801D01*
X158757199Y-206019941D01*
X158582098Y-205757884D01*
X158461487Y-205466703D01*
X158400000Y-205157586D01*
X158400000Y-204842414D01*
X158461487Y-204533297D01*
X158582098Y-204242116D01*
X158757199Y-203980059D01*
X158980059Y-203757199D01*
X159242116Y-203582098D01*
X159533297Y-203461487D01*
X159780926Y-203412231D01*
X159842413Y-203400000D01*
X160157587Y-203400000D01*
X160219074Y-203412231D01*
G37*
G36*
X71219074Y-203412231D02*
G01*
X71466703Y-203461487D01*
X71757884Y-203582098D01*
X72019941Y-203757199D01*
X72242801Y-203980059D01*
X72417902Y-204242116D01*
X72538513Y-204533297D01*
X72600000Y-204842414D01*
X72600000Y-205157586D01*
X72538513Y-205466703D01*
X72417902Y-205757884D01*
X72242801Y-206019941D01*
X72019941Y-206242801D01*
X71757884Y-206417902D01*
X71466703Y-206538513D01*
X71219074Y-206587769D01*
X71157587Y-206600000D01*
X70842413Y-206600000D01*
X70780926Y-206587769D01*
X70533297Y-206538513D01*
X70242116Y-206417902D01*
X69980059Y-206242801D01*
X69757199Y-206019941D01*
X69582098Y-205757884D01*
X69461487Y-205466703D01*
X69400000Y-205157586D01*
X69400000Y-204842414D01*
X69461487Y-204533297D01*
X69582098Y-204242116D01*
X69757199Y-203980059D01*
X69980059Y-203757199D01*
X70242116Y-203582098D01*
X70533297Y-203461487D01*
X70780926Y-203412231D01*
X70842413Y-203400000D01*
X71157587Y-203400000D01*
X71219074Y-203412231D01*
G37*
G36*
X124552883Y-201878666D02*
G01*
X124796049Y-201952429D01*
X125020152Y-202072215D01*
X125216581Y-202233419D01*
X125377785Y-202429847D01*
X125497571Y-202653950D01*
X125571334Y-202897116D01*
X125590000Y-203086634D01*
X125590000Y-203913365D01*
X125571334Y-204102883D01*
X125497571Y-204346050D01*
X125377785Y-204570153D01*
X125216581Y-204766581D01*
X125020153Y-204927785D01*
X124796050Y-205047571D01*
X124552884Y-205121334D01*
X124300000Y-205146241D01*
X124047117Y-205121334D01*
X123803951Y-205047571D01*
X123579848Y-204927785D01*
X123383420Y-204766581D01*
X123222215Y-204570153D01*
X123102429Y-204346050D01*
X123028666Y-204102884D01*
X123010000Y-203913366D01*
X123010000Y-203086635D01*
X123028666Y-202897117D01*
X123102429Y-202653951D01*
X123222215Y-202429848D01*
X123383419Y-202233419D01*
X123579847Y-202072215D01*
X123803950Y-201952429D01*
X124047116Y-201878666D01*
X124300000Y-201853759D01*
X124552883Y-201878666D01*
G37*
G36*
X121052883Y-201878666D02*
G01*
X121296049Y-201952429D01*
X121520152Y-202072215D01*
X121716581Y-202233419D01*
X121877785Y-202429847D01*
X121997571Y-202653950D01*
X122071334Y-202897116D01*
X122090000Y-203086634D01*
X122090000Y-203913365D01*
X122071334Y-204102883D01*
X121997571Y-204346050D01*
X121877785Y-204570153D01*
X121716581Y-204766581D01*
X121520153Y-204927785D01*
X121296050Y-205047571D01*
X121052884Y-205121334D01*
X120800000Y-205146241D01*
X120547117Y-205121334D01*
X120303951Y-205047571D01*
X120079848Y-204927785D01*
X119883420Y-204766581D01*
X119722215Y-204570153D01*
X119602429Y-204346050D01*
X119528666Y-204102884D01*
X119510000Y-203913366D01*
X119510000Y-203086635D01*
X119528666Y-202897117D01*
X119602429Y-202653951D01*
X119722215Y-202429848D01*
X119883419Y-202233419D01*
X120079847Y-202072215D01*
X120303950Y-201952429D01*
X120547116Y-201878666D01*
X120800000Y-201853759D01*
X121052883Y-201878666D01*
G37*
G36*
X117552883Y-201878666D02*
G01*
X117796049Y-201952429D01*
X118020152Y-202072215D01*
X118216581Y-202233419D01*
X118377785Y-202429847D01*
X118497571Y-202653950D01*
X118571334Y-202897116D01*
X118590000Y-203086634D01*
X118590000Y-203913365D01*
X118571334Y-204102883D01*
X118497571Y-204346050D01*
X118377785Y-204570153D01*
X118216581Y-204766581D01*
X118020153Y-204927785D01*
X117796050Y-205047571D01*
X117552884Y-205121334D01*
X117300000Y-205146241D01*
X117047117Y-205121334D01*
X116803951Y-205047571D01*
X116579848Y-204927785D01*
X116383420Y-204766581D01*
X116222215Y-204570153D01*
X116102429Y-204346050D01*
X116028666Y-204102884D01*
X116010000Y-203913366D01*
X116010000Y-203086635D01*
X116028666Y-202897117D01*
X116102429Y-202653951D01*
X116222215Y-202429848D01*
X116383419Y-202233419D01*
X116579847Y-202072215D01*
X116803950Y-201952429D01*
X117047116Y-201878666D01*
X117300000Y-201853759D01*
X117552883Y-201878666D01*
G37*
G36*
X128052883Y-201878666D02*
G01*
X128296049Y-201952429D01*
X128520152Y-202072215D01*
X128716581Y-202233419D01*
X128877785Y-202429847D01*
X128997571Y-202653950D01*
X129071334Y-202897116D01*
X129090000Y-203086634D01*
X129090000Y-203913365D01*
X129071334Y-204102883D01*
X128997571Y-204346050D01*
X128877785Y-204570153D01*
X128716581Y-204766581D01*
X128520153Y-204927785D01*
X128296050Y-205047571D01*
X128052884Y-205121334D01*
X127800000Y-205146241D01*
X127547117Y-205121334D01*
X127303951Y-205047571D01*
X127079848Y-204927785D01*
X126883420Y-204766581D01*
X126722215Y-204570153D01*
X126602429Y-204346050D01*
X126528666Y-204102884D01*
X126510000Y-203913366D01*
X126510000Y-203086635D01*
X126528666Y-202897117D01*
X126602429Y-202653951D01*
X126722215Y-202429848D01*
X126883419Y-202233419D01*
X127079847Y-202072215D01*
X127303950Y-201952429D01*
X127547116Y-201878666D01*
X127800000Y-201853759D01*
X128052883Y-201878666D01*
G37*
G36*
X146752883Y-201878666D02*
G01*
X146996049Y-201952429D01*
X147220152Y-202072215D01*
X147416581Y-202233419D01*
X147577785Y-202429847D01*
X147697571Y-202653950D01*
X147771334Y-202897116D01*
X147790000Y-203086634D01*
X147790000Y-203913365D01*
X147771334Y-204102883D01*
X147697571Y-204346050D01*
X147577785Y-204570153D01*
X147416581Y-204766581D01*
X147220153Y-204927785D01*
X146996050Y-205047571D01*
X146752884Y-205121334D01*
X146500000Y-205146241D01*
X146247117Y-205121334D01*
X146003951Y-205047571D01*
X145779848Y-204927785D01*
X145583420Y-204766581D01*
X145422215Y-204570153D01*
X145302429Y-204346050D01*
X145228666Y-204102884D01*
X145210000Y-203913366D01*
X145210000Y-203086635D01*
X145228666Y-202897117D01*
X145302429Y-202653951D01*
X145422215Y-202429848D01*
X145583419Y-202233419D01*
X145779847Y-202072215D01*
X146003950Y-201952429D01*
X146247116Y-201878666D01*
X146500000Y-201853759D01*
X146752883Y-201878666D01*
G37*
G36*
X139752883Y-201878666D02*
G01*
X139996049Y-201952429D01*
X140220152Y-202072215D01*
X140416581Y-202233419D01*
X140577785Y-202429847D01*
X140697571Y-202653950D01*
X140771334Y-202897116D01*
X140790000Y-203086634D01*
X140790000Y-203913365D01*
X140771334Y-204102883D01*
X140697571Y-204346050D01*
X140577785Y-204570153D01*
X140416581Y-204766581D01*
X140220153Y-204927785D01*
X139996050Y-205047571D01*
X139752884Y-205121334D01*
X139500000Y-205146241D01*
X139247117Y-205121334D01*
X139003951Y-205047571D01*
X138779848Y-204927785D01*
X138583420Y-204766581D01*
X138422215Y-204570153D01*
X138302429Y-204346050D01*
X138228666Y-204102884D01*
X138210000Y-203913366D01*
X138210000Y-203086635D01*
X138228666Y-202897117D01*
X138302429Y-202653951D01*
X138422215Y-202429848D01*
X138583419Y-202233419D01*
X138779847Y-202072215D01*
X139003950Y-201952429D01*
X139247116Y-201878666D01*
X139500000Y-201853759D01*
X139752883Y-201878666D01*
G37*
G36*
X150252883Y-201878666D02*
G01*
X150496049Y-201952429D01*
X150720152Y-202072215D01*
X150916581Y-202233419D01*
X151077785Y-202429847D01*
X151197571Y-202653950D01*
X151271334Y-202897116D01*
X151290000Y-203086634D01*
X151290000Y-203913365D01*
X151271334Y-204102883D01*
X151197571Y-204346050D01*
X151077785Y-204570153D01*
X150916581Y-204766581D01*
X150720153Y-204927785D01*
X150496050Y-205047571D01*
X150252884Y-205121334D01*
X150000000Y-205146241D01*
X149747117Y-205121334D01*
X149503951Y-205047571D01*
X149279848Y-204927785D01*
X149083420Y-204766581D01*
X148922215Y-204570153D01*
X148802429Y-204346050D01*
X148728666Y-204102884D01*
X148710000Y-203913366D01*
X148710000Y-203086635D01*
X148728666Y-202897117D01*
X148802429Y-202653951D01*
X148922215Y-202429848D01*
X149083419Y-202233419D01*
X149279847Y-202072215D01*
X149503950Y-201952429D01*
X149747116Y-201878666D01*
X150000000Y-201853759D01*
X150252883Y-201878666D01*
G37*
G36*
X143252883Y-201878666D02*
G01*
X143496049Y-201952429D01*
X143720152Y-202072215D01*
X143916581Y-202233419D01*
X144077785Y-202429847D01*
X144197571Y-202653950D01*
X144271334Y-202897116D01*
X144290000Y-203086634D01*
X144290000Y-203913365D01*
X144271334Y-204102883D01*
X144197571Y-204346050D01*
X144077785Y-204570153D01*
X143916581Y-204766581D01*
X143720153Y-204927785D01*
X143496050Y-205047571D01*
X143252884Y-205121334D01*
X143000000Y-205146241D01*
X142747117Y-205121334D01*
X142503951Y-205047571D01*
X142279848Y-204927785D01*
X142083420Y-204766581D01*
X141922215Y-204570153D01*
X141802429Y-204346050D01*
X141728666Y-204102884D01*
X141710000Y-203913366D01*
X141710000Y-203086635D01*
X141728666Y-202897117D01*
X141802429Y-202653951D01*
X141922215Y-202429848D01*
X142083419Y-202233419D01*
X142279847Y-202072215D01*
X142503950Y-201952429D01*
X142747116Y-201878666D01*
X143000000Y-201853759D01*
X143252883Y-201878666D01*
G37*
G36*
X136792915Y-201872126D02*
G01*
X136908703Y-201907250D01*
X137015418Y-201964291D01*
X137108951Y-202041049D01*
X137185709Y-202134582D01*
X137242750Y-202241297D01*
X137277874Y-202357085D01*
X137290000Y-202480200D01*
X137290000Y-204519800D01*
X137277874Y-204642915D01*
X137242750Y-204758703D01*
X137185709Y-204865418D01*
X137108951Y-204958951D01*
X137015418Y-205035709D01*
X136908703Y-205092750D01*
X136792915Y-205127874D01*
X136669800Y-205140000D01*
X135330200Y-205140000D01*
X135207085Y-205127874D01*
X135091297Y-205092750D01*
X134984582Y-205035709D01*
X134891049Y-204958951D01*
X134814291Y-204865418D01*
X134757250Y-204758703D01*
X134722126Y-204642915D01*
X134710000Y-204519800D01*
X134710000Y-202480200D01*
X134722126Y-202357085D01*
X134757250Y-202241297D01*
X134814291Y-202134582D01*
X134891049Y-202041049D01*
X134984582Y-201964291D01*
X135091297Y-201907250D01*
X135207085Y-201872126D01*
X135330200Y-201860000D01*
X136669800Y-201860000D01*
X136792915Y-201872126D01*
G37*
G36*
X114592915Y-201872126D02*
G01*
X114708703Y-201907250D01*
X114815418Y-201964291D01*
X114908951Y-202041049D01*
X114985709Y-202134582D01*
X115042750Y-202241297D01*
X115077874Y-202357085D01*
X115090000Y-202480200D01*
X115090000Y-204519800D01*
X115077874Y-204642915D01*
X115042750Y-204758703D01*
X114985709Y-204865418D01*
X114908951Y-204958951D01*
X114815418Y-205035709D01*
X114708703Y-205092750D01*
X114592915Y-205127874D01*
X114469800Y-205140000D01*
X113130200Y-205140000D01*
X113007085Y-205127874D01*
X112891297Y-205092750D01*
X112784582Y-205035709D01*
X112691049Y-204958951D01*
X112614291Y-204865418D01*
X112557250Y-204758703D01*
X112522126Y-204642915D01*
X112510000Y-204519800D01*
X112510000Y-202480200D01*
X112522126Y-202357085D01*
X112557250Y-202241297D01*
X112614291Y-202134582D01*
X112691049Y-202041049D01*
X112784582Y-201964291D01*
X112891297Y-201907250D01*
X113007085Y-201872126D01*
X113130200Y-201860000D01*
X114469800Y-201860000D01*
X114592915Y-201872126D01*
G37*
G36*
X105852883Y-201828666D02*
G01*
X106096049Y-201902429D01*
X106320152Y-202022215D01*
X106516581Y-202183419D01*
X106677785Y-202379847D01*
X106797571Y-202603950D01*
X106871334Y-202847116D01*
X106890000Y-203036634D01*
X106890000Y-203863365D01*
X106871334Y-204052883D01*
X106797571Y-204296050D01*
X106677785Y-204520153D01*
X106516581Y-204716581D01*
X106320153Y-204877785D01*
X106096050Y-204997571D01*
X105852884Y-205071334D01*
X105600000Y-205096241D01*
X105347117Y-205071334D01*
X105103951Y-204997571D01*
X104879848Y-204877785D01*
X104683420Y-204716581D01*
X104522215Y-204520153D01*
X104402429Y-204296050D01*
X104328666Y-204052884D01*
X104310000Y-203863366D01*
X104310000Y-203036635D01*
X104328666Y-202847117D01*
X104402429Y-202603951D01*
X104522215Y-202379848D01*
X104683419Y-202183419D01*
X104879847Y-202022215D01*
X105103950Y-201902429D01*
X105347116Y-201828666D01*
X105600000Y-201803759D01*
X105852883Y-201828666D01*
G37*
G36*
X82452883Y-201828666D02*
G01*
X82696049Y-201902429D01*
X82920152Y-202022215D01*
X83116581Y-202183419D01*
X83277785Y-202379847D01*
X83397571Y-202603950D01*
X83471334Y-202847116D01*
X83490000Y-203036634D01*
X83490000Y-203863365D01*
X83471334Y-204052883D01*
X83397571Y-204296050D01*
X83277785Y-204520153D01*
X83116581Y-204716581D01*
X82920153Y-204877785D01*
X82696050Y-204997571D01*
X82452884Y-205071334D01*
X82200000Y-205096241D01*
X81947117Y-205071334D01*
X81703951Y-204997571D01*
X81479848Y-204877785D01*
X81283420Y-204716581D01*
X81122215Y-204520153D01*
X81002429Y-204296050D01*
X80928666Y-204052884D01*
X80910000Y-203863366D01*
X80910000Y-203036635D01*
X80928666Y-202847117D01*
X81002429Y-202603951D01*
X81122215Y-202379848D01*
X81283419Y-202183419D01*
X81479847Y-202022215D01*
X81703950Y-201902429D01*
X81947116Y-201828666D01*
X82200000Y-201803759D01*
X82452883Y-201828666D01*
G37*
G36*
X94102883Y-201828666D02*
G01*
X94346049Y-201902429D01*
X94570152Y-202022215D01*
X94766581Y-202183419D01*
X94927785Y-202379847D01*
X95047571Y-202603950D01*
X95121334Y-202847116D01*
X95140000Y-203036634D01*
X95140000Y-203863365D01*
X95121334Y-204052883D01*
X95047571Y-204296050D01*
X94927785Y-204520153D01*
X94766581Y-204716581D01*
X94570153Y-204877785D01*
X94346050Y-204997571D01*
X94102884Y-205071334D01*
X93850000Y-205096241D01*
X93597117Y-205071334D01*
X93353951Y-204997571D01*
X93129848Y-204877785D01*
X92933420Y-204716581D01*
X92772215Y-204520153D01*
X92652429Y-204296050D01*
X92578666Y-204052884D01*
X92560000Y-203863366D01*
X92560000Y-203036635D01*
X92578666Y-202847117D01*
X92652429Y-202603951D01*
X92772215Y-202379848D01*
X92933419Y-202183419D01*
X93129847Y-202022215D01*
X93353950Y-201902429D01*
X93597116Y-201828666D01*
X93850000Y-201803759D01*
X94102883Y-201828666D01*
G37*
G36*
X79492915Y-201822126D02*
G01*
X79608703Y-201857250D01*
X79715418Y-201914291D01*
X79808951Y-201991049D01*
X79885709Y-202084582D01*
X79942750Y-202191297D01*
X79977874Y-202307085D01*
X79990000Y-202430200D01*
X79990000Y-204469800D01*
X79977874Y-204592915D01*
X79942750Y-204708703D01*
X79885709Y-204815418D01*
X79808951Y-204908951D01*
X79715418Y-204985709D01*
X79608703Y-205042750D01*
X79492915Y-205077874D01*
X79369800Y-205090000D01*
X78030200Y-205090000D01*
X77907085Y-205077874D01*
X77791297Y-205042750D01*
X77684582Y-204985709D01*
X77591049Y-204908951D01*
X77514291Y-204815418D01*
X77457250Y-204708703D01*
X77422126Y-204592915D01*
X77410000Y-204469800D01*
X77410000Y-202430200D01*
X77422126Y-202307085D01*
X77457250Y-202191297D01*
X77514291Y-202084582D01*
X77591049Y-201991049D01*
X77684582Y-201914291D01*
X77791297Y-201857250D01*
X77907085Y-201822126D01*
X78030200Y-201810000D01*
X79369800Y-201810000D01*
X79492915Y-201822126D01*
G37*
G36*
X102892915Y-201822126D02*
G01*
X103008703Y-201857250D01*
X103115418Y-201914291D01*
X103208951Y-201991049D01*
X103285709Y-202084582D01*
X103342750Y-202191297D01*
X103377874Y-202307085D01*
X103390000Y-202430200D01*
X103390000Y-204469800D01*
X103377874Y-204592915D01*
X103342750Y-204708703D01*
X103285709Y-204815418D01*
X103208951Y-204908951D01*
X103115418Y-204985709D01*
X103008703Y-205042750D01*
X102892915Y-205077874D01*
X102769800Y-205090000D01*
X101430200Y-205090000D01*
X101307085Y-205077874D01*
X101191297Y-205042750D01*
X101084582Y-204985709D01*
X100991049Y-204908951D01*
X100914291Y-204815418D01*
X100857250Y-204708703D01*
X100822126Y-204592915D01*
X100810000Y-204469800D01*
X100810000Y-202430200D01*
X100822126Y-202307085D01*
X100857250Y-202191297D01*
X100914291Y-202084582D01*
X100991049Y-201991049D01*
X101084582Y-201914291D01*
X101191297Y-201857250D01*
X101307085Y-201822126D01*
X101430200Y-201810000D01*
X102769800Y-201810000D01*
X102892915Y-201822126D01*
G37*
G36*
X91142915Y-201822126D02*
G01*
X91258703Y-201857250D01*
X91365418Y-201914291D01*
X91458951Y-201991049D01*
X91535709Y-202084582D01*
X91592750Y-202191297D01*
X91627874Y-202307085D01*
X91640000Y-202430200D01*
X91640000Y-204469800D01*
X91627874Y-204592915D01*
X91592750Y-204708703D01*
X91535709Y-204815418D01*
X91458951Y-204908951D01*
X91365418Y-204985709D01*
X91258703Y-205042750D01*
X91142915Y-205077874D01*
X91019800Y-205090000D01*
X89680200Y-205090000D01*
X89557085Y-205077874D01*
X89441297Y-205042750D01*
X89334582Y-204985709D01*
X89241049Y-204908951D01*
X89164291Y-204815418D01*
X89107250Y-204708703D01*
X89072126Y-204592915D01*
X89060000Y-204469800D01*
X89060000Y-202430200D01*
X89072126Y-202307085D01*
X89107250Y-202191297D01*
X89164291Y-202084582D01*
X89241049Y-201991049D01*
X89334582Y-201914291D01*
X89441297Y-201857250D01*
X89557085Y-201822126D01*
X89680200Y-201810000D01*
X91019800Y-201810000D01*
X91142915Y-201822126D01*
G37*
G36*
X152076286Y-195856629D02*
G01*
X152176266Y-195876516D01*
X152301838Y-195928530D01*
X152414850Y-196004042D01*
X152510958Y-196100150D01*
X152586470Y-196213162D01*
X152638484Y-196338734D01*
X152665000Y-196472041D01*
X152665000Y-196607959D01*
X152638484Y-196741266D01*
X152586470Y-196866838D01*
X152510958Y-196979850D01*
X152414850Y-197075958D01*
X152301838Y-197151470D01*
X152176266Y-197203484D01*
X152076286Y-197223371D01*
X152042960Y-197230000D01*
X151907040Y-197230000D01*
X151873714Y-197223371D01*
X151773734Y-197203484D01*
X151648162Y-197151470D01*
X151535150Y-197075958D01*
X151439042Y-196979850D01*
X151363530Y-196866838D01*
X151311516Y-196741266D01*
X151285000Y-196607959D01*
X151285000Y-196472041D01*
X151311516Y-196338734D01*
X151363530Y-196213162D01*
X151439042Y-196100150D01*
X151535150Y-196004042D01*
X151648162Y-195928530D01*
X151773734Y-195876516D01*
X151873714Y-195856629D01*
X151907040Y-195850000D01*
X152042960Y-195850000D01*
X152076286Y-195856629D01*
G37*
G36*
X163326286Y-195856629D02*
G01*
X163426266Y-195876516D01*
X163551838Y-195928530D01*
X163664850Y-196004042D01*
X163760958Y-196100150D01*
X163836470Y-196213162D01*
X163888484Y-196338734D01*
X163915000Y-196472041D01*
X163915000Y-196607959D01*
X163888484Y-196741266D01*
X163836470Y-196866838D01*
X163760958Y-196979850D01*
X163664850Y-197075958D01*
X163551838Y-197151470D01*
X163426266Y-197203484D01*
X163326286Y-197223371D01*
X163292960Y-197230000D01*
X163157040Y-197230000D01*
X163123714Y-197223371D01*
X163023734Y-197203484D01*
X162898162Y-197151470D01*
X162785150Y-197075958D01*
X162689042Y-196979850D01*
X162613530Y-196866838D01*
X162561516Y-196741266D01*
X162535000Y-196607959D01*
X162535000Y-196472041D01*
X162561516Y-196338734D01*
X162613530Y-196213162D01*
X162689042Y-196100150D01*
X162785150Y-196004042D01*
X162898162Y-195928530D01*
X163023734Y-195876516D01*
X163123714Y-195856629D01*
X163157040Y-195850000D01*
X163292960Y-195850000D01*
X163326286Y-195856629D01*
G37*
G36*
X117530436Y-193790359D02*
G01*
X117674203Y-193849909D01*
X117803598Y-193936368D01*
X117913632Y-194046402D01*
X118000091Y-194175797D01*
X118059641Y-194319564D01*
X118090000Y-194472191D01*
X118090000Y-194627809D01*
X118059641Y-194780436D01*
X118000091Y-194924203D01*
X117913632Y-195053598D01*
X117803598Y-195163632D01*
X117674203Y-195250091D01*
X117530436Y-195309641D01*
X117377809Y-195340000D01*
X117222191Y-195340000D01*
X117069564Y-195309641D01*
X116925797Y-195250091D01*
X116796402Y-195163632D01*
X116686368Y-195053598D01*
X116599909Y-194924203D01*
X116540359Y-194780436D01*
X116510000Y-194627809D01*
X116510000Y-194472191D01*
X116540359Y-194319564D01*
X116599909Y-194175797D01*
X116686368Y-194046402D01*
X116796402Y-193936368D01*
X116925797Y-193849909D01*
X117069564Y-193790359D01*
X117222191Y-193760000D01*
X117377809Y-193760000D01*
X117530436Y-193790359D01*
G37*
G36*
X138230436Y-193540359D02*
G01*
X138374203Y-193599909D01*
X138503598Y-193686368D01*
X138613632Y-193796402D01*
X138700091Y-193925797D01*
X138759641Y-194069564D01*
X138790000Y-194222191D01*
X138790000Y-194377809D01*
X138759641Y-194530436D01*
X138700091Y-194674203D01*
X138613632Y-194803598D01*
X138503598Y-194913632D01*
X138374203Y-195000091D01*
X138230436Y-195059641D01*
X138077809Y-195090000D01*
X137922191Y-195090000D01*
X137769564Y-195059641D01*
X137625797Y-195000091D01*
X137496402Y-194913632D01*
X137386368Y-194803598D01*
X137299909Y-194674203D01*
X137240359Y-194530436D01*
X137210000Y-194377809D01*
X137210000Y-194222191D01*
X137240359Y-194069564D01*
X137299909Y-193925797D01*
X137386368Y-193796402D01*
X137496402Y-193686368D01*
X137625797Y-193599909D01*
X137769564Y-193540359D01*
X137922191Y-193510000D01*
X138077809Y-193510000D01*
X138230436Y-193540359D01*
G37*
G36*
X152076286Y-193316629D02*
G01*
X152176266Y-193336516D01*
X152301838Y-193388530D01*
X152414850Y-193464042D01*
X152510958Y-193560150D01*
X152586470Y-193673162D01*
X152638484Y-193798734D01*
X152658371Y-193898714D01*
X152665000Y-193932040D01*
X152665000Y-194067960D01*
X152658371Y-194101286D01*
X152638484Y-194201266D01*
X152586470Y-194326838D01*
X152510958Y-194439850D01*
X152414850Y-194535958D01*
X152301838Y-194611470D01*
X152176266Y-194663484D01*
X152076286Y-194683371D01*
X152042960Y-194690000D01*
X151907040Y-194690000D01*
X151873714Y-194683371D01*
X151773734Y-194663484D01*
X151648162Y-194611470D01*
X151535150Y-194535958D01*
X151439042Y-194439850D01*
X151363530Y-194326838D01*
X151311516Y-194201266D01*
X151291629Y-194101286D01*
X151285000Y-194067960D01*
X151285000Y-193932040D01*
X151291629Y-193898714D01*
X151311516Y-193798734D01*
X151363530Y-193673162D01*
X151439042Y-193560150D01*
X151535150Y-193464042D01*
X151648162Y-193388530D01*
X151773734Y-193336516D01*
X151873714Y-193316629D01*
X151907040Y-193310000D01*
X152042960Y-193310000D01*
X152076286Y-193316629D01*
G37*
G36*
X163326286Y-193316629D02*
G01*
X163426266Y-193336516D01*
X163551838Y-193388530D01*
X163664850Y-193464042D01*
X163760958Y-193560150D01*
X163836470Y-193673162D01*
X163888484Y-193798734D01*
X163908371Y-193898714D01*
X163915000Y-193932040D01*
X163915000Y-194067960D01*
X163908371Y-194101286D01*
X163888484Y-194201266D01*
X163836470Y-194326838D01*
X163760958Y-194439850D01*
X163664850Y-194535958D01*
X163551838Y-194611470D01*
X163426266Y-194663484D01*
X163326286Y-194683371D01*
X163292960Y-194690000D01*
X163157040Y-194690000D01*
X163123714Y-194683371D01*
X163023734Y-194663484D01*
X162898162Y-194611470D01*
X162785150Y-194535958D01*
X162689042Y-194439850D01*
X162613530Y-194326838D01*
X162561516Y-194201266D01*
X162541629Y-194101286D01*
X162535000Y-194067960D01*
X162535000Y-193932040D01*
X162541629Y-193898714D01*
X162561516Y-193798734D01*
X162613530Y-193673162D01*
X162689042Y-193560150D01*
X162785150Y-193464042D01*
X162898162Y-193388530D01*
X163023734Y-193336516D01*
X163123714Y-193316629D01*
X163157040Y-193310000D01*
X163292960Y-193310000D01*
X163326286Y-193316629D01*
G37*
G36*
X157296683Y-192114595D02*
G01*
X157386767Y-192151909D01*
X157413154Y-192162839D01*
X157517976Y-192232879D01*
X157607121Y-192322024D01*
X157677161Y-192426846D01*
X157677162Y-192426849D01*
X157725405Y-192543317D01*
X157750000Y-192666965D01*
X157750000Y-192793035D01*
X157725405Y-192916683D01*
X157688091Y-193006767D01*
X157677161Y-193033154D01*
X157607121Y-193137976D01*
X157517976Y-193227121D01*
X157413154Y-193297161D01*
X157386767Y-193308091D01*
X157296683Y-193345405D01*
X157173035Y-193370000D01*
X157046965Y-193370000D01*
X156923317Y-193345405D01*
X156833233Y-193308091D01*
X156806846Y-193297161D01*
X156702024Y-193227121D01*
X156612879Y-193137976D01*
X156542839Y-193033154D01*
X156531909Y-193006767D01*
X156494595Y-192916683D01*
X156470000Y-192793035D01*
X156470000Y-192666965D01*
X156494595Y-192543317D01*
X156542838Y-192426849D01*
X156542839Y-192426846D01*
X156612879Y-192322024D01*
X156702024Y-192232879D01*
X156806846Y-192162839D01*
X156833233Y-192151909D01*
X156923317Y-192114595D01*
X157046965Y-192090000D01*
X157173035Y-192090000D01*
X157296683Y-192114595D01*
G37*
G36*
X163326286Y-190776629D02*
G01*
X163426266Y-190796516D01*
X163551838Y-190848530D01*
X163664850Y-190924042D01*
X163760958Y-191020150D01*
X163836470Y-191133162D01*
X163888484Y-191258734D01*
X163915000Y-191392041D01*
X163915000Y-191527959D01*
X163888484Y-191661266D01*
X163836470Y-191786838D01*
X163760958Y-191899850D01*
X163664850Y-191995958D01*
X163551838Y-192071470D01*
X163426266Y-192123484D01*
X163326286Y-192143371D01*
X163292960Y-192150000D01*
X163157040Y-192150000D01*
X163123714Y-192143371D01*
X163023734Y-192123484D01*
X162898162Y-192071470D01*
X162785150Y-191995958D01*
X162689042Y-191899850D01*
X162613530Y-191786838D01*
X162561516Y-191661266D01*
X162535000Y-191527959D01*
X162535000Y-191392041D01*
X162561516Y-191258734D01*
X162613530Y-191133162D01*
X162689042Y-191020150D01*
X162785150Y-190924042D01*
X162898162Y-190848530D01*
X163023734Y-190796516D01*
X163123714Y-190776629D01*
X163157040Y-190770000D01*
X163292960Y-190770000D01*
X163326286Y-190776629D01*
G37*
G36*
X152076286Y-190776629D02*
G01*
X152176266Y-190796516D01*
X152301838Y-190848530D01*
X152414850Y-190924042D01*
X152510958Y-191020150D01*
X152586470Y-191133162D01*
X152638484Y-191258734D01*
X152665000Y-191392041D01*
X152665000Y-191527959D01*
X152638484Y-191661266D01*
X152586470Y-191786838D01*
X152510958Y-191899850D01*
X152414850Y-191995958D01*
X152301838Y-192071470D01*
X152176266Y-192123484D01*
X152076286Y-192143371D01*
X152042960Y-192150000D01*
X151907040Y-192150000D01*
X151873714Y-192143371D01*
X151773734Y-192123484D01*
X151648162Y-192071470D01*
X151535150Y-191995958D01*
X151439042Y-191899850D01*
X151363530Y-191786838D01*
X151311516Y-191661266D01*
X151285000Y-191527959D01*
X151285000Y-191392041D01*
X151311516Y-191258734D01*
X151363530Y-191133162D01*
X151439042Y-191020150D01*
X151535150Y-190924042D01*
X151648162Y-190848530D01*
X151773734Y-190796516D01*
X151873714Y-190776629D01*
X151907040Y-190770000D01*
X152042960Y-190770000D01*
X152076286Y-190776629D01*
G37*
G36*
X160280436Y-182090359D02*
G01*
X160424203Y-182149909D01*
X160553598Y-182236368D01*
X160663632Y-182346402D01*
X160750091Y-182475797D01*
X160809641Y-182619564D01*
X160840000Y-182772191D01*
X160840000Y-182927809D01*
X160809641Y-183080436D01*
X160750091Y-183224203D01*
X160663632Y-183353598D01*
X160553598Y-183463632D01*
X160424203Y-183550091D01*
X160280436Y-183609641D01*
X160127809Y-183640000D01*
X159972191Y-183640000D01*
X159819564Y-183609641D01*
X159675797Y-183550091D01*
X159546402Y-183463632D01*
X159436368Y-183353598D01*
X159349909Y-183224203D01*
X159290359Y-183080436D01*
X159260000Y-182927809D01*
X159260000Y-182772191D01*
X159290359Y-182619564D01*
X159349909Y-182475797D01*
X159436368Y-182346402D01*
X159546402Y-182236368D01*
X159675797Y-182149909D01*
X159819564Y-182090359D01*
X159972191Y-182060000D01*
X160127809Y-182060000D01*
X160280436Y-182090359D01*
G37*
G36*
X71186683Y-181384595D02*
G01*
X71276767Y-181421909D01*
X71303154Y-181432839D01*
X71407976Y-181502879D01*
X71497121Y-181592024D01*
X71567161Y-181696846D01*
X71567162Y-181696849D01*
X71615405Y-181813317D01*
X71640000Y-181936965D01*
X71640000Y-182063035D01*
X71615405Y-182186683D01*
X71578091Y-182276767D01*
X71567161Y-182303154D01*
X71497121Y-182407976D01*
X71407976Y-182497121D01*
X71303154Y-182567161D01*
X71276767Y-182578091D01*
X71186683Y-182615405D01*
X71063035Y-182640000D01*
X70936965Y-182640000D01*
X70813317Y-182615405D01*
X70723233Y-182578091D01*
X70696846Y-182567161D01*
X70592024Y-182497121D01*
X70502879Y-182407976D01*
X70432839Y-182303154D01*
X70421909Y-182276767D01*
X70384595Y-182186683D01*
X70360000Y-182063035D01*
X70360000Y-181936965D01*
X70384595Y-181813317D01*
X70432838Y-181696849D01*
X70432839Y-181696846D01*
X70502879Y-181592024D01*
X70592024Y-181502879D01*
X70696846Y-181432839D01*
X70723233Y-181421909D01*
X70813317Y-181384595D01*
X70936965Y-181360000D01*
X71063035Y-181360000D01*
X71186683Y-181384595D01*
G37*
G36*
X71186683Y-168384595D02*
G01*
X71276767Y-168421909D01*
X71303154Y-168432839D01*
X71407976Y-168502879D01*
X71497121Y-168592024D01*
X71567161Y-168696846D01*
X71567162Y-168696849D01*
X71615405Y-168813317D01*
X71640000Y-168936965D01*
X71640000Y-169063035D01*
X71615405Y-169186683D01*
X71578091Y-169276767D01*
X71567161Y-169303154D01*
X71497121Y-169407976D01*
X71407976Y-169497121D01*
X71303154Y-169567161D01*
X71276767Y-169578091D01*
X71186683Y-169615405D01*
X71063035Y-169640000D01*
X70936965Y-169640000D01*
X70813317Y-169615405D01*
X70723233Y-169578091D01*
X70696846Y-169567161D01*
X70592024Y-169497121D01*
X70502879Y-169407976D01*
X70432839Y-169303154D01*
X70421909Y-169276767D01*
X70384595Y-169186683D01*
X70360000Y-169063035D01*
X70360000Y-168936965D01*
X70384595Y-168813317D01*
X70432838Y-168696849D01*
X70432839Y-168696846D01*
X70502879Y-168592024D01*
X70592024Y-168502879D01*
X70696846Y-168432839D01*
X70723233Y-168421909D01*
X70813317Y-168384595D01*
X70936965Y-168360000D01*
X71063035Y-168360000D01*
X71186683Y-168384595D01*
G37*
G36*
X100930436Y-167540359D02*
G01*
X101074203Y-167599909D01*
X101203598Y-167686368D01*
X101313632Y-167796402D01*
X101400091Y-167925797D01*
X101459641Y-168069564D01*
X101490000Y-168222191D01*
X101490000Y-168377809D01*
X101459641Y-168530436D01*
X101400091Y-168674203D01*
X101313632Y-168803598D01*
X101203598Y-168913632D01*
X101074203Y-169000091D01*
X100930436Y-169059641D01*
X100777809Y-169090000D01*
X100622191Y-169090000D01*
X100469564Y-169059641D01*
X100325797Y-169000091D01*
X100196402Y-168913632D01*
X100086368Y-168803598D01*
X99999909Y-168674203D01*
X99940359Y-168530436D01*
X99910000Y-168377809D01*
X99910000Y-168222191D01*
X99940359Y-168069564D01*
X99999909Y-167925797D01*
X100086368Y-167796402D01*
X100196402Y-167686368D01*
X100325797Y-167599909D01*
X100469564Y-167540359D01*
X100622191Y-167510000D01*
X100777809Y-167510000D01*
X100930436Y-167540359D01*
G37*
G36*
X118890000Y-166640000D02*
G01*
X117110000Y-166640000D01*
X117110000Y-164860000D01*
X118890000Y-164860000D01*
X118890000Y-166640000D01*
G37*
G36*
X159642915Y-161672126D02*
G01*
X159758703Y-161707250D01*
X159865418Y-161764291D01*
X159958951Y-161841049D01*
X160035709Y-161934582D01*
X160092750Y-162041297D01*
X160127874Y-162157085D01*
X160140000Y-162280200D01*
X160140000Y-163619800D01*
X160127874Y-163742915D01*
X160092750Y-163858703D01*
X160035709Y-163965418D01*
X159958951Y-164058951D01*
X159865418Y-164135709D01*
X159758703Y-164192750D01*
X159642915Y-164227874D01*
X159519800Y-164240000D01*
X157480200Y-164240000D01*
X157357085Y-164227874D01*
X157241297Y-164192750D01*
X157134582Y-164135709D01*
X157041049Y-164058951D01*
X156964291Y-163965418D01*
X156907250Y-163858703D01*
X156872126Y-163742915D01*
X156860000Y-163619800D01*
X156860000Y-162280200D01*
X156872126Y-162157085D01*
X156907250Y-162041297D01*
X156964291Y-161934582D01*
X157041049Y-161841049D01*
X157134582Y-161764291D01*
X157241297Y-161707250D01*
X157357085Y-161672126D01*
X157480200Y-161660000D01*
X159519800Y-161660000D01*
X159642915Y-161672126D01*
G37*
G36*
X118259605Y-162354203D02*
G01*
X118421570Y-162421291D01*
X118421573Y-162421293D01*
X118567342Y-162518692D01*
X118691308Y-162642658D01*
X118788707Y-162788427D01*
X118788709Y-162788430D01*
X118855797Y-162950395D01*
X118890000Y-163122342D01*
X118890000Y-163297658D01*
X118855797Y-163469605D01*
X118788709Y-163631570D01*
X118788707Y-163631573D01*
X118691308Y-163777342D01*
X118567342Y-163901308D01*
X118421573Y-163998707D01*
X118421570Y-163998709D01*
X118259605Y-164065797D01*
X118087658Y-164100000D01*
X117912342Y-164100000D01*
X117740395Y-164065797D01*
X117578430Y-163998709D01*
X117578427Y-163998707D01*
X117432658Y-163901308D01*
X117308692Y-163777342D01*
X117211293Y-163631573D01*
X117211291Y-163631570D01*
X117144203Y-163469605D01*
X117110000Y-163297658D01*
X117110000Y-163122342D01*
X117144203Y-162950395D01*
X117211291Y-162788430D01*
X117211293Y-162788427D01*
X117308692Y-162642658D01*
X117432658Y-162518692D01*
X117578427Y-162421293D01*
X117578430Y-162421291D01*
X117740395Y-162354203D01*
X117912342Y-162320000D01*
X118087658Y-162320000D01*
X118259605Y-162354203D01*
G37*
G36*
X118259605Y-159814203D02*
G01*
X118421570Y-159881291D01*
X118421573Y-159881293D01*
X118567342Y-159978692D01*
X118691308Y-160102658D01*
X118784947Y-160242800D01*
X118788709Y-160248430D01*
X118855797Y-160410395D01*
X118890000Y-160582342D01*
X118890000Y-160757658D01*
X118855797Y-160929605D01*
X118788709Y-161091570D01*
X118788707Y-161091573D01*
X118691308Y-161237342D01*
X118567342Y-161361308D01*
X118421573Y-161458707D01*
X118421570Y-161458709D01*
X118259605Y-161525797D01*
X118087658Y-161560000D01*
X117912342Y-161560000D01*
X117740395Y-161525797D01*
X117578430Y-161458709D01*
X117578427Y-161458707D01*
X117432658Y-161361308D01*
X117308692Y-161237342D01*
X117211293Y-161091573D01*
X117211291Y-161091570D01*
X117144203Y-160929605D01*
X117110000Y-160757658D01*
X117110000Y-160582342D01*
X117144203Y-160410395D01*
X117211291Y-160248430D01*
X117215053Y-160242800D01*
X117308692Y-160102658D01*
X117432658Y-159978692D01*
X117578427Y-159881293D01*
X117578430Y-159881291D01*
X117740395Y-159814203D01*
X117912342Y-159780000D01*
X118087658Y-159780000D01*
X118259605Y-159814203D01*
G37*
G36*
X86436683Y-159504595D02*
G01*
X86526767Y-159541909D01*
X86553154Y-159552839D01*
X86657976Y-159622879D01*
X86747121Y-159712024D01*
X86817161Y-159816846D01*
X86817162Y-159816849D01*
X86865405Y-159933317D01*
X86890000Y-160056965D01*
X86890000Y-160183035D01*
X86865405Y-160306683D01*
X86840594Y-160366581D01*
X86817161Y-160423154D01*
X86747121Y-160527976D01*
X86657976Y-160617121D01*
X86553154Y-160687161D01*
X86526767Y-160698091D01*
X86436683Y-160735405D01*
X86313035Y-160760000D01*
X86186965Y-160760000D01*
X86063317Y-160735405D01*
X85973233Y-160698091D01*
X85946846Y-160687161D01*
X85842024Y-160617121D01*
X85752879Y-160527976D01*
X85682839Y-160423154D01*
X85659406Y-160366581D01*
X85634595Y-160306683D01*
X85610000Y-160183035D01*
X85610000Y-160056965D01*
X85634595Y-159933317D01*
X85682838Y-159816849D01*
X85682839Y-159816846D01*
X85752879Y-159712024D01*
X85842024Y-159622879D01*
X85946846Y-159552839D01*
X85973233Y-159541909D01*
X86063317Y-159504595D01*
X86186965Y-159480000D01*
X86313035Y-159480000D01*
X86436683Y-159504595D01*
G37*
G36*
X159102884Y-158178666D02*
G01*
X159346050Y-158252429D01*
X159570153Y-158372215D01*
X159766581Y-158533419D01*
X159927785Y-158729847D01*
X160047571Y-158953950D01*
X160121334Y-159197116D01*
X160146241Y-159450000D01*
X160121334Y-159702884D01*
X160047571Y-159946050D01*
X159927785Y-160170153D01*
X159766581Y-160366581D01*
X159570153Y-160527785D01*
X159346050Y-160647571D01*
X159102884Y-160721334D01*
X158913366Y-160740000D01*
X158086634Y-160740000D01*
X157897116Y-160721334D01*
X157653950Y-160647571D01*
X157429847Y-160527785D01*
X157233419Y-160366581D01*
X157072215Y-160170153D01*
X156952429Y-159946050D01*
X156878666Y-159702884D01*
X156853759Y-159450000D01*
X156878666Y-159197116D01*
X156952429Y-158953950D01*
X157072215Y-158729847D01*
X157233419Y-158533419D01*
X157429847Y-158372215D01*
X157653950Y-158252429D01*
X157897116Y-158178666D01*
X158086634Y-158160000D01*
X158913366Y-158160000D01*
X159102884Y-158178666D01*
G37*
G36*
X71219074Y-157412231D02*
G01*
X71466703Y-157461487D01*
X71757884Y-157582098D01*
X72019941Y-157757199D01*
X72242801Y-157980059D01*
X72417902Y-158242116D01*
X72538513Y-158533297D01*
X72600000Y-158842414D01*
X72600000Y-159157586D01*
X72538513Y-159466703D01*
X72417902Y-159757884D01*
X72242801Y-160019941D01*
X72019941Y-160242801D01*
X71757884Y-160417902D01*
X71466703Y-160538513D01*
X71246359Y-160582342D01*
X71157587Y-160600000D01*
X70842413Y-160600000D01*
X70753641Y-160582342D01*
X70533297Y-160538513D01*
X70242116Y-160417902D01*
X69980059Y-160242801D01*
X69757199Y-160019941D01*
X69582098Y-159757884D01*
X69461487Y-159466703D01*
X69400000Y-159157586D01*
X69400000Y-158842414D01*
X69461487Y-158533297D01*
X69582098Y-158242116D01*
X69757199Y-157980059D01*
X69980059Y-157757199D01*
X70242116Y-157582098D01*
X70533297Y-157461487D01*
X70780926Y-157412231D01*
X70842413Y-157400000D01*
X71157587Y-157400000D01*
X71219074Y-157412231D01*
G37*
G36*
X118259605Y-157274203D02*
G01*
X118421570Y-157341291D01*
X118421573Y-157341293D01*
X118567342Y-157438692D01*
X118691308Y-157562658D01*
X118788707Y-157708427D01*
X118788709Y-157708430D01*
X118855797Y-157870395D01*
X118890000Y-158042342D01*
X118890000Y-158217658D01*
X118855797Y-158389605D01*
X118788709Y-158551570D01*
X118788707Y-158551573D01*
X118691308Y-158697342D01*
X118567342Y-158821308D01*
X118421573Y-158918707D01*
X118421570Y-158918709D01*
X118259605Y-158985797D01*
X118087658Y-159020000D01*
X117912342Y-159020000D01*
X117740395Y-158985797D01*
X117578430Y-158918709D01*
X117578427Y-158918707D01*
X117432658Y-158821308D01*
X117308692Y-158697342D01*
X117211293Y-158551573D01*
X117211291Y-158551570D01*
X117144203Y-158389605D01*
X117110000Y-158217658D01*
X117110000Y-158042342D01*
X117144203Y-157870395D01*
X117211291Y-157708430D01*
X117211293Y-157708427D01*
X117308692Y-157562658D01*
X117432658Y-157438692D01*
X117578427Y-157341293D01*
X117578430Y-157341291D01*
X117740395Y-157274203D01*
X117912342Y-157240000D01*
X118087658Y-157240000D01*
X118259605Y-157274203D01*
G37*
G36*
X118259605Y-154734203D02*
G01*
X118421570Y-154801291D01*
X118421573Y-154801293D01*
X118567342Y-154898692D01*
X118691308Y-155022658D01*
X118728158Y-155077809D01*
X118788709Y-155168430D01*
X118855797Y-155330395D01*
X118890000Y-155502342D01*
X118890000Y-155677658D01*
X118855797Y-155849605D01*
X118788709Y-156011570D01*
X118788707Y-156011573D01*
X118691308Y-156157342D01*
X118567342Y-156281308D01*
X118421573Y-156378707D01*
X118421570Y-156378709D01*
X118259605Y-156445797D01*
X118087658Y-156480000D01*
X117912342Y-156480000D01*
X117740395Y-156445797D01*
X117578430Y-156378709D01*
X117578427Y-156378707D01*
X117432658Y-156281308D01*
X117308692Y-156157342D01*
X117211293Y-156011573D01*
X117211291Y-156011570D01*
X117144203Y-155849605D01*
X117110000Y-155677658D01*
X117110000Y-155502342D01*
X117144203Y-155330395D01*
X117211291Y-155168430D01*
X117271842Y-155077809D01*
X117308692Y-155022658D01*
X117432658Y-154898692D01*
X117578427Y-154801293D01*
X117578430Y-154801291D01*
X117740395Y-154734203D01*
X117912342Y-154700000D01*
X118087658Y-154700000D01*
X118259605Y-154734203D01*
G37*
G36*
X103961359Y-149880058D02*
G01*
X104418821Y-149971052D01*
X104418824Y-149971053D01*
X104418823Y-149971053D01*
X104992082Y-150208504D01*
X105508010Y-150553236D01*
X105946764Y-150991990D01*
X106291496Y-151507918D01*
X106374041Y-151707200D01*
X106528948Y-152081179D01*
X106650000Y-152689752D01*
X106650000Y-153310248D01*
X106528948Y-153918821D01*
X106528947Y-153918823D01*
X106291496Y-154492082D01*
X105946764Y-155008010D01*
X105508010Y-155446764D01*
X104992082Y-155791496D01*
X104524703Y-155985090D01*
X104418821Y-156028948D01*
X103961359Y-156119942D01*
X103810249Y-156150000D01*
X103189751Y-156150000D01*
X103038641Y-156119942D01*
X102581179Y-156028948D01*
X102475297Y-155985090D01*
X102007918Y-155791496D01*
X101491990Y-155446764D01*
X101053236Y-155008010D01*
X100708504Y-154492082D01*
X100471053Y-153918823D01*
X100471052Y-153918821D01*
X100350000Y-153310248D01*
X100350000Y-152689752D01*
X100471052Y-152081179D01*
X100625959Y-151707200D01*
X100708504Y-151507918D01*
X101053236Y-150991990D01*
X101491990Y-150553236D01*
X102007918Y-150208504D01*
X102581177Y-149971053D01*
X102581176Y-149971053D01*
X102581179Y-149971052D01*
X103038641Y-149880058D01*
X103189751Y-149850000D01*
X103810249Y-149850000D01*
X103961359Y-149880058D01*
G37*
G36*
X108230436Y-154240359D02*
G01*
X108374203Y-154299909D01*
X108503598Y-154386368D01*
X108613632Y-154496402D01*
X108700091Y-154625797D01*
X108759641Y-154769564D01*
X108790000Y-154922191D01*
X108790000Y-155077809D01*
X108759641Y-155230436D01*
X108700091Y-155374203D01*
X108613632Y-155503598D01*
X108503598Y-155613632D01*
X108374203Y-155700091D01*
X108230436Y-155759641D01*
X108077809Y-155790000D01*
X107922191Y-155790000D01*
X107769564Y-155759641D01*
X107625797Y-155700091D01*
X107496402Y-155613632D01*
X107386368Y-155503598D01*
X107299909Y-155374203D01*
X107240359Y-155230436D01*
X107210000Y-155077809D01*
X107210000Y-154922191D01*
X107240359Y-154769564D01*
X107299909Y-154625797D01*
X107386368Y-154496402D01*
X107496402Y-154386368D01*
X107625797Y-154299909D01*
X107769564Y-154240359D01*
X107922191Y-154210000D01*
X108077809Y-154210000D01*
X108230436Y-154240359D01*
G37*
G36*
X161669074Y-151362231D02*
G01*
X161916703Y-151411487D01*
X162207884Y-151532098D01*
X162469941Y-151707199D01*
X162692801Y-151930059D01*
X162846443Y-152160000D01*
X162867903Y-152192118D01*
X162895226Y-152258082D01*
X162988513Y-152483297D01*
X163029579Y-152689751D01*
X163049599Y-152790395D01*
X163050000Y-152792414D01*
X163050000Y-153107586D01*
X162988513Y-153416703D01*
X162867902Y-153707884D01*
X162692801Y-153969941D01*
X162469941Y-154192801D01*
X162207884Y-154367902D01*
X161916703Y-154488513D01*
X161669074Y-154537769D01*
X161607587Y-154550000D01*
X161292413Y-154550000D01*
X161230926Y-154537769D01*
X160983297Y-154488513D01*
X160692116Y-154367902D01*
X160430059Y-154192801D01*
X160207199Y-153969941D01*
X160032098Y-153707884D01*
X159911487Y-153416703D01*
X159850000Y-153107586D01*
X159850000Y-152792414D01*
X159850402Y-152790395D01*
X159870421Y-152689751D01*
X159911487Y-152483297D01*
X160004774Y-152258082D01*
X160032097Y-152192118D01*
X160053558Y-152160000D01*
X160207199Y-151930059D01*
X160430059Y-151707199D01*
X160692116Y-151532098D01*
X160983297Y-151411487D01*
X161230926Y-151362231D01*
X161292413Y-151350000D01*
X161607587Y-151350000D01*
X161669074Y-151362231D01*
G37*
G36*
X118259605Y-152194203D02*
G01*
X118421570Y-152261291D01*
X118421573Y-152261293D01*
X118567342Y-152358692D01*
X118691308Y-152482658D01*
X118788707Y-152628427D01*
X118788709Y-152628430D01*
X118855797Y-152790395D01*
X118890000Y-152962342D01*
X118890000Y-153137658D01*
X118855797Y-153309605D01*
X118788709Y-153471570D01*
X118788707Y-153471573D01*
X118691308Y-153617342D01*
X118567342Y-153741308D01*
X118421573Y-153838707D01*
X118421570Y-153838709D01*
X118259605Y-153905797D01*
X118087658Y-153940000D01*
X117912342Y-153940000D01*
X117740395Y-153905797D01*
X117578430Y-153838709D01*
X117578427Y-153838707D01*
X117432658Y-153741308D01*
X117308692Y-153617342D01*
X117211293Y-153471573D01*
X117211291Y-153471570D01*
X117144203Y-153309605D01*
X117110000Y-153137658D01*
X117110000Y-152962342D01*
X117144203Y-152790395D01*
X117211291Y-152628430D01*
X117211293Y-152628427D01*
X117308692Y-152482658D01*
X117432658Y-152358692D01*
X117578427Y-152261293D01*
X117578430Y-152261291D01*
X117740395Y-152194203D01*
X117912342Y-152160000D01*
X118087658Y-152160000D01*
X118259605Y-152194203D01*
G37*
G36*
X161892915Y-144222126D02*
G01*
X162008703Y-144257250D01*
X162115418Y-144314291D01*
X162208951Y-144391049D01*
X162285709Y-144484582D01*
X162342750Y-144591297D01*
X162377874Y-144707085D01*
X162390000Y-144830200D01*
X162390000Y-146169800D01*
X162377874Y-146292915D01*
X162342750Y-146408703D01*
X162285709Y-146515418D01*
X162208951Y-146608951D01*
X162115418Y-146685709D01*
X162008703Y-146742750D01*
X161892915Y-146777874D01*
X161769800Y-146790000D01*
X159730200Y-146790000D01*
X159607085Y-146777874D01*
X159491297Y-146742750D01*
X159384582Y-146685709D01*
X159291049Y-146608951D01*
X159214291Y-146515418D01*
X159157250Y-146408703D01*
X159122126Y-146292915D01*
X159110000Y-146169800D01*
X159110000Y-144830200D01*
X159122126Y-144707085D01*
X159157250Y-144591297D01*
X159214291Y-144484582D01*
X159291049Y-144391049D01*
X159384582Y-144314291D01*
X159491297Y-144257250D01*
X159607085Y-144222126D01*
X159730200Y-144210000D01*
X161769800Y-144210000D01*
X161892915Y-144222126D01*
G37*
G36*
X161352884Y-140728666D02*
G01*
X161596050Y-140802429D01*
X161820153Y-140922215D01*
X162016581Y-141083419D01*
X162177785Y-141279847D01*
X162297571Y-141503950D01*
X162371334Y-141747116D01*
X162396241Y-142000000D01*
X162371334Y-142252884D01*
X162297571Y-142496050D01*
X162177785Y-142720153D01*
X162016581Y-142916581D01*
X161820153Y-143077785D01*
X161596050Y-143197571D01*
X161352884Y-143271334D01*
X161163366Y-143290000D01*
X160336634Y-143290000D01*
X160147116Y-143271334D01*
X159903950Y-143197571D01*
X159679847Y-143077785D01*
X159483419Y-142916581D01*
X159322215Y-142720153D01*
X159202429Y-142496050D01*
X159128666Y-142252884D01*
X159103759Y-142000000D01*
X159128666Y-141747116D01*
X159202429Y-141503950D01*
X159322215Y-141279847D01*
X159483419Y-141083419D01*
X159679847Y-140922215D01*
X159903950Y-140802429D01*
X160147116Y-140728666D01*
X160336634Y-140710000D01*
X161163366Y-140710000D01*
X161352884Y-140728666D01*
G37*
G36*
X161352884Y-137228666D02*
G01*
X161596050Y-137302429D01*
X161820153Y-137422215D01*
X162016581Y-137583419D01*
X162177785Y-137779847D01*
X162297571Y-138003950D01*
X162371334Y-138247116D01*
X162396241Y-138500000D01*
X162371334Y-138752884D01*
X162297571Y-138996050D01*
X162177785Y-139220153D01*
X162016581Y-139416581D01*
X161820153Y-139577785D01*
X161596050Y-139697571D01*
X161352884Y-139771334D01*
X161163366Y-139790000D01*
X160336634Y-139790000D01*
X160147116Y-139771334D01*
X159903950Y-139697571D01*
X159679847Y-139577785D01*
X159483419Y-139416581D01*
X159322215Y-139220153D01*
X159202429Y-138996050D01*
X159128666Y-138752884D01*
X159103759Y-138500000D01*
X159128666Y-138247116D01*
X159202429Y-138003950D01*
X159322215Y-137779847D01*
X159483419Y-137583419D01*
X159679847Y-137422215D01*
X159903950Y-137302429D01*
X160147116Y-137228666D01*
X160336634Y-137210000D01*
X161163366Y-137210000D01*
X161352884Y-137228666D01*
G37*
G36*
X161352884Y-133728666D02*
G01*
X161596050Y-133802429D01*
X161820153Y-133922215D01*
X162016581Y-134083419D01*
X162177785Y-134279847D01*
X162297571Y-134503950D01*
X162371334Y-134747116D01*
X162396241Y-135000000D01*
X162371334Y-135252884D01*
X162297571Y-135496050D01*
X162177785Y-135720153D01*
X162016581Y-135916581D01*
X161820153Y-136077785D01*
X161596050Y-136197571D01*
X161352884Y-136271334D01*
X161163366Y-136290000D01*
X160336634Y-136290000D01*
X160147116Y-136271334D01*
X159903950Y-136197571D01*
X159679847Y-136077785D01*
X159483419Y-135916581D01*
X159322215Y-135720153D01*
X159202429Y-135496050D01*
X159128666Y-135252884D01*
X159103759Y-135000000D01*
X159128666Y-134747116D01*
X159202429Y-134503950D01*
X159322215Y-134279847D01*
X159483419Y-134083419D01*
X159679847Y-133922215D01*
X159903950Y-133802429D01*
X160147116Y-133728666D01*
X160336634Y-133710000D01*
X161163366Y-133710000D01*
X161352884Y-133728666D01*
G37*
G36*
X127630436Y-132040359D02*
G01*
X127774203Y-132099909D01*
X127903598Y-132186368D01*
X128013632Y-132296402D01*
X128100091Y-132425797D01*
X128159641Y-132569564D01*
X128190000Y-132722191D01*
X128190000Y-132877809D01*
X128159641Y-133030436D01*
X128100091Y-133174203D01*
X128013632Y-133303598D01*
X127903598Y-133413632D01*
X127774203Y-133500091D01*
X127630436Y-133559641D01*
X127477809Y-133590000D01*
X127322191Y-133590000D01*
X127169564Y-133559641D01*
X127025797Y-133500091D01*
X126896402Y-133413632D01*
X126786368Y-133303598D01*
X126699909Y-133174203D01*
X126640359Y-133030436D01*
X126610000Y-132877809D01*
X126610000Y-132722191D01*
X126640359Y-132569564D01*
X126699909Y-132425797D01*
X126786368Y-132296402D01*
X126896402Y-132186368D01*
X127025797Y-132099909D01*
X127169564Y-132040359D01*
X127322191Y-132010000D01*
X127477809Y-132010000D01*
X127630436Y-132040359D01*
G37*
G36*
X133073159Y-130931165D02*
G01*
X133179573Y-130963445D01*
X133277638Y-131015862D01*
X133363595Y-131086405D01*
X133434138Y-131172362D01*
X133486555Y-131270427D01*
X133518835Y-131376841D01*
X133530000Y-131490200D01*
X133530000Y-132729800D01*
X133518835Y-132843159D01*
X133486555Y-132949573D01*
X133434138Y-133047638D01*
X133363595Y-133133595D01*
X133277638Y-133204138D01*
X133179573Y-133256555D01*
X133073159Y-133288835D01*
X132959800Y-133300000D01*
X131220200Y-133300000D01*
X131106841Y-133288835D01*
X131000427Y-133256555D01*
X130902362Y-133204138D01*
X130816405Y-133133595D01*
X130745862Y-133047638D01*
X130693445Y-132949573D01*
X130661165Y-132843159D01*
X130650000Y-132729800D01*
X130650000Y-131490200D01*
X130661165Y-131376841D01*
X130693445Y-131270427D01*
X130745862Y-131172362D01*
X130816405Y-131086405D01*
X130902362Y-131015862D01*
X131000427Y-130963445D01*
X131106841Y-130931165D01*
X131220200Y-130920000D01*
X132959800Y-130920000D01*
X133073159Y-130931165D01*
G37*
G36*
X153393159Y-130931165D02*
G01*
X153499573Y-130963445D01*
X153597638Y-131015862D01*
X153683595Y-131086405D01*
X153754138Y-131172362D01*
X153806555Y-131270427D01*
X153838835Y-131376841D01*
X153850000Y-131490200D01*
X153850000Y-132729800D01*
X153838835Y-132843159D01*
X153806555Y-132949573D01*
X153754138Y-133047638D01*
X153683595Y-133133595D01*
X153597638Y-133204138D01*
X153499573Y-133256555D01*
X153393159Y-133288835D01*
X153279800Y-133300000D01*
X151540200Y-133300000D01*
X151426841Y-133288835D01*
X151320427Y-133256555D01*
X151222362Y-133204138D01*
X151136405Y-133133595D01*
X151065862Y-133047638D01*
X151013445Y-132949573D01*
X150981165Y-132843159D01*
X150970000Y-132729800D01*
X150970000Y-131490200D01*
X150981165Y-131376841D01*
X151013445Y-131270427D01*
X151065862Y-131172362D01*
X151136405Y-131086405D01*
X151222362Y-131015862D01*
X151320427Y-130963445D01*
X151426841Y-130931165D01*
X151540200Y-130920000D01*
X153279800Y-130920000D01*
X153393159Y-130931165D01*
G37*
G36*
X161352884Y-130228666D02*
G01*
X161596050Y-130302429D01*
X161820153Y-130422215D01*
X162016581Y-130583419D01*
X162177785Y-130779847D01*
X162297571Y-131003950D01*
X162371334Y-131247116D01*
X162396241Y-131500000D01*
X162371334Y-131752884D01*
X162297571Y-131996050D01*
X162177785Y-132220153D01*
X162016581Y-132416581D01*
X161820153Y-132577785D01*
X161596050Y-132697571D01*
X161352884Y-132771334D01*
X161163366Y-132790000D01*
X160336634Y-132790000D01*
X160147116Y-132771334D01*
X159903950Y-132697571D01*
X159679847Y-132577785D01*
X159483419Y-132416581D01*
X159322215Y-132220153D01*
X159202429Y-131996050D01*
X159128666Y-131752884D01*
X159103759Y-131500000D01*
X159128666Y-131247116D01*
X159202429Y-131003950D01*
X159322215Y-130779847D01*
X159483419Y-130583419D01*
X159679847Y-130422215D01*
X159903950Y-130302429D01*
X160147116Y-130228666D01*
X160336634Y-130210000D01*
X161163366Y-130210000D01*
X161352884Y-130228666D01*
G37*
G36*
X153393159Y-123311165D02*
G01*
X153499573Y-123343445D01*
X153597638Y-123395862D01*
X153683595Y-123466405D01*
X153754138Y-123552362D01*
X153806555Y-123650427D01*
X153838835Y-123756841D01*
X153850000Y-123870200D01*
X153850000Y-125109800D01*
X153838835Y-125223159D01*
X153806555Y-125329573D01*
X153754138Y-125427638D01*
X153683595Y-125513595D01*
X153597638Y-125584138D01*
X153499573Y-125636555D01*
X153393159Y-125668835D01*
X153279800Y-125680000D01*
X151540200Y-125680000D01*
X151426841Y-125668835D01*
X151320427Y-125636555D01*
X151222362Y-125584138D01*
X151136405Y-125513595D01*
X151065862Y-125427638D01*
X151013445Y-125329573D01*
X150981165Y-125223159D01*
X150970000Y-125109800D01*
X150970000Y-123870200D01*
X150981165Y-123756841D01*
X151013445Y-123650427D01*
X151065862Y-123552362D01*
X151136405Y-123466405D01*
X151222362Y-123395862D01*
X151320427Y-123343445D01*
X151426841Y-123311165D01*
X151540200Y-123300000D01*
X153279800Y-123300000D01*
X153393159Y-123311165D01*
G37*
G36*
X133073159Y-120771165D02*
G01*
X133179573Y-120803445D01*
X133277638Y-120855862D01*
X133363595Y-120926405D01*
X133434138Y-121012362D01*
X133486555Y-121110427D01*
X133518835Y-121216841D01*
X133530000Y-121330200D01*
X133530000Y-122569800D01*
X133518835Y-122683159D01*
X133486555Y-122789573D01*
X133434138Y-122887638D01*
X133363595Y-122973595D01*
X133277638Y-123044138D01*
X133179573Y-123096555D01*
X133073159Y-123128835D01*
X132959800Y-123140000D01*
X131220200Y-123140000D01*
X131106841Y-123128835D01*
X131000427Y-123096555D01*
X130902362Y-123044138D01*
X130816405Y-122973595D01*
X130745862Y-122887638D01*
X130693445Y-122789573D01*
X130661165Y-122683159D01*
X130650000Y-122569800D01*
X130650000Y-121330200D01*
X130661165Y-121216841D01*
X130693445Y-121110427D01*
X130745862Y-121012362D01*
X130816405Y-120926405D01*
X130902362Y-120855862D01*
X131000427Y-120803445D01*
X131106841Y-120771165D01*
X131220200Y-120760000D01*
X132959800Y-120760000D01*
X133073159Y-120771165D01*
G37*
G36*
X153393159Y-118231165D02*
G01*
X153499573Y-118263445D01*
X153597638Y-118315862D01*
X153683595Y-118386405D01*
X153754138Y-118472362D01*
X153806555Y-118570427D01*
X153838835Y-118676841D01*
X153850000Y-118790200D01*
X153850000Y-120029800D01*
X153838835Y-120143159D01*
X153806555Y-120249573D01*
X153754138Y-120347638D01*
X153683595Y-120433595D01*
X153597638Y-120504138D01*
X153499573Y-120556555D01*
X153393159Y-120588835D01*
X153279800Y-120600000D01*
X151540200Y-120600000D01*
X151426841Y-120588835D01*
X151320427Y-120556555D01*
X151222362Y-120504138D01*
X151136405Y-120433595D01*
X151065862Y-120347638D01*
X151013445Y-120249573D01*
X150981165Y-120143159D01*
X150970000Y-120029800D01*
X150970000Y-118790200D01*
X150981165Y-118676841D01*
X151013445Y-118570427D01*
X151065862Y-118472362D01*
X151136405Y-118386405D01*
X151222362Y-118315862D01*
X151320427Y-118263445D01*
X151426841Y-118231165D01*
X151540200Y-118220000D01*
X153279800Y-118220000D01*
X153393159Y-118231165D01*
G37*
G36*
X127630436Y-112440359D02*
G01*
X127774203Y-112499909D01*
X127903598Y-112586368D01*
X128013632Y-112696402D01*
X128100091Y-112825797D01*
X128159641Y-112969564D01*
X128190000Y-113122191D01*
X128190000Y-113277809D01*
X128159641Y-113430436D01*
X128100091Y-113574203D01*
X128013632Y-113703598D01*
X127903598Y-113813632D01*
X127774203Y-113900091D01*
X127630436Y-113959641D01*
X127477809Y-113990000D01*
X127322191Y-113990000D01*
X127169564Y-113959641D01*
X127025797Y-113900091D01*
X126896402Y-113813632D01*
X126786368Y-113703598D01*
X126699909Y-113574203D01*
X126640359Y-113430436D01*
X126610000Y-113277809D01*
X126610000Y-113122191D01*
X126640359Y-112969564D01*
X126699909Y-112825797D01*
X126786368Y-112696402D01*
X126896402Y-112586368D01*
X127025797Y-112499909D01*
X127169564Y-112440359D01*
X127322191Y-112410000D01*
X127477809Y-112410000D01*
X127630436Y-112440359D01*
G37*
G36*
X133073159Y-110611165D02*
G01*
X133179573Y-110643445D01*
X133277638Y-110695862D01*
X133363595Y-110766405D01*
X133434138Y-110852362D01*
X133486555Y-110950427D01*
X133518835Y-111056841D01*
X133530000Y-111170200D01*
X133530000Y-112409800D01*
X133518835Y-112523159D01*
X133486555Y-112629573D01*
X133434138Y-112727638D01*
X133363595Y-112813595D01*
X133277638Y-112884138D01*
X133179573Y-112936555D01*
X133073159Y-112968835D01*
X132959800Y-112980000D01*
X131220200Y-112980000D01*
X131106841Y-112968835D01*
X131000427Y-112936555D01*
X130902362Y-112884138D01*
X130816405Y-112813595D01*
X130745862Y-112727638D01*
X130693445Y-112629573D01*
X130661165Y-112523159D01*
X130650000Y-112409800D01*
X130650000Y-111170200D01*
X130661165Y-111056841D01*
X130693445Y-110950427D01*
X130745862Y-110852362D01*
X130816405Y-110766405D01*
X130902362Y-110695862D01*
X131000427Y-110643445D01*
X131106841Y-110611165D01*
X131220200Y-110600000D01*
X132959800Y-110600000D01*
X133073159Y-110611165D01*
G37*
G36*
X125140000Y-111390000D02*
G01*
X123360000Y-111390000D01*
X123360000Y-109610000D01*
X125140000Y-109610000D01*
X125140000Y-111390000D01*
G37*
G36*
X121969605Y-109644203D02*
G01*
X122131570Y-109711291D01*
X122131573Y-109711293D01*
X122277342Y-109808692D01*
X122401308Y-109932658D01*
X122498707Y-110078427D01*
X122498709Y-110078430D01*
X122565797Y-110240395D01*
X122600000Y-110412342D01*
X122600000Y-110587658D01*
X122565797Y-110759605D01*
X122498709Y-110921570D01*
X122498707Y-110921573D01*
X122401308Y-111067342D01*
X122277342Y-111191308D01*
X122131573Y-111288707D01*
X122131570Y-111288709D01*
X121969605Y-111355797D01*
X121797658Y-111390000D01*
X121622342Y-111390000D01*
X121450395Y-111355797D01*
X121288430Y-111288709D01*
X121288427Y-111288707D01*
X121142658Y-111191308D01*
X121018692Y-111067342D01*
X120921293Y-110921573D01*
X120921291Y-110921570D01*
X120854203Y-110759605D01*
X120820000Y-110587658D01*
X120820000Y-110412342D01*
X120854203Y-110240395D01*
X120921291Y-110078430D01*
X120921293Y-110078427D01*
X121018692Y-109932658D01*
X121142658Y-109808692D01*
X121288427Y-109711293D01*
X121288430Y-109711291D01*
X121450395Y-109644203D01*
X121622342Y-109610000D01*
X121797658Y-109610000D01*
X121969605Y-109644203D01*
G37*
G36*
X119429605Y-109644203D02*
G01*
X119591570Y-109711291D01*
X119591573Y-109711293D01*
X119737342Y-109808692D01*
X119861308Y-109932658D01*
X119958707Y-110078427D01*
X119958709Y-110078430D01*
X120025797Y-110240395D01*
X120060000Y-110412342D01*
X120060000Y-110587658D01*
X120025797Y-110759605D01*
X119958709Y-110921570D01*
X119958707Y-110921573D01*
X119861308Y-111067342D01*
X119737342Y-111191308D01*
X119591573Y-111288707D01*
X119591570Y-111288709D01*
X119429605Y-111355797D01*
X119257658Y-111390000D01*
X119082342Y-111390000D01*
X118910395Y-111355797D01*
X118748430Y-111288709D01*
X118748427Y-111288707D01*
X118602658Y-111191308D01*
X118478692Y-111067342D01*
X118381293Y-110921573D01*
X118381291Y-110921570D01*
X118314203Y-110759605D01*
X118280000Y-110587658D01*
X118280000Y-110412342D01*
X118314203Y-110240395D01*
X118381291Y-110078430D01*
X118381293Y-110078427D01*
X118478692Y-109932658D01*
X118602658Y-109808692D01*
X118748427Y-109711293D01*
X118748430Y-109711291D01*
X118910395Y-109644203D01*
X119082342Y-109610000D01*
X119257658Y-109610000D01*
X119429605Y-109644203D01*
G37*
G36*
X116889605Y-109644203D02*
G01*
X117051570Y-109711291D01*
X117051573Y-109711293D01*
X117197342Y-109808692D01*
X117321308Y-109932658D01*
X117418707Y-110078427D01*
X117418709Y-110078430D01*
X117485797Y-110240395D01*
X117520000Y-110412342D01*
X117520000Y-110587658D01*
X117485797Y-110759605D01*
X117418709Y-110921570D01*
X117418707Y-110921573D01*
X117321308Y-111067342D01*
X117197342Y-111191308D01*
X117051573Y-111288707D01*
X117051570Y-111288709D01*
X116889605Y-111355797D01*
X116717658Y-111390000D01*
X116542342Y-111390000D01*
X116370395Y-111355797D01*
X116208430Y-111288709D01*
X116208427Y-111288707D01*
X116062658Y-111191308D01*
X115938692Y-111067342D01*
X115841293Y-110921573D01*
X115841291Y-110921570D01*
X115774203Y-110759605D01*
X115740000Y-110587658D01*
X115740000Y-110412342D01*
X115774203Y-110240395D01*
X115841291Y-110078430D01*
X115841293Y-110078427D01*
X115938692Y-109932658D01*
X116062658Y-109808692D01*
X116208427Y-109711293D01*
X116208430Y-109711291D01*
X116370395Y-109644203D01*
X116542342Y-109610000D01*
X116717658Y-109610000D01*
X116889605Y-109644203D01*
G37*
G36*
X114349605Y-109644203D02*
G01*
X114511570Y-109711291D01*
X114511573Y-109711293D01*
X114657342Y-109808692D01*
X114781308Y-109932658D01*
X114878707Y-110078427D01*
X114878709Y-110078430D01*
X114945797Y-110240395D01*
X114980000Y-110412342D01*
X114980000Y-110587658D01*
X114945797Y-110759605D01*
X114878709Y-110921570D01*
X114878707Y-110921573D01*
X114781308Y-111067342D01*
X114657342Y-111191308D01*
X114511573Y-111288707D01*
X114511570Y-111288709D01*
X114349605Y-111355797D01*
X114177658Y-111390000D01*
X114002342Y-111390000D01*
X113830395Y-111355797D01*
X113668430Y-111288709D01*
X113668427Y-111288707D01*
X113522658Y-111191308D01*
X113398692Y-111067342D01*
X113301293Y-110921573D01*
X113301291Y-110921570D01*
X113234203Y-110759605D01*
X113200000Y-110587658D01*
X113200000Y-110412342D01*
X113234203Y-110240395D01*
X113301291Y-110078430D01*
X113301293Y-110078427D01*
X113398692Y-109932658D01*
X113522658Y-109808692D01*
X113668427Y-109711293D01*
X113668430Y-109711291D01*
X113830395Y-109644203D01*
X114002342Y-109610000D01*
X114177658Y-109610000D01*
X114349605Y-109644203D01*
G37*
G36*
X103961359Y-100880058D02*
G01*
X104418821Y-100971052D01*
X104418824Y-100971053D01*
X104418823Y-100971053D01*
X104992082Y-101208504D01*
X105508010Y-101553236D01*
X105946764Y-101991990D01*
X106291496Y-102507918D01*
X106448729Y-102887514D01*
X106528948Y-103081179D01*
X106567161Y-103273291D01*
X106650000Y-103689751D01*
X106650000Y-104310249D01*
X106619942Y-104461359D01*
X106528948Y-104918821D01*
X106491075Y-105010255D01*
X106291496Y-105492082D01*
X105946764Y-106008010D01*
X105508010Y-106446764D01*
X104992082Y-106791496D01*
X104524703Y-106985090D01*
X104418821Y-107028948D01*
X103961359Y-107119942D01*
X103810249Y-107150000D01*
X103189751Y-107150000D01*
X103038641Y-107119942D01*
X102581179Y-107028948D01*
X102475297Y-106985090D01*
X102007918Y-106791496D01*
X101491990Y-106446764D01*
X101053236Y-106008010D01*
X100708504Y-105492082D01*
X100508925Y-105010255D01*
X100471052Y-104918821D01*
X100380058Y-104461359D01*
X100350000Y-104310249D01*
X100350000Y-103689751D01*
X100432839Y-103273291D01*
X100471052Y-103081179D01*
X100551271Y-102887514D01*
X100708504Y-102507918D01*
X101053236Y-101991990D01*
X101491990Y-101553236D01*
X102007918Y-101208504D01*
X102581177Y-100971053D01*
X102581176Y-100971053D01*
X102581179Y-100971052D01*
X103038641Y-100880058D01*
X103189751Y-100850000D01*
X103810249Y-100850000D01*
X103961359Y-100880058D01*
G37*
G36*
X161961359Y-100880058D02*
G01*
X162418821Y-100971052D01*
X162418824Y-100971053D01*
X162418823Y-100971053D01*
X162992082Y-101208504D01*
X163508010Y-101553236D01*
X163946764Y-101991990D01*
X164291496Y-102507918D01*
X164448729Y-102887514D01*
X164528948Y-103081179D01*
X164567161Y-103273291D01*
X164650000Y-103689751D01*
X164650000Y-104310249D01*
X164619942Y-104461359D01*
X164528948Y-104918821D01*
X164491075Y-105010255D01*
X164291496Y-105492082D01*
X163946764Y-106008010D01*
X163508010Y-106446764D01*
X162992082Y-106791496D01*
X162524703Y-106985090D01*
X162418821Y-107028948D01*
X161961359Y-107119942D01*
X161810249Y-107150000D01*
X161189751Y-107150000D01*
X161038641Y-107119942D01*
X160581179Y-107028948D01*
X160475297Y-106985090D01*
X160007918Y-106791496D01*
X159491990Y-106446764D01*
X159053236Y-106008010D01*
X158708504Y-105492082D01*
X158508925Y-105010255D01*
X158471052Y-104918821D01*
X158380058Y-104461359D01*
X158350000Y-104310249D01*
X158350000Y-103689751D01*
X158432839Y-103273291D01*
X158471052Y-103081179D01*
X158551271Y-102887514D01*
X158708504Y-102507918D01*
X159053236Y-101991990D01*
X159491990Y-101553236D01*
X160007918Y-101208504D01*
X160581177Y-100971053D01*
X160581176Y-100971053D01*
X160581179Y-100971052D01*
X161038641Y-100880058D01*
X161189751Y-100850000D01*
X161810249Y-100850000D01*
X161961359Y-100880058D01*
G37*
G36*
X113607514Y-104750752D02*
G01*
X113705784Y-104791457D01*
X113705786Y-104791458D01*
X113794230Y-104850554D01*
X113869446Y-104925770D01*
X113925897Y-105010256D01*
X113928543Y-105014216D01*
X113969248Y-105112486D01*
X113990000Y-105216814D01*
X113990000Y-105323186D01*
X113969248Y-105427514D01*
X113928543Y-105525784D01*
X113928542Y-105525786D01*
X113869446Y-105614230D01*
X113794230Y-105689446D01*
X113705786Y-105748542D01*
X113705785Y-105748543D01*
X113705784Y-105748543D01*
X113607514Y-105789248D01*
X113503186Y-105810000D01*
X113396814Y-105810000D01*
X113292486Y-105789248D01*
X113194216Y-105748543D01*
X113194215Y-105748543D01*
X113194214Y-105748542D01*
X113105770Y-105689446D01*
X113030554Y-105614230D01*
X112971458Y-105525786D01*
X112971457Y-105525784D01*
X112930752Y-105427514D01*
X112910000Y-105323186D01*
X112910000Y-105216814D01*
X112930752Y-105112486D01*
X112971457Y-105014216D01*
X112974103Y-105010256D01*
X113030554Y-104925770D01*
X113105770Y-104850554D01*
X113194214Y-104791458D01*
X113194216Y-104791457D01*
X113292486Y-104750752D01*
X113396814Y-104730000D01*
X113503186Y-104730000D01*
X113607514Y-104750752D01*
G37*
G36*
X149167514Y-104750752D02*
G01*
X149265784Y-104791457D01*
X149265786Y-104791458D01*
X149354230Y-104850554D01*
X149429446Y-104925770D01*
X149485897Y-105010256D01*
X149488543Y-105014216D01*
X149529248Y-105112486D01*
X149550000Y-105216814D01*
X149550000Y-105323186D01*
X149529248Y-105427514D01*
X149488543Y-105525784D01*
X149488542Y-105525786D01*
X149429446Y-105614230D01*
X149354230Y-105689446D01*
X149265786Y-105748542D01*
X149265785Y-105748543D01*
X149265784Y-105748543D01*
X149167514Y-105789248D01*
X149063186Y-105810000D01*
X148956814Y-105810000D01*
X148852486Y-105789248D01*
X148754216Y-105748543D01*
X148754215Y-105748543D01*
X148754214Y-105748542D01*
X148665770Y-105689446D01*
X148590554Y-105614230D01*
X148531458Y-105525786D01*
X148531457Y-105525784D01*
X148490752Y-105427514D01*
X148470000Y-105323186D01*
X148470000Y-105216814D01*
X148490752Y-105112486D01*
X148531457Y-105014216D01*
X148534103Y-105010256D01*
X148590554Y-104925770D01*
X148665770Y-104850554D01*
X148754214Y-104791458D01*
X148754216Y-104791457D01*
X148852486Y-104750752D01*
X148956814Y-104730000D01*
X149063186Y-104730000D01*
X149167514Y-104750752D01*
G37*
G36*
X108527514Y-104750752D02*
G01*
X108625784Y-104791457D01*
X108625786Y-104791458D01*
X108714230Y-104850554D01*
X108789446Y-104925770D01*
X108845897Y-105010256D01*
X108848543Y-105014216D01*
X108889248Y-105112486D01*
X108910000Y-105216814D01*
X108910000Y-105323186D01*
X108889248Y-105427514D01*
X108848543Y-105525784D01*
X108848542Y-105525786D01*
X108789446Y-105614230D01*
X108714230Y-105689446D01*
X108625786Y-105748542D01*
X108625785Y-105748543D01*
X108625784Y-105748543D01*
X108527514Y-105789248D01*
X108423186Y-105810000D01*
X108316814Y-105810000D01*
X108212486Y-105789248D01*
X108114216Y-105748543D01*
X108114215Y-105748543D01*
X108114214Y-105748542D01*
X108025770Y-105689446D01*
X107950554Y-105614230D01*
X107891458Y-105525786D01*
X107891457Y-105525784D01*
X107850752Y-105427514D01*
X107830000Y-105323186D01*
X107830000Y-105216814D01*
X107850752Y-105112486D01*
X107891457Y-105014216D01*
X107894103Y-105010256D01*
X107950554Y-104925770D01*
X108025770Y-104850554D01*
X108114214Y-104791458D01*
X108114216Y-104791457D01*
X108212486Y-104750752D01*
X108316814Y-104730000D01*
X108423186Y-104730000D01*
X108527514Y-104750752D01*
G37*
G36*
X139007514Y-104750752D02*
G01*
X139105784Y-104791457D01*
X139105786Y-104791458D01*
X139194230Y-104850554D01*
X139269446Y-104925770D01*
X139325897Y-105010256D01*
X139328543Y-105014216D01*
X139369248Y-105112486D01*
X139390000Y-105216814D01*
X139390000Y-105323186D01*
X139369248Y-105427514D01*
X139328543Y-105525784D01*
X139328542Y-105525786D01*
X139269446Y-105614230D01*
X139194230Y-105689446D01*
X139105786Y-105748542D01*
X139105785Y-105748543D01*
X139105784Y-105748543D01*
X139007514Y-105789248D01*
X138903186Y-105810000D01*
X138796814Y-105810000D01*
X138692486Y-105789248D01*
X138594216Y-105748543D01*
X138594215Y-105748543D01*
X138594214Y-105748542D01*
X138505770Y-105689446D01*
X138430554Y-105614230D01*
X138371458Y-105525786D01*
X138371457Y-105525784D01*
X138330752Y-105427514D01*
X138310000Y-105323186D01*
X138310000Y-105216814D01*
X138330752Y-105112486D01*
X138371457Y-105014216D01*
X138374103Y-105010256D01*
X138430554Y-104925770D01*
X138505770Y-104850554D01*
X138594214Y-104791458D01*
X138594216Y-104791457D01*
X138692486Y-104750752D01*
X138796814Y-104730000D01*
X138903186Y-104730000D01*
X139007514Y-104750752D01*
G37*
G36*
X156787514Y-104750752D02*
G01*
X156885784Y-104791457D01*
X156885786Y-104791458D01*
X156974230Y-104850554D01*
X157049446Y-104925770D01*
X157105897Y-105010256D01*
X157108543Y-105014216D01*
X157149248Y-105112486D01*
X157170000Y-105216814D01*
X157170000Y-105323186D01*
X157149248Y-105427514D01*
X157108543Y-105525784D01*
X157108542Y-105525786D01*
X157049446Y-105614230D01*
X156974230Y-105689446D01*
X156885786Y-105748542D01*
X156885785Y-105748543D01*
X156885784Y-105748543D01*
X156787514Y-105789248D01*
X156683186Y-105810000D01*
X156576814Y-105810000D01*
X156472486Y-105789248D01*
X156374216Y-105748543D01*
X156374215Y-105748543D01*
X156374214Y-105748542D01*
X156285770Y-105689446D01*
X156210554Y-105614230D01*
X156151458Y-105525786D01*
X156151457Y-105525784D01*
X156110752Y-105427514D01*
X156090000Y-105323186D01*
X156090000Y-105216814D01*
X156110752Y-105112486D01*
X156151457Y-105014216D01*
X156154103Y-105010256D01*
X156210554Y-104925770D01*
X156285770Y-104850554D01*
X156374214Y-104791458D01*
X156374216Y-104791457D01*
X156472486Y-104750752D01*
X156576814Y-104730000D01*
X156683186Y-104730000D01*
X156787514Y-104750752D01*
G37*
G36*
X154247514Y-104750752D02*
G01*
X154345784Y-104791457D01*
X154345786Y-104791458D01*
X154434230Y-104850554D01*
X154509446Y-104925770D01*
X154565897Y-105010256D01*
X154568543Y-105014216D01*
X154609248Y-105112486D01*
X154630000Y-105216814D01*
X154630000Y-105323186D01*
X154609248Y-105427514D01*
X154568543Y-105525784D01*
X154568542Y-105525786D01*
X154509446Y-105614230D01*
X154434230Y-105689446D01*
X154345786Y-105748542D01*
X154345785Y-105748543D01*
X154345784Y-105748543D01*
X154247514Y-105789248D01*
X154143186Y-105810000D01*
X154036814Y-105810000D01*
X153932486Y-105789248D01*
X153834216Y-105748543D01*
X153834215Y-105748543D01*
X153834214Y-105748542D01*
X153745770Y-105689446D01*
X153670554Y-105614230D01*
X153611458Y-105525786D01*
X153611457Y-105525784D01*
X153570752Y-105427514D01*
X153550000Y-105323186D01*
X153550000Y-105216814D01*
X153570752Y-105112486D01*
X153611457Y-105014216D01*
X153614103Y-105010256D01*
X153670554Y-104925770D01*
X153745770Y-104850554D01*
X153834214Y-104791458D01*
X153834216Y-104791457D01*
X153932486Y-104750752D01*
X154036814Y-104730000D01*
X154143186Y-104730000D01*
X154247514Y-104750752D01*
G37*
G36*
X151707514Y-104750752D02*
G01*
X151805784Y-104791457D01*
X151805786Y-104791458D01*
X151894230Y-104850554D01*
X151969446Y-104925770D01*
X152025897Y-105010256D01*
X152028543Y-105014216D01*
X152069248Y-105112486D01*
X152090000Y-105216814D01*
X152090000Y-105323186D01*
X152069248Y-105427514D01*
X152028543Y-105525784D01*
X152028542Y-105525786D01*
X151969446Y-105614230D01*
X151894230Y-105689446D01*
X151805786Y-105748542D01*
X151805785Y-105748543D01*
X151805784Y-105748543D01*
X151707514Y-105789248D01*
X151603186Y-105810000D01*
X151496814Y-105810000D01*
X151392486Y-105789248D01*
X151294216Y-105748543D01*
X151294215Y-105748543D01*
X151294214Y-105748542D01*
X151205770Y-105689446D01*
X151130554Y-105614230D01*
X151071458Y-105525786D01*
X151071457Y-105525784D01*
X151030752Y-105427514D01*
X151010000Y-105323186D01*
X151010000Y-105216814D01*
X151030752Y-105112486D01*
X151071457Y-105014216D01*
X151074103Y-105010256D01*
X151130554Y-104925770D01*
X151205770Y-104850554D01*
X151294214Y-104791458D01*
X151294216Y-104791457D01*
X151392486Y-104750752D01*
X151496814Y-104730000D01*
X151603186Y-104730000D01*
X151707514Y-104750752D01*
G37*
G36*
X146627514Y-104750752D02*
G01*
X146725784Y-104791457D01*
X146725786Y-104791458D01*
X146814230Y-104850554D01*
X146889446Y-104925770D01*
X146945897Y-105010256D01*
X146948543Y-105014216D01*
X146989248Y-105112486D01*
X147010000Y-105216814D01*
X147010000Y-105323186D01*
X146989248Y-105427514D01*
X146948543Y-105525784D01*
X146948542Y-105525786D01*
X146889446Y-105614230D01*
X146814230Y-105689446D01*
X146725786Y-105748542D01*
X146725785Y-105748543D01*
X146725784Y-105748543D01*
X146627514Y-105789248D01*
X146523186Y-105810000D01*
X146416814Y-105810000D01*
X146312486Y-105789248D01*
X146214216Y-105748543D01*
X146214215Y-105748543D01*
X146214214Y-105748542D01*
X146125770Y-105689446D01*
X146050554Y-105614230D01*
X145991458Y-105525786D01*
X145991457Y-105525784D01*
X145950752Y-105427514D01*
X145930000Y-105323186D01*
X145930000Y-105216814D01*
X145950752Y-105112486D01*
X145991457Y-105014216D01*
X145994103Y-105010256D01*
X146050554Y-104925770D01*
X146125770Y-104850554D01*
X146214214Y-104791458D01*
X146214216Y-104791457D01*
X146312486Y-104750752D01*
X146416814Y-104730000D01*
X146523186Y-104730000D01*
X146627514Y-104750752D01*
G37*
G36*
X144087514Y-104750752D02*
G01*
X144185784Y-104791457D01*
X144185786Y-104791458D01*
X144274230Y-104850554D01*
X144349446Y-104925770D01*
X144405897Y-105010256D01*
X144408543Y-105014216D01*
X144449248Y-105112486D01*
X144470000Y-105216814D01*
X144470000Y-105323186D01*
X144449248Y-105427514D01*
X144408543Y-105525784D01*
X144408542Y-105525786D01*
X144349446Y-105614230D01*
X144274230Y-105689446D01*
X144185786Y-105748542D01*
X144185785Y-105748543D01*
X144185784Y-105748543D01*
X144087514Y-105789248D01*
X143983186Y-105810000D01*
X143876814Y-105810000D01*
X143772486Y-105789248D01*
X143674216Y-105748543D01*
X143674215Y-105748543D01*
X143674214Y-105748542D01*
X143585770Y-105689446D01*
X143510554Y-105614230D01*
X143451458Y-105525786D01*
X143451457Y-105525784D01*
X143410752Y-105427514D01*
X143390000Y-105323186D01*
X143390000Y-105216814D01*
X143410752Y-105112486D01*
X143451457Y-105014216D01*
X143454103Y-105010256D01*
X143510554Y-104925770D01*
X143585770Y-104850554D01*
X143674214Y-104791458D01*
X143674216Y-104791457D01*
X143772486Y-104750752D01*
X143876814Y-104730000D01*
X143983186Y-104730000D01*
X144087514Y-104750752D01*
G37*
G36*
X141547514Y-104750752D02*
G01*
X141645784Y-104791457D01*
X141645786Y-104791458D01*
X141734230Y-104850554D01*
X141809446Y-104925770D01*
X141865897Y-105010256D01*
X141868543Y-105014216D01*
X141909248Y-105112486D01*
X141930000Y-105216814D01*
X141930000Y-105323186D01*
X141909248Y-105427514D01*
X141868543Y-105525784D01*
X141868542Y-105525786D01*
X141809446Y-105614230D01*
X141734230Y-105689446D01*
X141645786Y-105748542D01*
X141645785Y-105748543D01*
X141645784Y-105748543D01*
X141547514Y-105789248D01*
X141443186Y-105810000D01*
X141336814Y-105810000D01*
X141232486Y-105789248D01*
X141134216Y-105748543D01*
X141134215Y-105748543D01*
X141134214Y-105748542D01*
X141045770Y-105689446D01*
X140970554Y-105614230D01*
X140911458Y-105525786D01*
X140911457Y-105525784D01*
X140870752Y-105427514D01*
X140850000Y-105323186D01*
X140850000Y-105216814D01*
X140870752Y-105112486D01*
X140911457Y-105014216D01*
X140914103Y-105010256D01*
X140970554Y-104925770D01*
X141045770Y-104850554D01*
X141134214Y-104791458D01*
X141134216Y-104791457D01*
X141232486Y-104750752D01*
X141336814Y-104730000D01*
X141443186Y-104730000D01*
X141547514Y-104750752D01*
G37*
G36*
X118687514Y-104750752D02*
G01*
X118785784Y-104791457D01*
X118785786Y-104791458D01*
X118874230Y-104850554D01*
X118949446Y-104925770D01*
X119005897Y-105010256D01*
X119008543Y-105014216D01*
X119049248Y-105112486D01*
X119070000Y-105216814D01*
X119070000Y-105323186D01*
X119049248Y-105427514D01*
X119008543Y-105525784D01*
X119008542Y-105525786D01*
X118949446Y-105614230D01*
X118874230Y-105689446D01*
X118785786Y-105748542D01*
X118785785Y-105748543D01*
X118785784Y-105748543D01*
X118687514Y-105789248D01*
X118583186Y-105810000D01*
X118476814Y-105810000D01*
X118372486Y-105789248D01*
X118274216Y-105748543D01*
X118274215Y-105748543D01*
X118274214Y-105748542D01*
X118185770Y-105689446D01*
X118110554Y-105614230D01*
X118051458Y-105525786D01*
X118051457Y-105525784D01*
X118010752Y-105427514D01*
X117990000Y-105323186D01*
X117990000Y-105216814D01*
X118010752Y-105112486D01*
X118051457Y-105014216D01*
X118054103Y-105010256D01*
X118110554Y-104925770D01*
X118185770Y-104850554D01*
X118274214Y-104791458D01*
X118274216Y-104791457D01*
X118372486Y-104750752D01*
X118476814Y-104730000D01*
X118583186Y-104730000D01*
X118687514Y-104750752D01*
G37*
G36*
X136467514Y-104750752D02*
G01*
X136565784Y-104791457D01*
X136565786Y-104791458D01*
X136654230Y-104850554D01*
X136729446Y-104925770D01*
X136785897Y-105010256D01*
X136788543Y-105014216D01*
X136829248Y-105112486D01*
X136850000Y-105216814D01*
X136850000Y-105323186D01*
X136829248Y-105427514D01*
X136788543Y-105525784D01*
X136788542Y-105525786D01*
X136729446Y-105614230D01*
X136654230Y-105689446D01*
X136565786Y-105748542D01*
X136565785Y-105748543D01*
X136565784Y-105748543D01*
X136467514Y-105789248D01*
X136363186Y-105810000D01*
X136256814Y-105810000D01*
X136152486Y-105789248D01*
X136054216Y-105748543D01*
X136054215Y-105748543D01*
X136054214Y-105748542D01*
X135965770Y-105689446D01*
X135890554Y-105614230D01*
X135831458Y-105525786D01*
X135831457Y-105525784D01*
X135790752Y-105427514D01*
X135770000Y-105323186D01*
X135770000Y-105216814D01*
X135790752Y-105112486D01*
X135831457Y-105014216D01*
X135834103Y-105010256D01*
X135890554Y-104925770D01*
X135965770Y-104850554D01*
X136054214Y-104791458D01*
X136054216Y-104791457D01*
X136152486Y-104750752D01*
X136256814Y-104730000D01*
X136363186Y-104730000D01*
X136467514Y-104750752D01*
G37*
G36*
X133927514Y-104750752D02*
G01*
X134025784Y-104791457D01*
X134025786Y-104791458D01*
X134114230Y-104850554D01*
X134189446Y-104925770D01*
X134245897Y-105010256D01*
X134248543Y-105014216D01*
X134289248Y-105112486D01*
X134310000Y-105216814D01*
X134310000Y-105323186D01*
X134289248Y-105427514D01*
X134248543Y-105525784D01*
X134248542Y-105525786D01*
X134189446Y-105614230D01*
X134114230Y-105689446D01*
X134025786Y-105748542D01*
X134025785Y-105748543D01*
X134025784Y-105748543D01*
X133927514Y-105789248D01*
X133823186Y-105810000D01*
X133716814Y-105810000D01*
X133612486Y-105789248D01*
X133514216Y-105748543D01*
X133514215Y-105748543D01*
X133514214Y-105748542D01*
X133425770Y-105689446D01*
X133350554Y-105614230D01*
X133291458Y-105525786D01*
X133291457Y-105525784D01*
X133250752Y-105427514D01*
X133230000Y-105323186D01*
X133230000Y-105216814D01*
X133250752Y-105112486D01*
X133291457Y-105014216D01*
X133294103Y-105010256D01*
X133350554Y-104925770D01*
X133425770Y-104850554D01*
X133514214Y-104791458D01*
X133514216Y-104791457D01*
X133612486Y-104750752D01*
X133716814Y-104730000D01*
X133823186Y-104730000D01*
X133927514Y-104750752D01*
G37*
G36*
X131387514Y-104750752D02*
G01*
X131485784Y-104791457D01*
X131485786Y-104791458D01*
X131574230Y-104850554D01*
X131649446Y-104925770D01*
X131705897Y-105010256D01*
X131708543Y-105014216D01*
X131749248Y-105112486D01*
X131770000Y-105216814D01*
X131770000Y-105323186D01*
X131749248Y-105427514D01*
X131708543Y-105525784D01*
X131708542Y-105525786D01*
X131649446Y-105614230D01*
X131574230Y-105689446D01*
X131485786Y-105748542D01*
X131485785Y-105748543D01*
X131485784Y-105748543D01*
X131387514Y-105789248D01*
X131283186Y-105810000D01*
X131176814Y-105810000D01*
X131072486Y-105789248D01*
X130974216Y-105748543D01*
X130974215Y-105748543D01*
X130974214Y-105748542D01*
X130885770Y-105689446D01*
X130810554Y-105614230D01*
X130751458Y-105525786D01*
X130751457Y-105525784D01*
X130710752Y-105427514D01*
X130690000Y-105323186D01*
X130690000Y-105216814D01*
X130710752Y-105112486D01*
X130751457Y-105014216D01*
X130754103Y-105010256D01*
X130810554Y-104925770D01*
X130885770Y-104850554D01*
X130974214Y-104791458D01*
X130974216Y-104791457D01*
X131072486Y-104750752D01*
X131176814Y-104730000D01*
X131283186Y-104730000D01*
X131387514Y-104750752D01*
G37*
G36*
X121227514Y-104750752D02*
G01*
X121325784Y-104791457D01*
X121325786Y-104791458D01*
X121414230Y-104850554D01*
X121489446Y-104925770D01*
X121545897Y-105010256D01*
X121548543Y-105014216D01*
X121589248Y-105112486D01*
X121610000Y-105216814D01*
X121610000Y-105323186D01*
X121589248Y-105427514D01*
X121548543Y-105525784D01*
X121548542Y-105525786D01*
X121489446Y-105614230D01*
X121414230Y-105689446D01*
X121325786Y-105748542D01*
X121325785Y-105748543D01*
X121325784Y-105748543D01*
X121227514Y-105789248D01*
X121123186Y-105810000D01*
X121016814Y-105810000D01*
X120912486Y-105789248D01*
X120814216Y-105748543D01*
X120814215Y-105748543D01*
X120814214Y-105748542D01*
X120725770Y-105689446D01*
X120650554Y-105614230D01*
X120591458Y-105525786D01*
X120591457Y-105525784D01*
X120550752Y-105427514D01*
X120530000Y-105323186D01*
X120530000Y-105216814D01*
X120550752Y-105112486D01*
X120591457Y-105014216D01*
X120594103Y-105010256D01*
X120650554Y-104925770D01*
X120725770Y-104850554D01*
X120814214Y-104791458D01*
X120814216Y-104791457D01*
X120912486Y-104750752D01*
X121016814Y-104730000D01*
X121123186Y-104730000D01*
X121227514Y-104750752D01*
G37*
G36*
X123767514Y-104750752D02*
G01*
X123865784Y-104791457D01*
X123865786Y-104791458D01*
X123954230Y-104850554D01*
X124029446Y-104925770D01*
X124085897Y-105010256D01*
X124088543Y-105014216D01*
X124129248Y-105112486D01*
X124150000Y-105216814D01*
X124150000Y-105323186D01*
X124129248Y-105427514D01*
X124088543Y-105525784D01*
X124088542Y-105525786D01*
X124029446Y-105614230D01*
X123954230Y-105689446D01*
X123865786Y-105748542D01*
X123865785Y-105748543D01*
X123865784Y-105748543D01*
X123767514Y-105789248D01*
X123663186Y-105810000D01*
X123556814Y-105810000D01*
X123452486Y-105789248D01*
X123354216Y-105748543D01*
X123354215Y-105748543D01*
X123354214Y-105748542D01*
X123265770Y-105689446D01*
X123190554Y-105614230D01*
X123131458Y-105525786D01*
X123131457Y-105525784D01*
X123090752Y-105427514D01*
X123070000Y-105323186D01*
X123070000Y-105216814D01*
X123090752Y-105112486D01*
X123131457Y-105014216D01*
X123134103Y-105010256D01*
X123190554Y-104925770D01*
X123265770Y-104850554D01*
X123354214Y-104791458D01*
X123354216Y-104791457D01*
X123452486Y-104750752D01*
X123556814Y-104730000D01*
X123663186Y-104730000D01*
X123767514Y-104750752D01*
G37*
G36*
X126307514Y-104750752D02*
G01*
X126405784Y-104791457D01*
X126405786Y-104791458D01*
X126494230Y-104850554D01*
X126569446Y-104925770D01*
X126625897Y-105010256D01*
X126628543Y-105014216D01*
X126669248Y-105112486D01*
X126690000Y-105216814D01*
X126690000Y-105323186D01*
X126669248Y-105427514D01*
X126628543Y-105525784D01*
X126628542Y-105525786D01*
X126569446Y-105614230D01*
X126494230Y-105689446D01*
X126405786Y-105748542D01*
X126405785Y-105748543D01*
X126405784Y-105748543D01*
X126307514Y-105789248D01*
X126203186Y-105810000D01*
X126096814Y-105810000D01*
X125992486Y-105789248D01*
X125894216Y-105748543D01*
X125894215Y-105748543D01*
X125894214Y-105748542D01*
X125805770Y-105689446D01*
X125730554Y-105614230D01*
X125671458Y-105525786D01*
X125671457Y-105525784D01*
X125630752Y-105427514D01*
X125610000Y-105323186D01*
X125610000Y-105216814D01*
X125630752Y-105112486D01*
X125671457Y-105014216D01*
X125674103Y-105010256D01*
X125730554Y-104925770D01*
X125805770Y-104850554D01*
X125894214Y-104791458D01*
X125894216Y-104791457D01*
X125992486Y-104750752D01*
X126096814Y-104730000D01*
X126203186Y-104730000D01*
X126307514Y-104750752D01*
G37*
G36*
X128847514Y-104750752D02*
G01*
X128945784Y-104791457D01*
X128945786Y-104791458D01*
X129034230Y-104850554D01*
X129109446Y-104925770D01*
X129165897Y-105010256D01*
X129168543Y-105014216D01*
X129209248Y-105112486D01*
X129230000Y-105216814D01*
X129230000Y-105323186D01*
X129209248Y-105427514D01*
X129168543Y-105525784D01*
X129168542Y-105525786D01*
X129109446Y-105614230D01*
X129034230Y-105689446D01*
X128945786Y-105748542D01*
X128945785Y-105748543D01*
X128945784Y-105748543D01*
X128847514Y-105789248D01*
X128743186Y-105810000D01*
X128636814Y-105810000D01*
X128532486Y-105789248D01*
X128434216Y-105748543D01*
X128434215Y-105748543D01*
X128434214Y-105748542D01*
X128345770Y-105689446D01*
X128270554Y-105614230D01*
X128211458Y-105525786D01*
X128211457Y-105525784D01*
X128170752Y-105427514D01*
X128150000Y-105323186D01*
X128150000Y-105216814D01*
X128170752Y-105112486D01*
X128211457Y-105014216D01*
X128214103Y-105010256D01*
X128270554Y-104925770D01*
X128345770Y-104850554D01*
X128434214Y-104791458D01*
X128434216Y-104791457D01*
X128532486Y-104750752D01*
X128636814Y-104730000D01*
X128743186Y-104730000D01*
X128847514Y-104750752D01*
G37*
G36*
X111067514Y-104750752D02*
G01*
X111165784Y-104791457D01*
X111165786Y-104791458D01*
X111254230Y-104850554D01*
X111329446Y-104925770D01*
X111385897Y-105010256D01*
X111388543Y-105014216D01*
X111429248Y-105112486D01*
X111450000Y-105216814D01*
X111450000Y-105323186D01*
X111429248Y-105427514D01*
X111388543Y-105525784D01*
X111388542Y-105525786D01*
X111329446Y-105614230D01*
X111254230Y-105689446D01*
X111165786Y-105748542D01*
X111165785Y-105748543D01*
X111165784Y-105748543D01*
X111067514Y-105789248D01*
X110963186Y-105810000D01*
X110856814Y-105810000D01*
X110752486Y-105789248D01*
X110654216Y-105748543D01*
X110654215Y-105748543D01*
X110654214Y-105748542D01*
X110565770Y-105689446D01*
X110490554Y-105614230D01*
X110431458Y-105525786D01*
X110431457Y-105525784D01*
X110390752Y-105427514D01*
X110370000Y-105323186D01*
X110370000Y-105216814D01*
X110390752Y-105112486D01*
X110431457Y-105014216D01*
X110434103Y-105010256D01*
X110490554Y-104925770D01*
X110565770Y-104850554D01*
X110654214Y-104791458D01*
X110654216Y-104791457D01*
X110752486Y-104750752D01*
X110856814Y-104730000D01*
X110963186Y-104730000D01*
X111067514Y-104750752D01*
G37*
G36*
X116147514Y-104750752D02*
G01*
X116245784Y-104791457D01*
X116245786Y-104791458D01*
X116334230Y-104850554D01*
X116409446Y-104925770D01*
X116465897Y-105010256D01*
X116468543Y-105014216D01*
X116509248Y-105112486D01*
X116530000Y-105216814D01*
X116530000Y-105323186D01*
X116509248Y-105427514D01*
X116468543Y-105525784D01*
X116468542Y-105525786D01*
X116409446Y-105614230D01*
X116334230Y-105689446D01*
X116245786Y-105748542D01*
X116245785Y-105748543D01*
X116245784Y-105748543D01*
X116147514Y-105789248D01*
X116043186Y-105810000D01*
X115936814Y-105810000D01*
X115832486Y-105789248D01*
X115734216Y-105748543D01*
X115734215Y-105748543D01*
X115734214Y-105748542D01*
X115645770Y-105689446D01*
X115570554Y-105614230D01*
X115511458Y-105525786D01*
X115511457Y-105525784D01*
X115470752Y-105427514D01*
X115450000Y-105323186D01*
X115450000Y-105216814D01*
X115470752Y-105112486D01*
X115511457Y-105014216D01*
X115514103Y-105010256D01*
X115570554Y-104925770D01*
X115645770Y-104850554D01*
X115734214Y-104791458D01*
X115734216Y-104791457D01*
X115832486Y-104750752D01*
X115936814Y-104730000D01*
X116043186Y-104730000D01*
X116147514Y-104750752D01*
G37*
G36*
X109972527Y-102903810D02*
G01*
X110103355Y-102958001D01*
X110179993Y-102989745D01*
X110366708Y-103114504D01*
X110525496Y-103273292D01*
X110650255Y-103460007D01*
X110650256Y-103460010D01*
X110736190Y-103667473D01*
X110780000Y-103887719D01*
X110780000Y-104112281D01*
X110740621Y-104310249D01*
X110736190Y-104332526D01*
X110650255Y-104539993D01*
X110525496Y-104726708D01*
X110366708Y-104885496D01*
X110179993Y-105010255D01*
X110170435Y-105014214D01*
X109972527Y-105096190D01*
X109752281Y-105140000D01*
X109527719Y-105140000D01*
X109307473Y-105096190D01*
X109109565Y-105014214D01*
X109100007Y-105010255D01*
X108913292Y-104885496D01*
X108754504Y-104726708D01*
X108629745Y-104539993D01*
X108543810Y-104332526D01*
X108539379Y-104310249D01*
X108500000Y-104112281D01*
X108500000Y-103887719D01*
X108543810Y-103667473D01*
X108629744Y-103460010D01*
X108629745Y-103460007D01*
X108754504Y-103273292D01*
X108913292Y-103114504D01*
X109100007Y-102989745D01*
X109176645Y-102958001D01*
X109307473Y-102903810D01*
X109527719Y-102860000D01*
X109752281Y-102860000D01*
X109972527Y-102903810D01*
G37*
G36*
X155692527Y-102903810D02*
G01*
X155823355Y-102958001D01*
X155899993Y-102989745D01*
X156086708Y-103114504D01*
X156245496Y-103273292D01*
X156370255Y-103460007D01*
X156370256Y-103460010D01*
X156456190Y-103667473D01*
X156500000Y-103887719D01*
X156500000Y-104112281D01*
X156460621Y-104310249D01*
X156456190Y-104332526D01*
X156370255Y-104539993D01*
X156245496Y-104726708D01*
X156086708Y-104885496D01*
X155899993Y-105010255D01*
X155890435Y-105014214D01*
X155692527Y-105096190D01*
X155472281Y-105140000D01*
X155247719Y-105140000D01*
X155027473Y-105096190D01*
X154829565Y-105014214D01*
X154820007Y-105010255D01*
X154633292Y-104885496D01*
X154474504Y-104726708D01*
X154349745Y-104539993D01*
X154263810Y-104332526D01*
X154259379Y-104310249D01*
X154220000Y-104112281D01*
X154220000Y-103887719D01*
X154263810Y-103667473D01*
X154349744Y-103460010D01*
X154349745Y-103460007D01*
X154474504Y-103273292D01*
X154633292Y-103114504D01*
X154820007Y-102989745D01*
X154896645Y-102958001D01*
X155027473Y-102903810D01*
X155247719Y-102860000D01*
X155472281Y-102860000D01*
X155692527Y-102903810D01*
G37*
G36*
X131387514Y-102210752D02*
G01*
X131485784Y-102251457D01*
X131485786Y-102251458D01*
X131574230Y-102310554D01*
X131649446Y-102385770D01*
X131708542Y-102474214D01*
X131708543Y-102474216D01*
X131749248Y-102572486D01*
X131770000Y-102676814D01*
X131770000Y-102783186D01*
X131749248Y-102887514D01*
X131708543Y-102985784D01*
X131708542Y-102985786D01*
X131649446Y-103074230D01*
X131574230Y-103149446D01*
X131485786Y-103208542D01*
X131485785Y-103208543D01*
X131485784Y-103208543D01*
X131387514Y-103249248D01*
X131283186Y-103270000D01*
X131176814Y-103270000D01*
X131072486Y-103249248D01*
X130974216Y-103208543D01*
X130974215Y-103208543D01*
X130974214Y-103208542D01*
X130885770Y-103149446D01*
X130810554Y-103074230D01*
X130751458Y-102985786D01*
X130751457Y-102985784D01*
X130710752Y-102887514D01*
X130690000Y-102783186D01*
X130690000Y-102676814D01*
X130710752Y-102572486D01*
X130751457Y-102474216D01*
X130751458Y-102474214D01*
X130810554Y-102385770D01*
X130885770Y-102310554D01*
X130974214Y-102251458D01*
X130974216Y-102251457D01*
X131072486Y-102210752D01*
X131176814Y-102190000D01*
X131283186Y-102190000D01*
X131387514Y-102210752D01*
G37*
G36*
X128847514Y-102210752D02*
G01*
X128945784Y-102251457D01*
X128945786Y-102251458D01*
X129034230Y-102310554D01*
X129109446Y-102385770D01*
X129168542Y-102474214D01*
X129168543Y-102474216D01*
X129209248Y-102572486D01*
X129230000Y-102676814D01*
X129230000Y-102783186D01*
X129209248Y-102887514D01*
X129168543Y-102985784D01*
X129168542Y-102985786D01*
X129109446Y-103074230D01*
X129034230Y-103149446D01*
X128945786Y-103208542D01*
X128945785Y-103208543D01*
X128945784Y-103208543D01*
X128847514Y-103249248D01*
X128743186Y-103270000D01*
X128636814Y-103270000D01*
X128532486Y-103249248D01*
X128434216Y-103208543D01*
X128434215Y-103208543D01*
X128434214Y-103208542D01*
X128345770Y-103149446D01*
X128270554Y-103074230D01*
X128211458Y-102985786D01*
X128211457Y-102985784D01*
X128170752Y-102887514D01*
X128150000Y-102783186D01*
X128150000Y-102676814D01*
X128170752Y-102572486D01*
X128211457Y-102474216D01*
X128211458Y-102474214D01*
X128270554Y-102385770D01*
X128345770Y-102310554D01*
X128434214Y-102251458D01*
X128434216Y-102251457D01*
X128532486Y-102210752D01*
X128636814Y-102190000D01*
X128743186Y-102190000D01*
X128847514Y-102210752D01*
G37*
G36*
X126307514Y-102210752D02*
G01*
X126405784Y-102251457D01*
X126405786Y-102251458D01*
X126494230Y-102310554D01*
X126569446Y-102385770D01*
X126628542Y-102474214D01*
X126628543Y-102474216D01*
X126669248Y-102572486D01*
X126690000Y-102676814D01*
X126690000Y-102783186D01*
X126669248Y-102887514D01*
X126628543Y-102985784D01*
X126628542Y-102985786D01*
X126569446Y-103074230D01*
X126494230Y-103149446D01*
X126405786Y-103208542D01*
X126405785Y-103208543D01*
X126405784Y-103208543D01*
X126307514Y-103249248D01*
X126203186Y-103270000D01*
X126096814Y-103270000D01*
X125992486Y-103249248D01*
X125894216Y-103208543D01*
X125894215Y-103208543D01*
X125894214Y-103208542D01*
X125805770Y-103149446D01*
X125730554Y-103074230D01*
X125671458Y-102985786D01*
X125671457Y-102985784D01*
X125630752Y-102887514D01*
X125610000Y-102783186D01*
X125610000Y-102676814D01*
X125630752Y-102572486D01*
X125671457Y-102474216D01*
X125671458Y-102474214D01*
X125730554Y-102385770D01*
X125805770Y-102310554D01*
X125894214Y-102251458D01*
X125894216Y-102251457D01*
X125992486Y-102210752D01*
X126096814Y-102190000D01*
X126203186Y-102190000D01*
X126307514Y-102210752D01*
G37*
G36*
X136467514Y-102210752D02*
G01*
X136565784Y-102251457D01*
X136565786Y-102251458D01*
X136654230Y-102310554D01*
X136729446Y-102385770D01*
X136788542Y-102474214D01*
X136788543Y-102474216D01*
X136829248Y-102572486D01*
X136850000Y-102676814D01*
X136850000Y-102783186D01*
X136829248Y-102887514D01*
X136788543Y-102985784D01*
X136788542Y-102985786D01*
X136729446Y-103074230D01*
X136654230Y-103149446D01*
X136565786Y-103208542D01*
X136565785Y-103208543D01*
X136565784Y-103208543D01*
X136467514Y-103249248D01*
X136363186Y-103270000D01*
X136256814Y-103270000D01*
X136152486Y-103249248D01*
X136054216Y-103208543D01*
X136054215Y-103208543D01*
X136054214Y-103208542D01*
X135965770Y-103149446D01*
X135890554Y-103074230D01*
X135831458Y-102985786D01*
X135831457Y-102985784D01*
X135790752Y-102887514D01*
X135770000Y-102783186D01*
X135770000Y-102676814D01*
X135790752Y-102572486D01*
X135831457Y-102474216D01*
X135831458Y-102474214D01*
X135890554Y-102385770D01*
X135965770Y-102310554D01*
X136054214Y-102251458D01*
X136054216Y-102251457D01*
X136152486Y-102210752D01*
X136256814Y-102190000D01*
X136363186Y-102190000D01*
X136467514Y-102210752D01*
G37*
G36*
X123767514Y-102210752D02*
G01*
X123865784Y-102251457D01*
X123865786Y-102251458D01*
X123954230Y-102310554D01*
X124029446Y-102385770D01*
X124088542Y-102474214D01*
X124088543Y-102474216D01*
X124129248Y-102572486D01*
X124150000Y-102676814D01*
X124150000Y-102783186D01*
X124129248Y-102887514D01*
X124088543Y-102985784D01*
X124088542Y-102985786D01*
X124029446Y-103074230D01*
X123954230Y-103149446D01*
X123865786Y-103208542D01*
X123865785Y-103208543D01*
X123865784Y-103208543D01*
X123767514Y-103249248D01*
X123663186Y-103270000D01*
X123556814Y-103270000D01*
X123452486Y-103249248D01*
X123354216Y-103208543D01*
X123354215Y-103208543D01*
X123354214Y-103208542D01*
X123265770Y-103149446D01*
X123190554Y-103074230D01*
X123131458Y-102985786D01*
X123131457Y-102985784D01*
X123090752Y-102887514D01*
X123070000Y-102783186D01*
X123070000Y-102676814D01*
X123090752Y-102572486D01*
X123131457Y-102474216D01*
X123131458Y-102474214D01*
X123190554Y-102385770D01*
X123265770Y-102310554D01*
X123354214Y-102251458D01*
X123354216Y-102251457D01*
X123452486Y-102210752D01*
X123556814Y-102190000D01*
X123663186Y-102190000D01*
X123767514Y-102210752D01*
G37*
G36*
X139007514Y-102210752D02*
G01*
X139105784Y-102251457D01*
X139105786Y-102251458D01*
X139194230Y-102310554D01*
X139269446Y-102385770D01*
X139328542Y-102474214D01*
X139328543Y-102474216D01*
X139369248Y-102572486D01*
X139390000Y-102676814D01*
X139390000Y-102783186D01*
X139369248Y-102887514D01*
X139328543Y-102985784D01*
X139328542Y-102985786D01*
X139269446Y-103074230D01*
X139194230Y-103149446D01*
X139105786Y-103208542D01*
X139105785Y-103208543D01*
X139105784Y-103208543D01*
X139007514Y-103249248D01*
X138903186Y-103270000D01*
X138796814Y-103270000D01*
X138692486Y-103249248D01*
X138594216Y-103208543D01*
X138594215Y-103208543D01*
X138594214Y-103208542D01*
X138505770Y-103149446D01*
X138430554Y-103074230D01*
X138371458Y-102985786D01*
X138371457Y-102985784D01*
X138330752Y-102887514D01*
X138310000Y-102783186D01*
X138310000Y-102676814D01*
X138330752Y-102572486D01*
X138371457Y-102474216D01*
X138371458Y-102474214D01*
X138430554Y-102385770D01*
X138505770Y-102310554D01*
X138594214Y-102251458D01*
X138594216Y-102251457D01*
X138692486Y-102210752D01*
X138796814Y-102190000D01*
X138903186Y-102190000D01*
X139007514Y-102210752D01*
G37*
G36*
X121227514Y-102210752D02*
G01*
X121325784Y-102251457D01*
X121325786Y-102251458D01*
X121414230Y-102310554D01*
X121489446Y-102385770D01*
X121548542Y-102474214D01*
X121548543Y-102474216D01*
X121589248Y-102572486D01*
X121610000Y-102676814D01*
X121610000Y-102783186D01*
X121589248Y-102887514D01*
X121548543Y-102985784D01*
X121548542Y-102985786D01*
X121489446Y-103074230D01*
X121414230Y-103149446D01*
X121325786Y-103208542D01*
X121325785Y-103208543D01*
X121325784Y-103208543D01*
X121227514Y-103249248D01*
X121123186Y-103270000D01*
X121016814Y-103270000D01*
X120912486Y-103249248D01*
X120814216Y-103208543D01*
X120814215Y-103208543D01*
X120814214Y-103208542D01*
X120725770Y-103149446D01*
X120650554Y-103074230D01*
X120591458Y-102985786D01*
X120591457Y-102985784D01*
X120550752Y-102887514D01*
X120530000Y-102783186D01*
X120530000Y-102676814D01*
X120550752Y-102572486D01*
X120591457Y-102474216D01*
X120591458Y-102474214D01*
X120650554Y-102385770D01*
X120725770Y-102310554D01*
X120814214Y-102251458D01*
X120814216Y-102251457D01*
X120912486Y-102210752D01*
X121016814Y-102190000D01*
X121123186Y-102190000D01*
X121227514Y-102210752D01*
G37*
G36*
X141547514Y-102210752D02*
G01*
X141645784Y-102251457D01*
X141645786Y-102251458D01*
X141734230Y-102310554D01*
X141809446Y-102385770D01*
X141868542Y-102474214D01*
X141868543Y-102474216D01*
X141909248Y-102572486D01*
X141930000Y-102676814D01*
X141930000Y-102783186D01*
X141909248Y-102887514D01*
X141868543Y-102985784D01*
X141868542Y-102985786D01*
X141809446Y-103074230D01*
X141734230Y-103149446D01*
X141645786Y-103208542D01*
X141645785Y-103208543D01*
X141645784Y-103208543D01*
X141547514Y-103249248D01*
X141443186Y-103270000D01*
X141336814Y-103270000D01*
X141232486Y-103249248D01*
X141134216Y-103208543D01*
X141134215Y-103208543D01*
X141134214Y-103208542D01*
X141045770Y-103149446D01*
X140970554Y-103074230D01*
X140911458Y-102985786D01*
X140911457Y-102985784D01*
X140870752Y-102887514D01*
X140850000Y-102783186D01*
X140850000Y-102676814D01*
X140870752Y-102572486D01*
X140911457Y-102474216D01*
X140911458Y-102474214D01*
X140970554Y-102385770D01*
X141045770Y-102310554D01*
X141134214Y-102251458D01*
X141134216Y-102251457D01*
X141232486Y-102210752D01*
X141336814Y-102190000D01*
X141443186Y-102190000D01*
X141547514Y-102210752D01*
G37*
G36*
X118687514Y-102210752D02*
G01*
X118785784Y-102251457D01*
X118785786Y-102251458D01*
X118874230Y-102310554D01*
X118949446Y-102385770D01*
X119008542Y-102474214D01*
X119008543Y-102474216D01*
X119049248Y-102572486D01*
X119070000Y-102676814D01*
X119070000Y-102783186D01*
X119049248Y-102887514D01*
X119008543Y-102985784D01*
X119008542Y-102985786D01*
X118949446Y-103074230D01*
X118874230Y-103149446D01*
X118785786Y-103208542D01*
X118785785Y-103208543D01*
X118785784Y-103208543D01*
X118687514Y-103249248D01*
X118583186Y-103270000D01*
X118476814Y-103270000D01*
X118372486Y-103249248D01*
X118274216Y-103208543D01*
X118274215Y-103208543D01*
X118274214Y-103208542D01*
X118185770Y-103149446D01*
X118110554Y-103074230D01*
X118051458Y-102985786D01*
X118051457Y-102985784D01*
X118010752Y-102887514D01*
X117990000Y-102783186D01*
X117990000Y-102676814D01*
X118010752Y-102572486D01*
X118051457Y-102474216D01*
X118051458Y-102474214D01*
X118110554Y-102385770D01*
X118185770Y-102310554D01*
X118274214Y-102251458D01*
X118274216Y-102251457D01*
X118372486Y-102210752D01*
X118476814Y-102190000D01*
X118583186Y-102190000D01*
X118687514Y-102210752D01*
G37*
G36*
X116147514Y-102210752D02*
G01*
X116245784Y-102251457D01*
X116245786Y-102251458D01*
X116334230Y-102310554D01*
X116409446Y-102385770D01*
X116468542Y-102474214D01*
X116468543Y-102474216D01*
X116509248Y-102572486D01*
X116530000Y-102676814D01*
X116530000Y-102783186D01*
X116509248Y-102887514D01*
X116468543Y-102985784D01*
X116468542Y-102985786D01*
X116409446Y-103074230D01*
X116334230Y-103149446D01*
X116245786Y-103208542D01*
X116245785Y-103208543D01*
X116245784Y-103208543D01*
X116147514Y-103249248D01*
X116043186Y-103270000D01*
X115936814Y-103270000D01*
X115832486Y-103249248D01*
X115734216Y-103208543D01*
X115734215Y-103208543D01*
X115734214Y-103208542D01*
X115645770Y-103149446D01*
X115570554Y-103074230D01*
X115511458Y-102985786D01*
X115511457Y-102985784D01*
X115470752Y-102887514D01*
X115450000Y-102783186D01*
X115450000Y-102676814D01*
X115470752Y-102572486D01*
X115511457Y-102474216D01*
X115511458Y-102474214D01*
X115570554Y-102385770D01*
X115645770Y-102310554D01*
X115734214Y-102251458D01*
X115734216Y-102251457D01*
X115832486Y-102210752D01*
X115936814Y-102190000D01*
X116043186Y-102190000D01*
X116147514Y-102210752D01*
G37*
G36*
X133927514Y-102210752D02*
G01*
X134025784Y-102251457D01*
X134025786Y-102251458D01*
X134114230Y-102310554D01*
X134189446Y-102385770D01*
X134248542Y-102474214D01*
X134248543Y-102474216D01*
X134289248Y-102572486D01*
X134310000Y-102676814D01*
X134310000Y-102783186D01*
X134289248Y-102887514D01*
X134248543Y-102985784D01*
X134248542Y-102985786D01*
X134189446Y-103074230D01*
X134114230Y-103149446D01*
X134025786Y-103208542D01*
X134025785Y-103208543D01*
X134025784Y-103208543D01*
X133927514Y-103249248D01*
X133823186Y-103270000D01*
X133716814Y-103270000D01*
X133612486Y-103249248D01*
X133514216Y-103208543D01*
X133514215Y-103208543D01*
X133514214Y-103208542D01*
X133425770Y-103149446D01*
X133350554Y-103074230D01*
X133291458Y-102985786D01*
X133291457Y-102985784D01*
X133250752Y-102887514D01*
X133230000Y-102783186D01*
X133230000Y-102676814D01*
X133250752Y-102572486D01*
X133291457Y-102474216D01*
X133291458Y-102474214D01*
X133350554Y-102385770D01*
X133425770Y-102310554D01*
X133514214Y-102251458D01*
X133514216Y-102251457D01*
X133612486Y-102210752D01*
X133716814Y-102190000D01*
X133823186Y-102190000D01*
X133927514Y-102210752D01*
G37*
G36*
X144087514Y-102210752D02*
G01*
X144185784Y-102251457D01*
X144185786Y-102251458D01*
X144274230Y-102310554D01*
X144349446Y-102385770D01*
X144408542Y-102474214D01*
X144408543Y-102474216D01*
X144449248Y-102572486D01*
X144470000Y-102676814D01*
X144470000Y-102783186D01*
X144449248Y-102887514D01*
X144408543Y-102985784D01*
X144408542Y-102985786D01*
X144349446Y-103074230D01*
X144274230Y-103149446D01*
X144185786Y-103208542D01*
X144185785Y-103208543D01*
X144185784Y-103208543D01*
X144087514Y-103249248D01*
X143983186Y-103270000D01*
X143876814Y-103270000D01*
X143772486Y-103249248D01*
X143674216Y-103208543D01*
X143674215Y-103208543D01*
X143674214Y-103208542D01*
X143585770Y-103149446D01*
X143510554Y-103074230D01*
X143451458Y-102985786D01*
X143451457Y-102985784D01*
X143410752Y-102887514D01*
X143390000Y-102783186D01*
X143390000Y-102676814D01*
X143410752Y-102572486D01*
X143451457Y-102474216D01*
X143451458Y-102474214D01*
X143510554Y-102385770D01*
X143585770Y-102310554D01*
X143674214Y-102251458D01*
X143674216Y-102251457D01*
X143772486Y-102210752D01*
X143876814Y-102190000D01*
X143983186Y-102190000D01*
X144087514Y-102210752D01*
G37*
G36*
X146627514Y-102210752D02*
G01*
X146725784Y-102251457D01*
X146725786Y-102251458D01*
X146814230Y-102310554D01*
X146889446Y-102385770D01*
X146948542Y-102474214D01*
X146948543Y-102474216D01*
X146989248Y-102572486D01*
X147010000Y-102676814D01*
X147010000Y-102783186D01*
X146989248Y-102887514D01*
X146948543Y-102985784D01*
X146948542Y-102985786D01*
X146889446Y-103074230D01*
X146814230Y-103149446D01*
X146725786Y-103208542D01*
X146725785Y-103208543D01*
X146725784Y-103208543D01*
X146627514Y-103249248D01*
X146523186Y-103270000D01*
X146416814Y-103270000D01*
X146312486Y-103249248D01*
X146214216Y-103208543D01*
X146214215Y-103208543D01*
X146214214Y-103208542D01*
X146125770Y-103149446D01*
X146050554Y-103074230D01*
X145991458Y-102985786D01*
X145991457Y-102985784D01*
X145950752Y-102887514D01*
X145930000Y-102783186D01*
X145930000Y-102676814D01*
X145950752Y-102572486D01*
X145991457Y-102474216D01*
X145991458Y-102474214D01*
X146050554Y-102385770D01*
X146125770Y-102310554D01*
X146214214Y-102251458D01*
X146214216Y-102251457D01*
X146312486Y-102210752D01*
X146416814Y-102190000D01*
X146523186Y-102190000D01*
X146627514Y-102210752D01*
G37*
G36*
X113607514Y-102210752D02*
G01*
X113705784Y-102251457D01*
X113705786Y-102251458D01*
X113794230Y-102310554D01*
X113869446Y-102385770D01*
X113928542Y-102474214D01*
X113928543Y-102474216D01*
X113969248Y-102572486D01*
X113990000Y-102676814D01*
X113990000Y-102783186D01*
X113969248Y-102887514D01*
X113928543Y-102985784D01*
X113928542Y-102985786D01*
X113869446Y-103074230D01*
X113794230Y-103149446D01*
X113705786Y-103208542D01*
X113705785Y-103208543D01*
X113705784Y-103208543D01*
X113607514Y-103249248D01*
X113503186Y-103270000D01*
X113396814Y-103270000D01*
X113292486Y-103249248D01*
X113194216Y-103208543D01*
X113194215Y-103208543D01*
X113194214Y-103208542D01*
X113105770Y-103149446D01*
X113030554Y-103074230D01*
X112971458Y-102985786D01*
X112971457Y-102985784D01*
X112930752Y-102887514D01*
X112910000Y-102783186D01*
X112910000Y-102676814D01*
X112930752Y-102572486D01*
X112971457Y-102474216D01*
X112971458Y-102474214D01*
X113030554Y-102385770D01*
X113105770Y-102310554D01*
X113194214Y-102251458D01*
X113194216Y-102251457D01*
X113292486Y-102210752D01*
X113396814Y-102190000D01*
X113503186Y-102190000D01*
X113607514Y-102210752D01*
G37*
G36*
X111067514Y-102210752D02*
G01*
X111165784Y-102251457D01*
X111165786Y-102251458D01*
X111254230Y-102310554D01*
X111329446Y-102385770D01*
X111388542Y-102474214D01*
X111388543Y-102474216D01*
X111429248Y-102572486D01*
X111450000Y-102676814D01*
X111450000Y-102783186D01*
X111429248Y-102887514D01*
X111388543Y-102985784D01*
X111388542Y-102985786D01*
X111329446Y-103074230D01*
X111254230Y-103149446D01*
X111165786Y-103208542D01*
X111165785Y-103208543D01*
X111165784Y-103208543D01*
X111067514Y-103249248D01*
X110963186Y-103270000D01*
X110856814Y-103270000D01*
X110752486Y-103249248D01*
X110654216Y-103208543D01*
X110654215Y-103208543D01*
X110654214Y-103208542D01*
X110565770Y-103149446D01*
X110490554Y-103074230D01*
X110431458Y-102985786D01*
X110431457Y-102985784D01*
X110390752Y-102887514D01*
X110370000Y-102783186D01*
X110370000Y-102676814D01*
X110390752Y-102572486D01*
X110431457Y-102474216D01*
X110431458Y-102474214D01*
X110490554Y-102385770D01*
X110565770Y-102310554D01*
X110654214Y-102251458D01*
X110654216Y-102251457D01*
X110752486Y-102210752D01*
X110856814Y-102190000D01*
X110963186Y-102190000D01*
X111067514Y-102210752D01*
G37*
G36*
X108527514Y-102210752D02*
G01*
X108625784Y-102251457D01*
X108625786Y-102251458D01*
X108714230Y-102310554D01*
X108789446Y-102385770D01*
X108848542Y-102474214D01*
X108848543Y-102474216D01*
X108889248Y-102572486D01*
X108910000Y-102676814D01*
X108910000Y-102783186D01*
X108889248Y-102887514D01*
X108848543Y-102985784D01*
X108848542Y-102985786D01*
X108789446Y-103074230D01*
X108714230Y-103149446D01*
X108625786Y-103208542D01*
X108625785Y-103208543D01*
X108625784Y-103208543D01*
X108527514Y-103249248D01*
X108423186Y-103270000D01*
X108316814Y-103270000D01*
X108212486Y-103249248D01*
X108114216Y-103208543D01*
X108114215Y-103208543D01*
X108114214Y-103208542D01*
X108025770Y-103149446D01*
X107950554Y-103074230D01*
X107891458Y-102985786D01*
X107891457Y-102985784D01*
X107850752Y-102887514D01*
X107830000Y-102783186D01*
X107830000Y-102676814D01*
X107850752Y-102572486D01*
X107891457Y-102474216D01*
X107891458Y-102474214D01*
X107950554Y-102385770D01*
X108025770Y-102310554D01*
X108114214Y-102251458D01*
X108114216Y-102251457D01*
X108212486Y-102210752D01*
X108316814Y-102190000D01*
X108423186Y-102190000D01*
X108527514Y-102210752D01*
G37*
G36*
X156787514Y-102210752D02*
G01*
X156885784Y-102251457D01*
X156885786Y-102251458D01*
X156974230Y-102310554D01*
X157049446Y-102385770D01*
X157108542Y-102474214D01*
X157108543Y-102474216D01*
X157149248Y-102572486D01*
X157170000Y-102676814D01*
X157170000Y-102783186D01*
X157149248Y-102887514D01*
X157108543Y-102985784D01*
X157108542Y-102985786D01*
X157049446Y-103074230D01*
X156974230Y-103149446D01*
X156885786Y-103208542D01*
X156885785Y-103208543D01*
X156885784Y-103208543D01*
X156787514Y-103249248D01*
X156683186Y-103270000D01*
X156576814Y-103270000D01*
X156472486Y-103249248D01*
X156374216Y-103208543D01*
X156374215Y-103208543D01*
X156374214Y-103208542D01*
X156285770Y-103149446D01*
X156210554Y-103074230D01*
X156151458Y-102985786D01*
X156151457Y-102985784D01*
X156110752Y-102887514D01*
X156090000Y-102783186D01*
X156090000Y-102676814D01*
X156110752Y-102572486D01*
X156151457Y-102474216D01*
X156151458Y-102474214D01*
X156210554Y-102385770D01*
X156285770Y-102310554D01*
X156374214Y-102251458D01*
X156374216Y-102251457D01*
X156472486Y-102210752D01*
X156576814Y-102190000D01*
X156683186Y-102190000D01*
X156787514Y-102210752D01*
G37*
G36*
X149167514Y-102210752D02*
G01*
X149265784Y-102251457D01*
X149265786Y-102251458D01*
X149354230Y-102310554D01*
X149429446Y-102385770D01*
X149488542Y-102474214D01*
X149488543Y-102474216D01*
X149529248Y-102572486D01*
X149550000Y-102676814D01*
X149550000Y-102783186D01*
X149529248Y-102887514D01*
X149488543Y-102985784D01*
X149488542Y-102985786D01*
X149429446Y-103074230D01*
X149354230Y-103149446D01*
X149265786Y-103208542D01*
X149265785Y-103208543D01*
X149265784Y-103208543D01*
X149167514Y-103249248D01*
X149063186Y-103270000D01*
X148956814Y-103270000D01*
X148852486Y-103249248D01*
X148754216Y-103208543D01*
X148754215Y-103208543D01*
X148754214Y-103208542D01*
X148665770Y-103149446D01*
X148590554Y-103074230D01*
X148531458Y-102985786D01*
X148531457Y-102985784D01*
X148490752Y-102887514D01*
X148470000Y-102783186D01*
X148470000Y-102676814D01*
X148490752Y-102572486D01*
X148531457Y-102474216D01*
X148531458Y-102474214D01*
X148590554Y-102385770D01*
X148665770Y-102310554D01*
X148754214Y-102251458D01*
X148754216Y-102251457D01*
X148852486Y-102210752D01*
X148956814Y-102190000D01*
X149063186Y-102190000D01*
X149167514Y-102210752D01*
G37*
G36*
X151707514Y-102210752D02*
G01*
X151805784Y-102251457D01*
X151805786Y-102251458D01*
X151894230Y-102310554D01*
X151969446Y-102385770D01*
X152028542Y-102474214D01*
X152028543Y-102474216D01*
X152069248Y-102572486D01*
X152090000Y-102676814D01*
X152090000Y-102783186D01*
X152069248Y-102887514D01*
X152028543Y-102985784D01*
X152028542Y-102985786D01*
X151969446Y-103074230D01*
X151894230Y-103149446D01*
X151805786Y-103208542D01*
X151805785Y-103208543D01*
X151805784Y-103208543D01*
X151707514Y-103249248D01*
X151603186Y-103270000D01*
X151496814Y-103270000D01*
X151392486Y-103249248D01*
X151294216Y-103208543D01*
X151294215Y-103208543D01*
X151294214Y-103208542D01*
X151205770Y-103149446D01*
X151130554Y-103074230D01*
X151071458Y-102985786D01*
X151071457Y-102985784D01*
X151030752Y-102887514D01*
X151010000Y-102783186D01*
X151010000Y-102676814D01*
X151030752Y-102572486D01*
X151071457Y-102474216D01*
X151071458Y-102474214D01*
X151130554Y-102385770D01*
X151205770Y-102310554D01*
X151294214Y-102251458D01*
X151294216Y-102251457D01*
X151392486Y-102210752D01*
X151496814Y-102190000D01*
X151603186Y-102190000D01*
X151707514Y-102210752D01*
G37*
G36*
X154247514Y-102210752D02*
G01*
X154345784Y-102251457D01*
X154345786Y-102251458D01*
X154434230Y-102310554D01*
X154509446Y-102385770D01*
X154568542Y-102474214D01*
X154568543Y-102474216D01*
X154609248Y-102572486D01*
X154630000Y-102676814D01*
X154630000Y-102783186D01*
X154609248Y-102887514D01*
X154568543Y-102985784D01*
X154568542Y-102985786D01*
X154509446Y-103074230D01*
X154434230Y-103149446D01*
X154345786Y-103208542D01*
X154345785Y-103208543D01*
X154345784Y-103208543D01*
X154247514Y-103249248D01*
X154143186Y-103270000D01*
X154036814Y-103270000D01*
X153932486Y-103249248D01*
X153834216Y-103208543D01*
X153834215Y-103208543D01*
X153834214Y-103208542D01*
X153745770Y-103149446D01*
X153670554Y-103074230D01*
X153611458Y-102985786D01*
X153611457Y-102985784D01*
X153570752Y-102887514D01*
X153550000Y-102783186D01*
X153550000Y-102676814D01*
X153570752Y-102572486D01*
X153611457Y-102474216D01*
X153611458Y-102474214D01*
X153670554Y-102385770D01*
X153745770Y-102310554D01*
X153834214Y-102251458D01*
X153834216Y-102251457D01*
X153932486Y-102210752D01*
X154036814Y-102190000D01*
X154143186Y-102190000D01*
X154247514Y-102210752D01*
G37*
M02*
