G04 #@! TF.GenerationSoftware,KiCad,Pcbnew,5.1.5-52549c5~86~ubuntu18.04.1*
G04 #@! TF.CreationDate,2020-04-03T22:47:33+02:00*
G04 #@! TF.ProjectId,7001-ventilator_mainboard,37303031-2d76-4656-9e74-696c61746f72,2.0*
G04 #@! TF.SameCoordinates,Original*
G04 #@! TF.FileFunction,Legend,Top*
G04 #@! TF.FilePolarity,Positive*
%FSLAX46Y46*%
G04 Gerber Fmt 4.6, Leading zero omitted, Abs format (unit mm)*
G04 Created by KiCad (PCBNEW 5.1.5-52549c5~86~ubuntu18.04.1) date 2020-04-03 22:47:33*
%MOMM*%
%LPD*%
G04 APERTURE LIST*
%ADD10C,0.250000*%
%ADD11C,0.200000*%
%ADD12C,0.160000*%
%ADD13C,0.180000*%
%ADD14C,0.100000*%
%ADD15C,0.150000*%
%ADD16C,0.120000*%
%ADD17C,0.010000*%
%ADD18C,0.400000*%
G04 APERTURE END LIST*
D10*
X124042857Y-113067214D02*
X124957142Y-113067214D01*
X113342857Y-113067214D02*
X114257142Y-113067214D01*
X113800000Y-113524357D02*
X113800000Y-112610071D01*
D11*
X115811904Y-113452380D02*
X115478571Y-112976190D01*
X115240476Y-113452380D02*
X115240476Y-112452380D01*
X115621428Y-112452380D01*
X115716666Y-112500000D01*
X115764285Y-112547619D01*
X115811904Y-112642857D01*
X115811904Y-112785714D01*
X115764285Y-112880952D01*
X115716666Y-112928571D01*
X115621428Y-112976190D01*
X115240476Y-112976190D01*
X116240476Y-113452380D02*
X116240476Y-112452380D01*
X116621428Y-112452380D01*
X116716666Y-112500000D01*
X116764285Y-112547619D01*
X116811904Y-112642857D01*
X116811904Y-112785714D01*
X116764285Y-112880952D01*
X116716666Y-112928571D01*
X116621428Y-112976190D01*
X116240476Y-112976190D01*
X117240476Y-113452380D02*
X117240476Y-112452380D01*
X118478571Y-113452380D02*
X118478571Y-112452380D01*
X118716666Y-112452380D01*
X118859523Y-112500000D01*
X118954761Y-112595238D01*
X119002380Y-112690476D01*
X119050000Y-112880952D01*
X119050000Y-113023809D01*
X119002380Y-113214285D01*
X118954761Y-113309523D01*
X118859523Y-113404761D01*
X118716666Y-113452380D01*
X118478571Y-113452380D01*
X119478571Y-113452380D02*
X119478571Y-112785714D01*
X119478571Y-112452380D02*
X119430952Y-112500000D01*
X119478571Y-112547619D01*
X119526190Y-112500000D01*
X119478571Y-112452380D01*
X119478571Y-112547619D01*
X119907142Y-113404761D02*
X120002380Y-113452380D01*
X120192857Y-113452380D01*
X120288095Y-113404761D01*
X120335714Y-113309523D01*
X120335714Y-113261904D01*
X120288095Y-113166666D01*
X120192857Y-113119047D01*
X120050000Y-113119047D01*
X119954761Y-113071428D01*
X119907142Y-112976190D01*
X119907142Y-112928571D01*
X119954761Y-112833333D01*
X120050000Y-112785714D01*
X120192857Y-112785714D01*
X120288095Y-112833333D01*
X120764285Y-112785714D02*
X120764285Y-113785714D01*
X120764285Y-112833333D02*
X120859523Y-112785714D01*
X121050000Y-112785714D01*
X121145238Y-112833333D01*
X121192857Y-112880952D01*
X121240476Y-112976190D01*
X121240476Y-113261904D01*
X121192857Y-113357142D01*
X121145238Y-113404761D01*
X121050000Y-113452380D01*
X120859523Y-113452380D01*
X120764285Y-113404761D01*
X122097619Y-113452380D02*
X122097619Y-112928571D01*
X122050000Y-112833333D01*
X121954761Y-112785714D01*
X121764285Y-112785714D01*
X121669047Y-112833333D01*
X122097619Y-113404761D02*
X122002380Y-113452380D01*
X121764285Y-113452380D01*
X121669047Y-113404761D01*
X121621428Y-113309523D01*
X121621428Y-113214285D01*
X121669047Y-113119047D01*
X121764285Y-113071428D01*
X122002380Y-113071428D01*
X122097619Y-113023809D01*
X122478571Y-112785714D02*
X122716666Y-113452380D01*
X122954761Y-112785714D02*
X122716666Y-113452380D01*
X122621428Y-113690476D01*
X122573809Y-113738095D01*
X122478571Y-113785714D01*
D12*
X153642095Y-200022380D02*
X153642095Y-199022380D01*
X153975428Y-199736666D01*
X154308761Y-199022380D01*
X154308761Y-200022380D01*
X155118285Y-199498571D02*
X154784952Y-199498571D01*
X154784952Y-200022380D02*
X154784952Y-199022380D01*
X155261142Y-199022380D01*
X156213523Y-199927142D02*
X156165904Y-199974761D01*
X156023047Y-200022380D01*
X155927809Y-200022380D01*
X155784952Y-199974761D01*
X155689714Y-199879523D01*
X155642095Y-199784285D01*
X155594476Y-199593809D01*
X155594476Y-199450952D01*
X155642095Y-199260476D01*
X155689714Y-199165238D01*
X155784952Y-199070000D01*
X155927809Y-199022380D01*
X156023047Y-199022380D01*
X156165904Y-199070000D01*
X156213523Y-199117619D01*
X153642095Y-201682380D02*
X153642095Y-200682380D01*
X154023047Y-200682380D01*
X154118285Y-200730000D01*
X154165904Y-200777619D01*
X154213523Y-200872857D01*
X154213523Y-201015714D01*
X154165904Y-201110952D01*
X154118285Y-201158571D01*
X154023047Y-201206190D01*
X153642095Y-201206190D01*
X154642095Y-201682380D02*
X154642095Y-201015714D01*
X154642095Y-201206190D02*
X154689714Y-201110952D01*
X154737333Y-201063333D01*
X154832571Y-201015714D01*
X154927809Y-201015714D01*
X155642095Y-201634761D02*
X155546857Y-201682380D01*
X155356380Y-201682380D01*
X155261142Y-201634761D01*
X155213523Y-201539523D01*
X155213523Y-201158571D01*
X155261142Y-201063333D01*
X155356380Y-201015714D01*
X155546857Y-201015714D01*
X155642095Y-201063333D01*
X155689714Y-201158571D01*
X155689714Y-201253809D01*
X155213523Y-201349047D01*
X156070666Y-201634761D02*
X156165904Y-201682380D01*
X156356380Y-201682380D01*
X156451619Y-201634761D01*
X156499238Y-201539523D01*
X156499238Y-201491904D01*
X156451619Y-201396666D01*
X156356380Y-201349047D01*
X156213523Y-201349047D01*
X156118285Y-201301428D01*
X156070666Y-201206190D01*
X156070666Y-201158571D01*
X156118285Y-201063333D01*
X156213523Y-201015714D01*
X156356380Y-201015714D01*
X156451619Y-201063333D01*
X156880190Y-201634761D02*
X156975428Y-201682380D01*
X157165904Y-201682380D01*
X157261142Y-201634761D01*
X157308761Y-201539523D01*
X157308761Y-201491904D01*
X157261142Y-201396666D01*
X157165904Y-201349047D01*
X157023047Y-201349047D01*
X156927809Y-201301428D01*
X156880190Y-201206190D01*
X156880190Y-201158571D01*
X156927809Y-201063333D01*
X157023047Y-201015714D01*
X157165904Y-201015714D01*
X157261142Y-201063333D01*
X158165904Y-201015714D02*
X158165904Y-201682380D01*
X157737333Y-201015714D02*
X157737333Y-201539523D01*
X157784952Y-201634761D01*
X157880190Y-201682380D01*
X158023047Y-201682380D01*
X158118285Y-201634761D01*
X158165904Y-201587142D01*
X158642095Y-201682380D02*
X158642095Y-201015714D01*
X158642095Y-201206190D02*
X158689714Y-201110952D01*
X158737333Y-201063333D01*
X158832571Y-201015714D01*
X158927809Y-201015714D01*
X159642095Y-201634761D02*
X159546857Y-201682380D01*
X159356380Y-201682380D01*
X159261142Y-201634761D01*
X159213523Y-201539523D01*
X159213523Y-201158571D01*
X159261142Y-201063333D01*
X159356380Y-201015714D01*
X159546857Y-201015714D01*
X159642095Y-201063333D01*
X159689714Y-201158571D01*
X159689714Y-201253809D01*
X159213523Y-201349047D01*
D11*
X113398571Y-165350000D02*
X113274761Y-165288095D01*
X113089047Y-165288095D01*
X112903333Y-165350000D01*
X112779523Y-165473809D01*
X112717619Y-165597619D01*
X112655714Y-165845238D01*
X112655714Y-166030952D01*
X112717619Y-166278571D01*
X112779523Y-166402380D01*
X112903333Y-166526190D01*
X113089047Y-166588095D01*
X113212857Y-166588095D01*
X113398571Y-166526190D01*
X113460476Y-166464285D01*
X113460476Y-166030952D01*
X113212857Y-166030952D01*
X114017619Y-166588095D02*
X114017619Y-165288095D01*
X114760476Y-166588095D01*
X114760476Y-165288095D01*
X115379523Y-166588095D02*
X115379523Y-165288095D01*
X115689047Y-165288095D01*
X115874761Y-165350000D01*
X115998571Y-165473809D01*
X116060476Y-165597619D01*
X116122380Y-165845238D01*
X116122380Y-166030952D01*
X116060476Y-166278571D01*
X115998571Y-166402380D01*
X115874761Y-166526190D01*
X115689047Y-166588095D01*
X115379523Y-166588095D01*
X115070000Y-158588095D02*
X114636666Y-157969047D01*
X114327142Y-158588095D02*
X114327142Y-157288095D01*
X114822380Y-157288095D01*
X114946190Y-157350000D01*
X115008095Y-157411904D01*
X115070000Y-157535714D01*
X115070000Y-157721428D01*
X115008095Y-157845238D01*
X114946190Y-157907142D01*
X114822380Y-157969047D01*
X114327142Y-157969047D01*
X115503333Y-158588095D02*
X116184285Y-157721428D01*
X115503333Y-157721428D02*
X116184285Y-158588095D01*
X114450952Y-154788095D02*
X115193809Y-154788095D01*
X114822380Y-156088095D02*
X114822380Y-154788095D01*
X115503333Y-156088095D02*
X116184285Y-155221428D01*
X115503333Y-155221428D02*
X116184285Y-156088095D01*
X114788095Y-164073809D02*
X115840476Y-164073809D01*
X115964285Y-164011904D01*
X116026190Y-163950000D01*
X116088095Y-163826190D01*
X116088095Y-163578571D01*
X116026190Y-163454761D01*
X115964285Y-163392857D01*
X115840476Y-163330952D01*
X114788095Y-163330952D01*
X115716666Y-162773809D02*
X115716666Y-162154761D01*
X116088095Y-162897619D02*
X114788095Y-162464285D01*
X116088095Y-162030952D01*
X116088095Y-160854761D02*
X115469047Y-161288095D01*
X116088095Y-161597619D02*
X114788095Y-161597619D01*
X114788095Y-161102380D01*
X114850000Y-160978571D01*
X114911904Y-160916666D01*
X115035714Y-160854761D01*
X115221428Y-160854761D01*
X115345238Y-160916666D01*
X115407142Y-160978571D01*
X115469047Y-161102380D01*
X115469047Y-161597619D01*
X114788095Y-160483333D02*
X114788095Y-159740476D01*
X116088095Y-160111904D02*
X114788095Y-160111904D01*
X138309523Y-192088095D02*
X138309523Y-190788095D01*
X138742857Y-191716666D01*
X139176190Y-190788095D01*
X139176190Y-192088095D01*
X140228571Y-191407142D02*
X139795238Y-191407142D01*
X139795238Y-192088095D02*
X139795238Y-190788095D01*
X140414285Y-190788095D01*
X141652380Y-191964285D02*
X141590476Y-192026190D01*
X141404761Y-192088095D01*
X141280952Y-192088095D01*
X141095238Y-192026190D01*
X140971428Y-191902380D01*
X140909523Y-191778571D01*
X140847619Y-191530952D01*
X140847619Y-191345238D01*
X140909523Y-191097619D01*
X140971428Y-190973809D01*
X141095238Y-190850000D01*
X141280952Y-190788095D01*
X141404761Y-190788095D01*
X141590476Y-190850000D01*
X141652380Y-190911904D01*
X143571428Y-192583333D02*
X143509523Y-192521428D01*
X143385714Y-192335714D01*
X143323809Y-192211904D01*
X143261904Y-192026190D01*
X143200000Y-191716666D01*
X143200000Y-191469047D01*
X143261904Y-191159523D01*
X143323809Y-190973809D01*
X143385714Y-190850000D01*
X143509523Y-190664285D01*
X143571428Y-190602380D01*
X144314285Y-190788095D02*
X144438095Y-190788095D01*
X144561904Y-190850000D01*
X144623809Y-190911904D01*
X144685714Y-191035714D01*
X144747619Y-191283333D01*
X144747619Y-191592857D01*
X144685714Y-191840476D01*
X144623809Y-191964285D01*
X144561904Y-192026190D01*
X144438095Y-192088095D01*
X144314285Y-192088095D01*
X144190476Y-192026190D01*
X144128571Y-191964285D01*
X144066666Y-191840476D01*
X144004761Y-191592857D01*
X144004761Y-191283333D01*
X144066666Y-191035714D01*
X144128571Y-190911904D01*
X144190476Y-190850000D01*
X144314285Y-190788095D01*
X145242857Y-190911904D02*
X145304761Y-190850000D01*
X145428571Y-190788095D01*
X145738095Y-190788095D01*
X145861904Y-190850000D01*
X145923809Y-190911904D01*
X145985714Y-191035714D01*
X145985714Y-191159523D01*
X145923809Y-191345238D01*
X145180952Y-192088095D01*
X145985714Y-192088095D01*
X146419047Y-192583333D02*
X146480952Y-192521428D01*
X146604761Y-192335714D01*
X146666666Y-192211904D01*
X146728571Y-192026190D01*
X146790476Y-191716666D01*
X146790476Y-191469047D01*
X146728571Y-191159523D01*
X146666666Y-190973809D01*
X146604761Y-190850000D01*
X146480952Y-190664285D01*
X146419047Y-190602380D01*
D13*
X88728571Y-182392857D02*
X89528571Y-182392857D01*
X89014285Y-183592857D01*
X90214285Y-182392857D02*
X90328571Y-182392857D01*
X90442857Y-182450000D01*
X90500000Y-182507142D01*
X90557142Y-182621428D01*
X90614285Y-182850000D01*
X90614285Y-183135714D01*
X90557142Y-183364285D01*
X90500000Y-183478571D01*
X90442857Y-183535714D01*
X90328571Y-183592857D01*
X90214285Y-183592857D01*
X90100000Y-183535714D01*
X90042857Y-183478571D01*
X89985714Y-183364285D01*
X89928571Y-183135714D01*
X89928571Y-182850000D01*
X89985714Y-182621428D01*
X90042857Y-182507142D01*
X90100000Y-182450000D01*
X90214285Y-182392857D01*
X91357142Y-182392857D02*
X91471428Y-182392857D01*
X91585714Y-182450000D01*
X91642857Y-182507142D01*
X91700000Y-182621428D01*
X91757142Y-182850000D01*
X91757142Y-183135714D01*
X91700000Y-183364285D01*
X91642857Y-183478571D01*
X91585714Y-183535714D01*
X91471428Y-183592857D01*
X91357142Y-183592857D01*
X91242857Y-183535714D01*
X91185714Y-183478571D01*
X91128571Y-183364285D01*
X91071428Y-183135714D01*
X91071428Y-182850000D01*
X91128571Y-182621428D01*
X91185714Y-182507142D01*
X91242857Y-182450000D01*
X91357142Y-182392857D01*
X92900000Y-183592857D02*
X92214285Y-183592857D01*
X92557142Y-183592857D02*
X92557142Y-182392857D01*
X92442857Y-182564285D01*
X92328571Y-182678571D01*
X92214285Y-182735714D01*
X93414285Y-183135714D02*
X94328571Y-183135714D01*
X94900000Y-182792857D02*
X94900000Y-183992857D01*
X94900000Y-182850000D02*
X95014285Y-182792857D01*
X95242857Y-182792857D01*
X95357142Y-182850000D01*
X95414285Y-182907142D01*
X95471428Y-183021428D01*
X95471428Y-183364285D01*
X95414285Y-183478571D01*
X95357142Y-183535714D01*
X95242857Y-183592857D01*
X95014285Y-183592857D01*
X94900000Y-183535714D01*
X96500000Y-183535714D02*
X96385714Y-183592857D01*
X96157142Y-183592857D01*
X96042857Y-183535714D01*
X95985714Y-183478571D01*
X95928571Y-183364285D01*
X95928571Y-183021428D01*
X95985714Y-182907142D01*
X96042857Y-182850000D01*
X96157142Y-182792857D01*
X96385714Y-182792857D01*
X96500000Y-182850000D01*
X97014285Y-183592857D02*
X97014285Y-182392857D01*
X97014285Y-182850000D02*
X97128571Y-182792857D01*
X97357142Y-182792857D01*
X97471428Y-182850000D01*
X97528571Y-182907142D01*
X97585714Y-183021428D01*
X97585714Y-183364285D01*
X97528571Y-183478571D01*
X97471428Y-183535714D01*
X97357142Y-183592857D01*
X97128571Y-183592857D01*
X97014285Y-183535714D01*
X98100000Y-183135714D02*
X99014285Y-183135714D01*
X99528571Y-182507142D02*
X99585714Y-182450000D01*
X99700000Y-182392857D01*
X99985714Y-182392857D01*
X100100000Y-182450000D01*
X100157142Y-182507142D01*
X100214285Y-182621428D01*
X100214285Y-182735714D01*
X100157142Y-182907142D01*
X99471428Y-183592857D01*
X100214285Y-183592857D01*
D11*
X69452380Y-178752380D02*
X69452380Y-177752380D01*
X69928571Y-178085714D02*
X69928571Y-178752380D01*
X69928571Y-178180952D02*
X69976190Y-178133333D01*
X70071428Y-178085714D01*
X70214285Y-178085714D01*
X70309523Y-178133333D01*
X70357142Y-178228571D01*
X70357142Y-178752380D01*
X70833333Y-178752380D02*
X70833333Y-177752380D01*
X71261904Y-178752380D02*
X71261904Y-178228571D01*
X71214285Y-178133333D01*
X71119047Y-178085714D01*
X70976190Y-178085714D01*
X70880952Y-178133333D01*
X70833333Y-178180952D01*
X72166666Y-178752380D02*
X72166666Y-178228571D01*
X72119047Y-178133333D01*
X72023809Y-178085714D01*
X71833333Y-178085714D01*
X71738095Y-178133333D01*
X72166666Y-178704761D02*
X72071428Y-178752380D01*
X71833333Y-178752380D01*
X71738095Y-178704761D01*
X71690476Y-178609523D01*
X71690476Y-178514285D01*
X71738095Y-178419047D01*
X71833333Y-178371428D01*
X72071428Y-178371428D01*
X72166666Y-178323809D01*
X72785714Y-178752380D02*
X72690476Y-178704761D01*
X72642857Y-178609523D01*
X72642857Y-177752380D01*
X73547619Y-178704761D02*
X73452380Y-178752380D01*
X73261904Y-178752380D01*
X73166666Y-178704761D01*
X73119047Y-178609523D01*
X73119047Y-178228571D01*
X73166666Y-178133333D01*
X73261904Y-178085714D01*
X73452380Y-178085714D01*
X73547619Y-178133333D01*
X73595238Y-178228571D01*
X73595238Y-178323809D01*
X73119047Y-178419047D01*
X69385714Y-172728571D02*
X69719047Y-172728571D01*
X69861904Y-173252380D02*
X69385714Y-173252380D01*
X69385714Y-172252380D01*
X69861904Y-172252380D01*
X70195238Y-173252380D02*
X70719047Y-172585714D01*
X70195238Y-172585714D02*
X70719047Y-173252380D01*
X71100000Y-173252380D02*
X71100000Y-172252380D01*
X71528571Y-173252380D02*
X71528571Y-172728571D01*
X71480952Y-172633333D01*
X71385714Y-172585714D01*
X71242857Y-172585714D01*
X71147619Y-172633333D01*
X71100000Y-172680952D01*
X72433333Y-173252380D02*
X72433333Y-172728571D01*
X72385714Y-172633333D01*
X72290476Y-172585714D01*
X72100000Y-172585714D01*
X72004761Y-172633333D01*
X72433333Y-173204761D02*
X72338095Y-173252380D01*
X72100000Y-173252380D01*
X72004761Y-173204761D01*
X71957142Y-173109523D01*
X71957142Y-173014285D01*
X72004761Y-172919047D01*
X72100000Y-172871428D01*
X72338095Y-172871428D01*
X72433333Y-172823809D01*
X73052380Y-173252380D02*
X72957142Y-173204761D01*
X72909523Y-173109523D01*
X72909523Y-172252380D01*
X73814285Y-173204761D02*
X73719047Y-173252380D01*
X73528571Y-173252380D01*
X73433333Y-173204761D01*
X73385714Y-173109523D01*
X73385714Y-172728571D01*
X73433333Y-172633333D01*
X73528571Y-172585714D01*
X73719047Y-172585714D01*
X73814285Y-172633333D01*
X73861904Y-172728571D01*
X73861904Y-172823809D01*
X73385714Y-172919047D01*
X81704761Y-167852380D02*
X81704761Y-166852380D01*
X82085714Y-166852380D01*
X82180952Y-166900000D01*
X82228571Y-166947619D01*
X82276190Y-167042857D01*
X82276190Y-167185714D01*
X82228571Y-167280952D01*
X82180952Y-167328571D01*
X82085714Y-167376190D01*
X81704761Y-167376190D01*
X82704761Y-167852380D02*
X82704761Y-167185714D01*
X82704761Y-167376190D02*
X82752380Y-167280952D01*
X82800000Y-167233333D01*
X82895238Y-167185714D01*
X82990476Y-167185714D01*
X83704761Y-167804761D02*
X83609523Y-167852380D01*
X83419047Y-167852380D01*
X83323809Y-167804761D01*
X83276190Y-167709523D01*
X83276190Y-167328571D01*
X83323809Y-167233333D01*
X83419047Y-167185714D01*
X83609523Y-167185714D01*
X83704761Y-167233333D01*
X83752380Y-167328571D01*
X83752380Y-167423809D01*
X83276190Y-167519047D01*
X84133333Y-167804761D02*
X84228571Y-167852380D01*
X84419047Y-167852380D01*
X84514285Y-167804761D01*
X84561904Y-167709523D01*
X84561904Y-167661904D01*
X84514285Y-167566666D01*
X84419047Y-167519047D01*
X84276190Y-167519047D01*
X84180952Y-167471428D01*
X84133333Y-167376190D01*
X84133333Y-167328571D01*
X84180952Y-167233333D01*
X84276190Y-167185714D01*
X84419047Y-167185714D01*
X84514285Y-167233333D01*
X84942857Y-167804761D02*
X85038095Y-167852380D01*
X85228571Y-167852380D01*
X85323809Y-167804761D01*
X85371428Y-167709523D01*
X85371428Y-167661904D01*
X85323809Y-167566666D01*
X85228571Y-167519047D01*
X85085714Y-167519047D01*
X84990476Y-167471428D01*
X84942857Y-167376190D01*
X84942857Y-167328571D01*
X84990476Y-167233333D01*
X85085714Y-167185714D01*
X85228571Y-167185714D01*
X85323809Y-167233333D01*
X86228571Y-167185714D02*
X86228571Y-167852380D01*
X85800000Y-167185714D02*
X85800000Y-167709523D01*
X85847619Y-167804761D01*
X85942857Y-167852380D01*
X86085714Y-167852380D01*
X86180952Y-167804761D01*
X86228571Y-167757142D01*
X86704761Y-167852380D02*
X86704761Y-167185714D01*
X86704761Y-167376190D02*
X86752380Y-167280952D01*
X86800000Y-167233333D01*
X86895238Y-167185714D01*
X86990476Y-167185714D01*
X87704761Y-167804761D02*
X87609523Y-167852380D01*
X87419047Y-167852380D01*
X87323809Y-167804761D01*
X87276190Y-167709523D01*
X87276190Y-167328571D01*
X87323809Y-167233333D01*
X87419047Y-167185714D01*
X87609523Y-167185714D01*
X87704761Y-167233333D01*
X87752380Y-167328571D01*
X87752380Y-167423809D01*
X87276190Y-167519047D01*
X89371428Y-167852380D02*
X89371428Y-167328571D01*
X89323809Y-167233333D01*
X89228571Y-167185714D01*
X89038095Y-167185714D01*
X88942857Y-167233333D01*
X89371428Y-167804761D02*
X89276190Y-167852380D01*
X89038095Y-167852380D01*
X88942857Y-167804761D01*
X88895238Y-167709523D01*
X88895238Y-167614285D01*
X88942857Y-167519047D01*
X89038095Y-167471428D01*
X89276190Y-167471428D01*
X89371428Y-167423809D01*
X89704761Y-167185714D02*
X90085714Y-167185714D01*
X89847619Y-166852380D02*
X89847619Y-167709523D01*
X89895238Y-167804761D01*
X89990476Y-167852380D01*
X90085714Y-167852380D01*
X91180952Y-167185714D02*
X91180952Y-168185714D01*
X91180952Y-167233333D02*
X91276190Y-167185714D01*
X91466666Y-167185714D01*
X91561904Y-167233333D01*
X91609523Y-167280952D01*
X91657142Y-167376190D01*
X91657142Y-167661904D01*
X91609523Y-167757142D01*
X91561904Y-167804761D01*
X91466666Y-167852380D01*
X91276190Y-167852380D01*
X91180952Y-167804761D01*
X92514285Y-167852380D02*
X92514285Y-167328571D01*
X92466666Y-167233333D01*
X92371428Y-167185714D01*
X92180952Y-167185714D01*
X92085714Y-167233333D01*
X92514285Y-167804761D02*
X92419047Y-167852380D01*
X92180952Y-167852380D01*
X92085714Y-167804761D01*
X92038095Y-167709523D01*
X92038095Y-167614285D01*
X92085714Y-167519047D01*
X92180952Y-167471428D01*
X92419047Y-167471428D01*
X92514285Y-167423809D01*
X92847619Y-167185714D02*
X93228571Y-167185714D01*
X92990476Y-166852380D02*
X92990476Y-167709523D01*
X93038095Y-167804761D01*
X93133333Y-167852380D01*
X93228571Y-167852380D01*
X93561904Y-167852380D02*
X93561904Y-167185714D01*
X93561904Y-166852380D02*
X93514285Y-166900000D01*
X93561904Y-166947619D01*
X93609523Y-166900000D01*
X93561904Y-166852380D01*
X93561904Y-166947619D01*
X94419047Y-167804761D02*
X94323809Y-167852380D01*
X94133333Y-167852380D01*
X94038095Y-167804761D01*
X93990476Y-167709523D01*
X93990476Y-167328571D01*
X94038095Y-167233333D01*
X94133333Y-167185714D01*
X94323809Y-167185714D01*
X94419047Y-167233333D01*
X94466666Y-167328571D01*
X94466666Y-167423809D01*
X93990476Y-167519047D01*
X94895238Y-167185714D02*
X94895238Y-167852380D01*
X94895238Y-167280952D02*
X94942857Y-167233333D01*
X95038095Y-167185714D01*
X95180952Y-167185714D01*
X95276190Y-167233333D01*
X95323809Y-167328571D01*
X95323809Y-167852380D01*
X95657142Y-167185714D02*
X96038095Y-167185714D01*
X95800000Y-166852380D02*
X95800000Y-167709523D01*
X95847619Y-167804761D01*
X95942857Y-167852380D01*
X96038095Y-167852380D01*
X88485714Y-110128571D02*
X88819047Y-110128571D01*
X88961904Y-110652380D02*
X88485714Y-110652380D01*
X88485714Y-109652380D01*
X88961904Y-109652380D01*
X89295238Y-110652380D02*
X89819047Y-109985714D01*
X89295238Y-109985714D02*
X89819047Y-110652380D01*
X90200000Y-110652380D02*
X90200000Y-109652380D01*
X90628571Y-110652380D02*
X90628571Y-110128571D01*
X90580952Y-110033333D01*
X90485714Y-109985714D01*
X90342857Y-109985714D01*
X90247619Y-110033333D01*
X90200000Y-110080952D01*
X91533333Y-110652380D02*
X91533333Y-110128571D01*
X91485714Y-110033333D01*
X91390476Y-109985714D01*
X91200000Y-109985714D01*
X91104761Y-110033333D01*
X91533333Y-110604761D02*
X91438095Y-110652380D01*
X91200000Y-110652380D01*
X91104761Y-110604761D01*
X91057142Y-110509523D01*
X91057142Y-110414285D01*
X91104761Y-110319047D01*
X91200000Y-110271428D01*
X91438095Y-110271428D01*
X91533333Y-110223809D01*
X92152380Y-110652380D02*
X92057142Y-110604761D01*
X92009523Y-110509523D01*
X92009523Y-109652380D01*
X92914285Y-110604761D02*
X92819047Y-110652380D01*
X92628571Y-110652380D01*
X92533333Y-110604761D01*
X92485714Y-110509523D01*
X92485714Y-110128571D01*
X92533333Y-110033333D01*
X92628571Y-109985714D01*
X92819047Y-109985714D01*
X92914285Y-110033333D01*
X92961904Y-110128571D01*
X92961904Y-110223809D01*
X92485714Y-110319047D01*
X88652380Y-100752380D02*
X88652380Y-99752380D01*
X89128571Y-100085714D02*
X89128571Y-100752380D01*
X89128571Y-100180952D02*
X89176190Y-100133333D01*
X89271428Y-100085714D01*
X89414285Y-100085714D01*
X89509523Y-100133333D01*
X89557142Y-100228571D01*
X89557142Y-100752380D01*
X90033333Y-100752380D02*
X90033333Y-99752380D01*
X90461904Y-100752380D02*
X90461904Y-100228571D01*
X90414285Y-100133333D01*
X90319047Y-100085714D01*
X90176190Y-100085714D01*
X90080952Y-100133333D01*
X90033333Y-100180952D01*
X91366666Y-100752380D02*
X91366666Y-100228571D01*
X91319047Y-100133333D01*
X91223809Y-100085714D01*
X91033333Y-100085714D01*
X90938095Y-100133333D01*
X91366666Y-100704761D02*
X91271428Y-100752380D01*
X91033333Y-100752380D01*
X90938095Y-100704761D01*
X90890476Y-100609523D01*
X90890476Y-100514285D01*
X90938095Y-100419047D01*
X91033333Y-100371428D01*
X91271428Y-100371428D01*
X91366666Y-100323809D01*
X91985714Y-100752380D02*
X91890476Y-100704761D01*
X91842857Y-100609523D01*
X91842857Y-99752380D01*
X92747619Y-100704761D02*
X92652380Y-100752380D01*
X92461904Y-100752380D01*
X92366666Y-100704761D01*
X92319047Y-100609523D01*
X92319047Y-100228571D01*
X92366666Y-100133333D01*
X92461904Y-100085714D01*
X92652380Y-100085714D01*
X92747619Y-100133333D01*
X92795238Y-100228571D01*
X92795238Y-100323809D01*
X92319047Y-100419047D01*
X160516666Y-166607142D02*
X160702380Y-166669047D01*
X160764285Y-166730952D01*
X160826190Y-166854761D01*
X160826190Y-167040476D01*
X160764285Y-167164285D01*
X160702380Y-167226190D01*
X160578571Y-167288095D01*
X160083333Y-167288095D01*
X160083333Y-165988095D01*
X160516666Y-165988095D01*
X160640476Y-166050000D01*
X160702380Y-166111904D01*
X160764285Y-166235714D01*
X160764285Y-166359523D01*
X160702380Y-166483333D01*
X160640476Y-166545238D01*
X160516666Y-166607142D01*
X160083333Y-166607142D01*
X161197619Y-165988095D02*
X161940476Y-165988095D01*
X161569047Y-167288095D02*
X161569047Y-165988095D01*
X162373809Y-167288095D02*
X162373809Y-165988095D01*
X163116666Y-167288095D01*
X163116666Y-165988095D01*
X161392857Y-119907142D02*
X160959523Y-119907142D01*
X160959523Y-120588095D02*
X160959523Y-119288095D01*
X161578571Y-119288095D01*
X162011904Y-120216666D02*
X162630952Y-120216666D01*
X161888095Y-120588095D02*
X162321428Y-119288095D01*
X162754761Y-120588095D01*
X163188095Y-120588095D02*
X163188095Y-119288095D01*
X164426190Y-120588095D02*
X163807142Y-120588095D01*
X163807142Y-119288095D01*
X157740476Y-122588095D02*
X157740476Y-121288095D01*
X158049999Y-121288095D01*
X158235714Y-121350000D01*
X158359523Y-121473809D01*
X158421428Y-121597619D01*
X158483333Y-121845238D01*
X158483333Y-122030952D01*
X158421428Y-122278571D01*
X158359523Y-122402380D01*
X158235714Y-122526190D01*
X158049999Y-122588095D01*
X157740476Y-122588095D01*
X159040476Y-122588095D02*
X159040476Y-121288095D01*
X159597618Y-122526190D02*
X159783333Y-122588095D01*
X160092856Y-122588095D01*
X160216666Y-122526190D01*
X160278571Y-122464285D01*
X160340476Y-122340476D01*
X160340476Y-122216666D01*
X160278571Y-122092857D01*
X160216666Y-122030952D01*
X160092856Y-121969047D01*
X159845237Y-121907142D01*
X159721428Y-121845238D01*
X159659523Y-121783333D01*
X159597618Y-121659523D01*
X159597618Y-121535714D01*
X159659523Y-121411904D01*
X159721428Y-121350000D01*
X159845237Y-121288095D01*
X160154761Y-121288095D01*
X160340476Y-121350000D01*
X161640476Y-122464285D02*
X161578571Y-122526190D01*
X161392856Y-122588095D01*
X161269047Y-122588095D01*
X161083333Y-122526190D01*
X160959523Y-122402380D01*
X160897618Y-122278571D01*
X160835714Y-122030952D01*
X160835714Y-121845238D01*
X160897618Y-121597619D01*
X160959523Y-121473809D01*
X161083333Y-121350000D01*
X161269047Y-121288095D01*
X161392856Y-121288095D01*
X161578571Y-121350000D01*
X161640476Y-121411904D01*
X162197618Y-122588095D02*
X162197618Y-121288095D01*
X162197618Y-121907142D02*
X162940476Y-121907142D01*
X162940476Y-122588095D02*
X162940476Y-121288095D01*
X164240476Y-121350000D02*
X164116666Y-121288095D01*
X163930952Y-121288095D01*
X163745237Y-121350000D01*
X163621428Y-121473809D01*
X163559523Y-121597619D01*
X163497618Y-121845238D01*
X163497618Y-122030952D01*
X163559523Y-122278571D01*
X163621428Y-122402380D01*
X163745237Y-122526190D01*
X163930952Y-122588095D01*
X164054761Y-122588095D01*
X164240476Y-122526190D01*
X164302380Y-122464285D01*
X164302380Y-122030952D01*
X164054761Y-122030952D01*
X162197618Y-124688095D02*
X162197618Y-123388095D01*
X162692856Y-123388095D01*
X162816666Y-123450000D01*
X162878570Y-123511904D01*
X162940475Y-123635714D01*
X162940475Y-123821428D01*
X162878570Y-123945238D01*
X162816666Y-124007142D01*
X162692856Y-124069047D01*
X162197618Y-124069047D01*
X163497618Y-123388095D02*
X163497618Y-124440476D01*
X163559523Y-124564285D01*
X163621427Y-124626190D01*
X163745237Y-124688095D01*
X163992856Y-124688095D01*
X164116666Y-124626190D01*
X164178570Y-124564285D01*
X164240475Y-124440476D01*
X164240475Y-123388095D01*
X161207142Y-125411904D02*
X161269047Y-125350000D01*
X161392857Y-125288095D01*
X161702381Y-125288095D01*
X161826190Y-125350000D01*
X161888095Y-125411904D01*
X161950000Y-125535714D01*
X161950000Y-125659523D01*
X161888095Y-125845238D01*
X161145238Y-126588095D01*
X161950000Y-126588095D01*
X163064285Y-125721428D02*
X163064285Y-126588095D01*
X162754762Y-125226190D02*
X162445238Y-126154761D01*
X163250000Y-126154761D01*
X163559523Y-125288095D02*
X163992857Y-126588095D01*
X164426190Y-125288095D01*
X161578570Y-127250000D02*
X161454761Y-127188095D01*
X161269047Y-127188095D01*
X161083332Y-127250000D01*
X160959523Y-127373809D01*
X160897618Y-127497619D01*
X160835713Y-127745238D01*
X160835713Y-127930952D01*
X160897618Y-128178571D01*
X160959523Y-128302380D01*
X161083332Y-128426190D01*
X161269047Y-128488095D01*
X161392856Y-128488095D01*
X161578570Y-128426190D01*
X161640475Y-128364285D01*
X161640475Y-127930952D01*
X161392856Y-127930952D01*
X162197618Y-128488095D02*
X162197618Y-127188095D01*
X162940475Y-128488095D01*
X162940475Y-127188095D01*
X163559523Y-128488095D02*
X163559523Y-127188095D01*
X163869047Y-127188095D01*
X164054761Y-127250000D01*
X164178570Y-127373809D01*
X164240475Y-127497619D01*
X164302380Y-127745238D01*
X164302380Y-127930952D01*
X164240475Y-128178571D01*
X164178570Y-128302380D01*
X164054761Y-128426190D01*
X163869047Y-128488095D01*
X163559523Y-128488095D01*
D14*
G36*
X140100000Y-199800000D02*
G01*
X138900000Y-199800000D01*
X139500000Y-199200000D01*
X140100000Y-199800000D01*
G37*
X140100000Y-199800000D02*
X138900000Y-199800000D01*
X139500000Y-199200000D01*
X140100000Y-199800000D01*
D15*
X138900000Y-199800000D02*
X139500000Y-199200000D01*
X139500000Y-199200000D02*
X140100000Y-199800000D01*
X143000000Y-199200000D02*
X143000000Y-201400000D01*
X142400000Y-200800000D02*
X143600000Y-200800000D01*
X142600000Y-201000000D02*
X143400000Y-201000000D01*
D11*
X134609523Y-199850000D02*
X134485714Y-199788095D01*
X134300000Y-199788095D01*
X134114285Y-199850000D01*
X133990476Y-199973809D01*
X133928571Y-200097619D01*
X133866666Y-200345238D01*
X133866666Y-200530952D01*
X133928571Y-200778571D01*
X133990476Y-200902380D01*
X134114285Y-201026190D01*
X134300000Y-201088095D01*
X134423809Y-201088095D01*
X134609523Y-201026190D01*
X134671428Y-200964285D01*
X134671428Y-200530952D01*
X134423809Y-200530952D01*
X135228571Y-201088095D02*
X135228571Y-199788095D01*
X135971428Y-201088095D01*
X135971428Y-199788095D01*
X136590476Y-201088095D02*
X136590476Y-199788095D01*
X136900000Y-199788095D01*
X137085714Y-199850000D01*
X137209523Y-199973809D01*
X137271428Y-200097619D01*
X137333333Y-200345238D01*
X137333333Y-200530952D01*
X137271428Y-200778571D01*
X137209523Y-200902380D01*
X137085714Y-201026190D01*
X136900000Y-201088095D01*
X136590476Y-201088095D01*
D15*
X143600000Y-200800000D02*
X143000000Y-201400000D01*
D11*
X145209523Y-199850000D02*
X145085714Y-199788095D01*
X144900000Y-199788095D01*
X144714285Y-199850000D01*
X144590476Y-199973809D01*
X144528571Y-200097619D01*
X144466666Y-200345238D01*
X144466666Y-200530952D01*
X144528571Y-200778571D01*
X144590476Y-200902380D01*
X144714285Y-201026190D01*
X144900000Y-201088095D01*
X145023809Y-201088095D01*
X145209523Y-201026190D01*
X145271428Y-200964285D01*
X145271428Y-200530952D01*
X145023809Y-200530952D01*
X145828571Y-201088095D02*
X145828571Y-199788095D01*
X146571428Y-201088095D01*
X146571428Y-199788095D01*
X147190476Y-201088095D02*
X147190476Y-199788095D01*
X147500000Y-199788095D01*
X147685714Y-199850000D01*
X147809523Y-199973809D01*
X147871428Y-200097619D01*
X147933333Y-200345238D01*
X147933333Y-200530952D01*
X147871428Y-200778571D01*
X147809523Y-200902380D01*
X147685714Y-201026190D01*
X147500000Y-201088095D01*
X147190476Y-201088095D01*
D15*
X140100000Y-199800000D02*
X138900000Y-199800000D01*
X143000000Y-201400000D02*
X142400000Y-200800000D01*
X139500000Y-201400000D02*
X139500000Y-199200000D01*
X139100000Y-199600000D02*
X139100000Y-199800000D01*
X139900000Y-199600000D02*
X139100000Y-199600000D01*
D11*
X148852380Y-199911904D02*
X148914285Y-199850000D01*
X149038095Y-199788095D01*
X149347619Y-199788095D01*
X149471428Y-199850000D01*
X149533333Y-199911904D01*
X149595238Y-200035714D01*
X149595238Y-200159523D01*
X149533333Y-200345238D01*
X148790476Y-201088095D01*
X149595238Y-201088095D01*
X150709523Y-200221428D02*
X150709523Y-201088095D01*
X150400000Y-199726190D02*
X150090476Y-200654761D01*
X150895238Y-200654761D01*
X151204761Y-199788095D02*
X151638095Y-201088095D01*
X152071428Y-199788095D01*
D14*
G36*
X143000000Y-201400000D02*
G01*
X142400000Y-200800000D01*
X143600000Y-200800000D01*
X143000000Y-201400000D01*
G37*
X143000000Y-201400000D02*
X142400000Y-200800000D01*
X143600000Y-200800000D01*
X143000000Y-201400000D01*
D15*
X143400000Y-201000000D02*
X143400000Y-200800000D01*
X117300000Y-201400000D02*
X117300000Y-199200000D01*
X117900000Y-199800000D02*
X116700000Y-199800000D01*
X117700000Y-199600000D02*
X116900000Y-199600000D01*
X116700000Y-199800000D02*
X117300000Y-199200000D01*
X117300000Y-199200000D02*
X117900000Y-199800000D01*
D14*
G36*
X117900000Y-199800000D02*
G01*
X116700000Y-199800000D01*
X117300000Y-199200000D01*
X117900000Y-199800000D01*
G37*
X117900000Y-199800000D02*
X116700000Y-199800000D01*
X117300000Y-199200000D01*
X117900000Y-199800000D01*
D15*
X116900000Y-199600000D02*
X116900000Y-199800000D01*
D14*
G36*
X120800000Y-201400000D02*
G01*
X120200000Y-200800000D01*
X121400000Y-200800000D01*
X120800000Y-201400000D01*
G37*
X120800000Y-201400000D02*
X120200000Y-200800000D01*
X121400000Y-200800000D01*
X120800000Y-201400000D01*
D15*
X121200000Y-201000000D02*
X121200000Y-200800000D01*
X120400000Y-201000000D02*
X121200000Y-201000000D01*
X121400000Y-200800000D02*
X120800000Y-201400000D01*
X120200000Y-200800000D02*
X121400000Y-200800000D01*
X120800000Y-201400000D02*
X120200000Y-200800000D01*
X120800000Y-199200000D02*
X120800000Y-201400000D01*
D11*
X126652380Y-199911904D02*
X126714285Y-199850000D01*
X126838095Y-199788095D01*
X127147619Y-199788095D01*
X127271428Y-199850000D01*
X127333333Y-199911904D01*
X127395238Y-200035714D01*
X127395238Y-200159523D01*
X127333333Y-200345238D01*
X126590476Y-201088095D01*
X127395238Y-201088095D01*
X128509523Y-200221428D02*
X128509523Y-201088095D01*
X128200000Y-199726190D02*
X127890476Y-200654761D01*
X128695238Y-200654761D01*
X129004761Y-199788095D02*
X129438095Y-201088095D01*
X129871428Y-199788095D01*
X123009523Y-199850000D02*
X122885714Y-199788095D01*
X122700000Y-199788095D01*
X122514285Y-199850000D01*
X122390476Y-199973809D01*
X122328571Y-200097619D01*
X122266666Y-200345238D01*
X122266666Y-200530952D01*
X122328571Y-200778571D01*
X122390476Y-200902380D01*
X122514285Y-201026190D01*
X122700000Y-201088095D01*
X122823809Y-201088095D01*
X123009523Y-201026190D01*
X123071428Y-200964285D01*
X123071428Y-200530952D01*
X122823809Y-200530952D01*
X123628571Y-201088095D02*
X123628571Y-199788095D01*
X124371428Y-201088095D01*
X124371428Y-199788095D01*
X124990476Y-201088095D02*
X124990476Y-199788095D01*
X125300000Y-199788095D01*
X125485714Y-199850000D01*
X125609523Y-199973809D01*
X125671428Y-200097619D01*
X125733333Y-200345238D01*
X125733333Y-200530952D01*
X125671428Y-200778571D01*
X125609523Y-200902380D01*
X125485714Y-201026190D01*
X125300000Y-201088095D01*
X124990476Y-201088095D01*
X112409523Y-199850000D02*
X112285714Y-199788095D01*
X112100000Y-199788095D01*
X111914285Y-199850000D01*
X111790476Y-199973809D01*
X111728571Y-200097619D01*
X111666666Y-200345238D01*
X111666666Y-200530952D01*
X111728571Y-200778571D01*
X111790476Y-200902380D01*
X111914285Y-201026190D01*
X112100000Y-201088095D01*
X112223809Y-201088095D01*
X112409523Y-201026190D01*
X112471428Y-200964285D01*
X112471428Y-200530952D01*
X112223809Y-200530952D01*
X113028571Y-201088095D02*
X113028571Y-199788095D01*
X113771428Y-201088095D01*
X113771428Y-199788095D01*
X114390476Y-201088095D02*
X114390476Y-199788095D01*
X114700000Y-199788095D01*
X114885714Y-199850000D01*
X115009523Y-199973809D01*
X115071428Y-200097619D01*
X115133333Y-200345238D01*
X115133333Y-200530952D01*
X115071428Y-200778571D01*
X115009523Y-200902380D01*
X114885714Y-201026190D01*
X114700000Y-201088095D01*
X114390476Y-201088095D01*
X116278571Y-192088095D02*
X116278571Y-190788095D01*
X116711904Y-191716666D01*
X117145238Y-190788095D01*
X117145238Y-192088095D01*
X118197619Y-191407142D02*
X117764285Y-191407142D01*
X117764285Y-192088095D02*
X117764285Y-190788095D01*
X118383333Y-190788095D01*
X119621428Y-191964285D02*
X119559523Y-192026190D01*
X119373809Y-192088095D01*
X119250000Y-192088095D01*
X119064285Y-192026190D01*
X118940476Y-191902380D01*
X118878571Y-191778571D01*
X118816666Y-191530952D01*
X118816666Y-191345238D01*
X118878571Y-191097619D01*
X118940476Y-190973809D01*
X119064285Y-190850000D01*
X119250000Y-190788095D01*
X119373809Y-190788095D01*
X119559523Y-190850000D01*
X119621428Y-190911904D01*
X121540476Y-192583333D02*
X121478571Y-192521428D01*
X121354761Y-192335714D01*
X121292857Y-192211904D01*
X121230952Y-192026190D01*
X121169047Y-191716666D01*
X121169047Y-191469047D01*
X121230952Y-191159523D01*
X121292857Y-190973809D01*
X121354761Y-190850000D01*
X121478571Y-190664285D01*
X121540476Y-190602380D01*
X121973809Y-191716666D02*
X122592857Y-191716666D01*
X121850000Y-192088095D02*
X122283333Y-190788095D01*
X122716666Y-192088095D01*
X123150000Y-192088095D02*
X123150000Y-191221428D01*
X123150000Y-190788095D02*
X123088095Y-190850000D01*
X123150000Y-190911904D01*
X123211904Y-190850000D01*
X123150000Y-190788095D01*
X123150000Y-190911904D01*
X123769047Y-192088095D02*
X123769047Y-191221428D01*
X123769047Y-191469047D02*
X123830952Y-191345238D01*
X123892857Y-191283333D01*
X124016666Y-191221428D01*
X124140476Y-191221428D01*
X124450000Y-192583333D02*
X124511904Y-192521428D01*
X124635714Y-192335714D01*
X124697619Y-192211904D01*
X124759523Y-192026190D01*
X124821428Y-191716666D01*
X124821428Y-191469047D01*
X124759523Y-191159523D01*
X124697619Y-190973809D01*
X124635714Y-190850000D01*
X124511904Y-190664285D01*
X124450000Y-190602380D01*
X99050000Y-200407142D02*
X99483333Y-200407142D01*
X99669047Y-201088095D02*
X99050000Y-201088095D01*
X99050000Y-199788095D01*
X99669047Y-199788095D01*
X100102380Y-201088095D02*
X100783333Y-200221428D01*
X100102380Y-200221428D02*
X100783333Y-201088095D01*
X101092857Y-200221428D02*
X101588095Y-200221428D01*
X101278571Y-199788095D02*
X101278571Y-200902380D01*
X101340476Y-201026190D01*
X101464285Y-201088095D01*
X101588095Y-201088095D01*
X102021428Y-201088095D02*
X102021428Y-200221428D01*
X102021428Y-200469047D02*
X102083333Y-200345238D01*
X102145238Y-200283333D01*
X102269047Y-200221428D01*
X102392857Y-200221428D01*
X103383333Y-201088095D02*
X103383333Y-200407142D01*
X103321428Y-200283333D01*
X103197619Y-200221428D01*
X102950000Y-200221428D01*
X102826190Y-200283333D01*
X103383333Y-201026190D02*
X103259523Y-201088095D01*
X102950000Y-201088095D01*
X102826190Y-201026190D01*
X102764285Y-200902380D01*
X102764285Y-200778571D01*
X102826190Y-200654761D01*
X102950000Y-200592857D01*
X103259523Y-200592857D01*
X103383333Y-200530952D01*
X104807142Y-199788095D02*
X105240476Y-201088095D01*
X105673809Y-199788095D01*
X106664285Y-201088095D02*
X106664285Y-200407142D01*
X106602380Y-200283333D01*
X106478571Y-200221428D01*
X106230952Y-200221428D01*
X106107142Y-200283333D01*
X106664285Y-201026190D02*
X106540476Y-201088095D01*
X106230952Y-201088095D01*
X106107142Y-201026190D01*
X106045238Y-200902380D01*
X106045238Y-200778571D01*
X106107142Y-200654761D01*
X106230952Y-200592857D01*
X106540476Y-200592857D01*
X106664285Y-200530952D01*
X107469047Y-201088095D02*
X107345238Y-201026190D01*
X107283333Y-200902380D01*
X107283333Y-199788095D01*
X107840476Y-200221428D02*
X108150000Y-201088095D01*
X108459523Y-200221428D01*
X109450000Y-201026190D02*
X109326190Y-201088095D01*
X109078571Y-201088095D01*
X108954761Y-201026190D01*
X108892857Y-200902380D01*
X108892857Y-200407142D01*
X108954761Y-200283333D01*
X109078571Y-200221428D01*
X109326190Y-200221428D01*
X109450000Y-200283333D01*
X109511904Y-200407142D01*
X109511904Y-200530952D01*
X108892857Y-200654761D01*
X89838095Y-201088095D02*
X89838095Y-199788095D01*
X90457142Y-200221428D02*
X90457142Y-201088095D01*
X90457142Y-200345238D02*
X90519047Y-200283333D01*
X90642857Y-200221428D01*
X90828571Y-200221428D01*
X90952380Y-200283333D01*
X91014285Y-200407142D01*
X91014285Y-201088095D01*
X91633333Y-201088095D02*
X91633333Y-199788095D01*
X92190476Y-201088095D02*
X92190476Y-200407142D01*
X92128571Y-200283333D01*
X92004761Y-200221428D01*
X91819047Y-200221428D01*
X91695238Y-200283333D01*
X91633333Y-200345238D01*
X93366666Y-201088095D02*
X93366666Y-200407142D01*
X93304761Y-200283333D01*
X93180952Y-200221428D01*
X92933333Y-200221428D01*
X92809523Y-200283333D01*
X93366666Y-201026190D02*
X93242857Y-201088095D01*
X92933333Y-201088095D01*
X92809523Y-201026190D01*
X92747619Y-200902380D01*
X92747619Y-200778571D01*
X92809523Y-200654761D01*
X92933333Y-200592857D01*
X93242857Y-200592857D01*
X93366666Y-200530952D01*
X94171428Y-201088095D02*
X94047619Y-201026190D01*
X93985714Y-200902380D01*
X93985714Y-199788095D01*
X95161904Y-201026190D02*
X95038095Y-201088095D01*
X94790476Y-201088095D01*
X94666666Y-201026190D01*
X94604761Y-200902380D01*
X94604761Y-200407142D01*
X94666666Y-200283333D01*
X94790476Y-200221428D01*
X95038095Y-200221428D01*
X95161904Y-200283333D01*
X95223809Y-200407142D01*
X95223809Y-200530952D01*
X94604761Y-200654761D01*
X78121428Y-200407142D02*
X78554761Y-200407142D01*
X78740476Y-201088095D02*
X78121428Y-201088095D01*
X78121428Y-199788095D01*
X78740476Y-199788095D01*
X79173809Y-201088095D02*
X79854761Y-200221428D01*
X79173809Y-200221428D02*
X79854761Y-201088095D01*
X80350000Y-201088095D02*
X80350000Y-199788095D01*
X80907142Y-201088095D02*
X80907142Y-200407142D01*
X80845238Y-200283333D01*
X80721428Y-200221428D01*
X80535714Y-200221428D01*
X80411904Y-200283333D01*
X80350000Y-200345238D01*
X82083333Y-201088095D02*
X82083333Y-200407142D01*
X82021428Y-200283333D01*
X81897619Y-200221428D01*
X81650000Y-200221428D01*
X81526190Y-200283333D01*
X82083333Y-201026190D02*
X81959523Y-201088095D01*
X81650000Y-201088095D01*
X81526190Y-201026190D01*
X81464285Y-200902380D01*
X81464285Y-200778571D01*
X81526190Y-200654761D01*
X81650000Y-200592857D01*
X81959523Y-200592857D01*
X82083333Y-200530952D01*
X82888095Y-201088095D02*
X82764285Y-201026190D01*
X82702380Y-200902380D01*
X82702380Y-199788095D01*
X83878571Y-201026190D02*
X83754761Y-201088095D01*
X83507142Y-201088095D01*
X83383333Y-201026190D01*
X83321428Y-200902380D01*
X83321428Y-200407142D01*
X83383333Y-200283333D01*
X83507142Y-200221428D01*
X83754761Y-200221428D01*
X83878571Y-200283333D01*
X83940476Y-200407142D01*
X83940476Y-200530952D01*
X83321428Y-200654761D01*
D16*
X115870000Y-124950000D02*
X117370000Y-124950000D01*
X117370000Y-124950000D02*
X117370000Y-124680000D01*
X117370000Y-124680000D02*
X120200000Y-124680000D01*
X115870000Y-118050000D02*
X117370000Y-118050000D01*
X117370000Y-118050000D02*
X117370000Y-118320000D01*
X117370000Y-118320000D02*
X118470000Y-118320000D01*
D17*
G36*
X110162500Y-170128334D02*
G01*
X110014333Y-170128334D01*
X110014333Y-169853167D01*
X110162500Y-169853167D01*
X110162500Y-170128334D01*
G37*
X110162500Y-170128334D02*
X110014333Y-170128334D01*
X110014333Y-169853167D01*
X110162500Y-169853167D01*
X110162500Y-170128334D01*
G36*
X100561724Y-166734870D02*
G01*
X100732118Y-166746520D01*
X100886349Y-166768537D01*
X101037253Y-166802853D01*
X101197665Y-166851402D01*
X101230167Y-166862357D01*
X101533480Y-166987832D01*
X101816683Y-167148695D01*
X102077111Y-167341832D01*
X102312101Y-167564127D01*
X102518988Y-167812467D01*
X102695110Y-168083738D01*
X102837801Y-168374824D01*
X102944399Y-168682613D01*
X103000799Y-168932417D01*
X103030667Y-169192520D01*
X103033857Y-169465055D01*
X103011255Y-169737108D01*
X102963746Y-169995765D01*
X102916578Y-170160651D01*
X102890160Y-170236443D01*
X102869394Y-170280985D01*
X102846722Y-170303244D01*
X102814588Y-170312189D01*
X102786528Y-170314989D01*
X102735012Y-170317208D01*
X102715596Y-170307748D01*
X102718384Y-170280261D01*
X102720554Y-170272656D01*
X102799063Y-169969003D01*
X102848252Y-169688081D01*
X102868433Y-169422387D01*
X102859917Y-169164420D01*
X102823019Y-168906676D01*
X102784473Y-168737676D01*
X102730635Y-168566372D01*
X102656073Y-168380038D01*
X102568279Y-168195203D01*
X102474745Y-168028398D01*
X102435330Y-167967366D01*
X102287963Y-167776844D01*
X102109487Y-167589304D01*
X101910619Y-167414256D01*
X101702079Y-167261210D01*
X101513459Y-167149348D01*
X101221440Y-167020230D01*
X100921933Y-166930943D01*
X100618274Y-166880390D01*
X100313800Y-166867475D01*
X100011847Y-166891104D01*
X99715753Y-166950181D01*
X99428854Y-167043610D01*
X99154488Y-167170295D01*
X98895990Y-167329142D01*
X98656698Y-167519053D01*
X98439948Y-167738934D01*
X98249078Y-167987689D01*
X98087423Y-168264222D01*
X98081411Y-168276250D01*
X97973937Y-168525387D01*
X97898423Y-168778967D01*
X97852902Y-169046035D01*
X97835407Y-169335633D01*
X97835155Y-169408667D01*
X97839257Y-169589663D01*
X97850449Y-169742410D01*
X97870897Y-169880707D01*
X97902767Y-170018351D01*
X97948222Y-170169138D01*
X97960099Y-170204965D01*
X98079013Y-170494320D01*
X98233605Y-170765166D01*
X98420375Y-171014546D01*
X98635822Y-171239499D01*
X98876447Y-171437069D01*
X99138750Y-171604296D01*
X99419231Y-171738221D01*
X99714390Y-171835887D01*
X99946445Y-171884052D01*
X99977130Y-171888761D01*
X100006335Y-171892859D01*
X100037071Y-171896384D01*
X100072346Y-171899375D01*
X100115171Y-171901871D01*
X100168556Y-171903912D01*
X100235509Y-171905536D01*
X100319041Y-171906783D01*
X100422162Y-171907690D01*
X100547881Y-171908298D01*
X100699208Y-171908645D01*
X100879152Y-171908770D01*
X101090724Y-171908712D01*
X101336933Y-171908510D01*
X101620788Y-171908203D01*
X101796375Y-171908001D01*
X103241000Y-171906334D01*
X103410333Y-171906334D01*
X103670421Y-171906334D01*
X103576058Y-171834282D01*
X103516028Y-171784265D01*
X103465970Y-171735350D01*
X103447124Y-171712574D01*
X103427728Y-171686926D01*
X103417287Y-171685344D01*
X103412859Y-171713767D01*
X103411504Y-171778135D01*
X103411443Y-171784625D01*
X103410333Y-171906334D01*
X103241000Y-171906334D01*
X103241000Y-171183790D01*
X103410333Y-171183790D01*
X103411818Y-171316042D01*
X103418507Y-171415261D01*
X103433746Y-171490707D01*
X103460885Y-171551641D01*
X103503272Y-171607321D01*
X103564255Y-171667008D01*
X103594966Y-171694396D01*
X103718816Y-171778266D01*
X103853273Y-171824298D01*
X103991951Y-171831558D01*
X104128466Y-171799108D01*
X104172826Y-171779082D01*
X104258677Y-171719034D01*
X104343224Y-171632609D01*
X104414118Y-171534297D01*
X104456494Y-171446305D01*
X104473899Y-171372773D01*
X104485963Y-171278901D01*
X104489833Y-171196860D01*
X104486238Y-171102268D01*
X104472079Y-171027722D01*
X104442300Y-170951293D01*
X104424887Y-170915292D01*
X104339570Y-170783490D01*
X104233172Y-170681655D01*
X104111291Y-170612428D01*
X103979524Y-170578450D01*
X103843469Y-170582362D01*
X103763774Y-170603397D01*
X103653133Y-170656448D01*
X103550097Y-170729951D01*
X103470599Y-170812215D01*
X103460995Y-170825605D01*
X103440364Y-170858809D01*
X103426235Y-170892686D01*
X103417388Y-170935857D01*
X103412603Y-170996946D01*
X103410660Y-171084575D01*
X103410333Y-171183790D01*
X103241000Y-171183790D01*
X103241000Y-170467807D01*
X103292713Y-170454827D01*
X103341115Y-170449162D01*
X103370480Y-170466167D01*
X103385073Y-170512163D01*
X103389161Y-170593471D01*
X103389167Y-170597740D01*
X103389167Y-170725981D01*
X103479125Y-170635529D01*
X103609400Y-170532334D01*
X103754016Y-170466150D01*
X103906772Y-170436971D01*
X104061468Y-170444793D01*
X104211901Y-170489612D01*
X104351872Y-170571421D01*
X104426264Y-170636264D01*
X104482620Y-170703612D01*
X104540567Y-170790179D01*
X104581882Y-170865965D01*
X104613131Y-170935607D01*
X104632732Y-170993683D01*
X104643325Y-171054245D01*
X104647550Y-171131344D01*
X104648112Y-171218417D01*
X104646479Y-171322345D01*
X104640469Y-171398034D01*
X104627591Y-171459537D01*
X104605356Y-171520906D01*
X104587275Y-171561790D01*
X104503814Y-171699879D01*
X104414389Y-171799915D01*
X104301867Y-171906334D01*
X105300518Y-171906334D01*
X105217208Y-171845984D01*
X105092217Y-171733832D01*
X104993428Y-171595029D01*
X104957408Y-171525334D01*
X104931125Y-171463867D01*
X104914761Y-171406398D01*
X104906081Y-171339561D01*
X104902853Y-171249986D01*
X104902583Y-171197250D01*
X104903303Y-171144334D01*
X105061333Y-171144334D01*
X106207697Y-171144334D01*
X106193130Y-171075542D01*
X106144539Y-170929642D01*
X106066740Y-170797774D01*
X105966389Y-170688581D01*
X105850141Y-170610708D01*
X105827347Y-170600393D01*
X105737668Y-170577188D01*
X105627882Y-170568901D01*
X105517287Y-170575554D01*
X105425183Y-170597167D01*
X105418212Y-170599950D01*
X105316701Y-170659288D01*
X105222895Y-170744473D01*
X105144269Y-170845543D01*
X105088293Y-170952532D01*
X105062442Y-171055478D01*
X105061540Y-171075542D01*
X105061333Y-171144334D01*
X104903303Y-171144334D01*
X104904001Y-171093169D01*
X104909756Y-171018056D01*
X104922105Y-170958601D01*
X104943301Y-170901490D01*
X104958154Y-170869167D01*
X105048328Y-170718194D01*
X105160882Y-170600238D01*
X105301515Y-170509408D01*
X105310485Y-170504931D01*
X105390016Y-170468369D01*
X105455061Y-170447496D01*
X105524193Y-170438232D01*
X105615983Y-170436496D01*
X105621805Y-170436536D01*
X105755913Y-170445123D01*
X105867405Y-170472244D01*
X105973934Y-170523373D01*
X106040923Y-170566546D01*
X106142753Y-170659032D01*
X106230851Y-170781177D01*
X106299110Y-170921003D01*
X106341427Y-171066529D01*
X106352500Y-171177969D01*
X106352500Y-171271334D01*
X105055923Y-171271334D01*
X105070305Y-171361292D01*
X105109977Y-171486415D01*
X105185875Y-171609022D01*
X105274166Y-171703786D01*
X105372373Y-171779461D01*
X105470432Y-171823269D01*
X105584542Y-171841392D01*
X105638581Y-171842834D01*
X105777816Y-171826085D01*
X105903387Y-171778697D01*
X106006110Y-171704953D01*
X106053276Y-171649372D01*
X106092687Y-171598755D01*
X106125434Y-171578304D01*
X106162000Y-171579877D01*
X106208566Y-171594807D01*
X106231236Y-171607709D01*
X106232140Y-171635515D01*
X106207255Y-171682170D01*
X106163027Y-171739079D01*
X106105899Y-171797647D01*
X106059571Y-171836649D01*
X105968209Y-171906334D01*
X106648277Y-171906334D01*
X106653847Y-171181375D01*
X106659417Y-170456417D01*
X106786417Y-170456417D01*
X106792660Y-170611105D01*
X106798904Y-170765794D01*
X106896111Y-170657677D01*
X107000247Y-170558749D01*
X107106986Y-170494770D01*
X107227623Y-170459254D01*
X107247288Y-170456029D01*
X107347333Y-170441027D01*
X107347333Y-170514145D01*
X107345144Y-170556059D01*
X107331865Y-170580828D01*
X107297432Y-170597000D01*
X107231782Y-170613123D01*
X107230429Y-170613426D01*
X107095270Y-170664586D01*
X106971853Y-170752490D01*
X106871621Y-170866300D01*
X106807583Y-170957350D01*
X106794749Y-171906334D01*
X107689248Y-171906334D01*
X107682705Y-171900828D01*
X108355354Y-171900828D01*
X108381137Y-171905296D01*
X108441811Y-171906318D01*
X108465202Y-171906334D01*
X108536737Y-171905394D01*
X108573907Y-171900611D01*
X108584670Y-171889038D01*
X108576982Y-171867726D01*
X108575745Y-171865392D01*
X108557402Y-171809439D01*
X108553833Y-171776765D01*
X108553833Y-171729080D01*
X108495625Y-171782711D01*
X108440371Y-171829880D01*
X108386873Y-171870131D01*
X108385082Y-171871337D01*
X108358618Y-171890360D01*
X108355354Y-171900828D01*
X107682705Y-171900828D01*
X107621112Y-171849001D01*
X107544892Y-171760393D01*
X107495508Y-171651731D01*
X107475112Y-171534293D01*
X107478318Y-171499996D01*
X107622500Y-171499996D01*
X107642227Y-171613810D01*
X107697278Y-171713799D01*
X107781460Y-171790321D01*
X107823583Y-171812954D01*
X107900915Y-171833205D01*
X108002259Y-171840816D01*
X108111263Y-171835904D01*
X108211573Y-171818588D01*
X108240678Y-171809935D01*
X108331548Y-171767001D01*
X108418952Y-171705360D01*
X108490206Y-171635415D01*
X108530904Y-171571921D01*
X108543856Y-171516689D01*
X108550197Y-171439775D01*
X108549699Y-171385865D01*
X108544951Y-171315826D01*
X108535019Y-171275563D01*
X108512588Y-171252574D01*
X108470347Y-171234357D01*
X108458583Y-171230079D01*
X108384748Y-171213278D01*
X108275843Y-171202459D01*
X108141083Y-171198326D01*
X108032376Y-171198979D01*
X107954623Y-171203212D01*
X107896493Y-171212662D01*
X107846651Y-171228968D01*
X107808506Y-171246377D01*
X107716303Y-171309317D01*
X107652608Y-171389678D01*
X107623611Y-171479021D01*
X107622500Y-171499996D01*
X107478318Y-171499996D01*
X107485859Y-171419359D01*
X107522087Y-171330397D01*
X107610821Y-171223907D01*
X107730591Y-171145718D01*
X107880672Y-171096148D01*
X108060337Y-171075513D01*
X108109333Y-171074909D01*
X108277768Y-171083884D01*
X108425287Y-171107641D01*
X108518483Y-171135298D01*
X108544140Y-171129574D01*
X108556205Y-171092752D01*
X108556178Y-171033285D01*
X108545555Y-170959628D01*
X108525833Y-170880235D01*
X108498510Y-170803560D01*
X108465083Y-170738058D01*
X108442746Y-170707667D01*
X108362776Y-170632032D01*
X108277060Y-170587046D01*
X108172302Y-170567023D01*
X108108269Y-170564593D01*
X108029610Y-170567464D01*
X107961757Y-170579477D01*
X107888525Y-170604815D01*
X107801940Y-170643750D01*
X107720999Y-170681400D01*
X107669322Y-170702086D01*
X107638263Y-170707682D01*
X107619174Y-170700062D01*
X107606926Y-170686005D01*
X107589056Y-170654197D01*
X107591758Y-170627205D01*
X107620065Y-170599048D01*
X107679013Y-170563747D01*
X107733752Y-170535348D01*
X107903165Y-170467197D01*
X108067143Y-170434848D01*
X108221520Y-170437127D01*
X108362133Y-170472861D01*
X108484819Y-170540876D01*
X108585412Y-170639999D01*
X108659751Y-170769055D01*
X108671579Y-170799689D01*
X108682616Y-170847028D01*
X108690870Y-170921551D01*
X108696558Y-171027132D01*
X108699896Y-171167645D01*
X108701071Y-171326950D01*
X108701842Y-171480180D01*
X108703678Y-171596341D01*
X108706941Y-171680694D01*
X108711994Y-171738496D01*
X108719200Y-171775009D01*
X108728923Y-171795491D01*
X108733750Y-171800500D01*
X108760920Y-171842292D01*
X108765500Y-171866592D01*
X108768662Y-171883608D01*
X108782861Y-171894945D01*
X108815165Y-171901740D01*
X108872645Y-171905132D01*
X108962368Y-171906261D01*
X109012197Y-171906334D01*
X109258894Y-171906334D01*
X109218572Y-171861813D01*
X109206816Y-171846273D01*
X109197491Y-171825299D01*
X109190248Y-171794013D01*
X109184743Y-171747539D01*
X109180629Y-171681000D01*
X109177559Y-171589518D01*
X109175187Y-171468216D01*
X109173166Y-171312217D01*
X109172047Y-171206769D01*
X109165845Y-170596245D01*
X109066214Y-170589831D01*
X109004472Y-170583047D01*
X108973262Y-170568925D01*
X108960798Y-170541180D01*
X108959440Y-170532894D01*
X108964887Y-170484846D01*
X109000857Y-170457009D01*
X109071707Y-170446449D01*
X109088292Y-170446158D01*
X109167667Y-170445834D01*
X109167667Y-170202820D01*
X109167979Y-170098446D01*
X109169940Y-170028800D01*
X109175086Y-169986279D01*
X109184952Y-169963278D01*
X109201077Y-169952193D01*
X109219380Y-169946827D01*
X109267466Y-169941869D01*
X109293463Y-169947673D01*
X109303578Y-169974843D01*
X109310961Y-170038534D01*
X109315108Y-170132991D01*
X109315833Y-170202810D01*
X109315833Y-170444121D01*
X109665083Y-170456417D01*
X109665083Y-170583417D01*
X109313899Y-170595743D01*
X109320158Y-171168104D01*
X109322169Y-171338946D01*
X109324286Y-171472410D01*
X109326910Y-171573450D01*
X109330439Y-171647022D01*
X109335271Y-171698079D01*
X109341807Y-171731577D01*
X109350445Y-171752469D01*
X109361583Y-171765710D01*
X109368750Y-171771402D01*
X109449480Y-171810114D01*
X109543634Y-171815451D01*
X109656537Y-171787384D01*
X109701831Y-171769509D01*
X109734265Y-171773867D01*
X109760306Y-171804553D01*
X109772682Y-171845572D01*
X109764123Y-171880927D01*
X109755862Y-171888378D01*
X109760332Y-171897258D01*
X109800307Y-171903478D01*
X109868991Y-171906002D01*
X109871458Y-171906009D01*
X110014333Y-171906334D01*
X110014333Y-170467807D01*
X110066047Y-170454827D01*
X110114133Y-170449869D01*
X110140130Y-170455673D01*
X110147164Y-170480850D01*
X110152864Y-170547038D01*
X110157237Y-170654505D01*
X110160293Y-170803521D01*
X110162039Y-170994355D01*
X110162500Y-171187916D01*
X110162500Y-171906334D01*
X110909685Y-171906334D01*
X110825396Y-171845275D01*
X110695898Y-171730140D01*
X110602144Y-171596764D01*
X110542493Y-171441738D01*
X110515304Y-171261654D01*
X110513542Y-171207834D01*
X110681354Y-171207834D01*
X110682806Y-171309558D01*
X110689017Y-171382329D01*
X110702280Y-171439455D01*
X110724889Y-171494243D01*
X110733800Y-171512142D01*
X110813378Y-171628822D01*
X110918791Y-171726076D01*
X111040378Y-171797394D01*
X111168481Y-171836265D01*
X111222283Y-171841359D01*
X111274578Y-171836198D01*
X111345650Y-171821425D01*
X111381958Y-171811560D01*
X111512864Y-171751533D01*
X111623615Y-171658502D01*
X111709895Y-171538722D01*
X111767386Y-171398449D01*
X111791773Y-171243937D01*
X111792316Y-171216896D01*
X111779688Y-171059505D01*
X111739376Y-170926829D01*
X111667795Y-170808778D01*
X111632258Y-170766331D01*
X111515924Y-170663985D01*
X111389598Y-170600445D01*
X111258166Y-170574883D01*
X111126509Y-170586473D01*
X110999513Y-170634384D01*
X110882060Y-170717791D01*
X110779034Y-170835865D01*
X110727967Y-170919618D01*
X110704814Y-170971001D01*
X110690663Y-171026901D01*
X110683513Y-171099684D01*
X110681366Y-171201714D01*
X110681354Y-171207834D01*
X110513542Y-171207834D01*
X110513180Y-171196805D01*
X110513892Y-171100274D01*
X110519890Y-171030356D01*
X110534379Y-170971382D01*
X110560566Y-170907682D01*
X110581052Y-170865088D01*
X110663031Y-170733164D01*
X110767790Y-170617290D01*
X110885794Y-170526499D01*
X110993047Y-170474522D01*
X111162020Y-170437029D01*
X111327343Y-170439726D01*
X111484173Y-170480489D01*
X111627670Y-170557192D01*
X111752991Y-170667709D01*
X111855295Y-170809915D01*
X111884309Y-170865809D01*
X111916539Y-170938065D01*
X111936383Y-170998525D01*
X111946776Y-171062238D01*
X111950658Y-171144252D01*
X111951083Y-171207834D01*
X111949386Y-171310674D01*
X111942628Y-171385605D01*
X111928309Y-171446971D01*
X111903928Y-171509120D01*
X111895306Y-171527874D01*
X111831674Y-171638778D01*
X111750721Y-171743961D01*
X111663613Y-171830027D01*
X111612417Y-171867298D01*
X111590543Y-171881357D01*
X111581099Y-171891539D01*
X111588938Y-171898472D01*
X111618915Y-171902782D01*
X111675884Y-171905097D01*
X111764701Y-171906043D01*
X111890220Y-171906248D01*
X111914042Y-171906254D01*
X112279167Y-171906334D01*
X112279167Y-171461154D01*
X112448500Y-171461154D01*
X112448500Y-171906334D01*
X113358667Y-171906334D01*
X113358225Y-171456542D01*
X113356115Y-171246330D01*
X113349560Y-171074124D01*
X113337546Y-170935734D01*
X113319060Y-170826972D01*
X113293087Y-170743648D01*
X113258612Y-170681574D01*
X113214623Y-170636561D01*
X113160104Y-170604420D01*
X113150969Y-170600456D01*
X113046152Y-170578113D01*
X112928083Y-170588483D01*
X112806130Y-170628492D01*
X112689657Y-170695066D01*
X112588030Y-170785133D01*
X112587975Y-170785193D01*
X112544392Y-170835402D01*
X112510965Y-170881652D01*
X112486352Y-170930448D01*
X112469210Y-170988297D01*
X112458196Y-171061704D01*
X112451969Y-171157175D01*
X112449186Y-171281216D01*
X112448504Y-171440333D01*
X112448500Y-171461154D01*
X112279167Y-171461154D01*
X112279167Y-170467807D01*
X112330880Y-170454827D01*
X112376806Y-170448950D01*
X112405662Y-170463505D01*
X112421135Y-170504845D01*
X112426911Y-170579319D01*
X112427333Y-170620985D01*
X112427333Y-170772471D01*
X112538458Y-170663234D01*
X112664997Y-170559373D01*
X112798474Y-170486179D01*
X112933629Y-170443468D01*
X113065202Y-170431057D01*
X113187935Y-170448763D01*
X113296567Y-170496404D01*
X113385839Y-170573795D01*
X113450491Y-170680754D01*
X113456199Y-170695178D01*
X113468065Y-170732465D01*
X113477482Y-170777740D01*
X113484836Y-170836573D01*
X113490516Y-170914535D01*
X113494909Y-171017197D01*
X113498405Y-171150128D01*
X113501391Y-171318899D01*
X113501863Y-171350709D01*
X113509950Y-171906334D01*
X113746516Y-171905696D01*
X113983083Y-171905058D01*
X113987308Y-171894360D01*
X114628667Y-171894360D01*
X114649199Y-171896588D01*
X114708261Y-171898681D01*
X114802049Y-171900601D01*
X114926758Y-171902309D01*
X115078585Y-171903766D01*
X115253726Y-171904933D01*
X115448377Y-171905771D01*
X115658735Y-171906243D01*
X115803417Y-171906334D01*
X116022011Y-171906208D01*
X116227394Y-171905848D01*
X116415761Y-171905275D01*
X116583310Y-171904513D01*
X116726236Y-171903587D01*
X116840735Y-171902517D01*
X116923004Y-171901329D01*
X116969239Y-171900044D01*
X116978167Y-171899161D01*
X116970476Y-171878498D01*
X116948748Y-171823655D01*
X116914997Y-171739625D01*
X116871236Y-171631401D01*
X116819480Y-171503974D01*
X116761742Y-171362337D01*
X116749739Y-171332953D01*
X116521312Y-170773917D01*
X115801982Y-170768353D01*
X115082653Y-170762789D01*
X115059467Y-170821270D01*
X115045301Y-170856512D01*
X115017628Y-170924937D01*
X114978892Y-171020516D01*
X114931539Y-171137219D01*
X114878013Y-171269017D01*
X114832474Y-171381068D01*
X114777237Y-171517388D01*
X114727684Y-171640541D01*
X114685941Y-171745177D01*
X114654133Y-171825941D01*
X114634384Y-171877483D01*
X114628667Y-171894360D01*
X113987308Y-171894360D01*
X114667452Y-170172355D01*
X115327167Y-170172355D01*
X115347509Y-170178335D01*
X115405247Y-170183464D01*
X115495448Y-170187541D01*
X115613180Y-170190365D01*
X115753511Y-170191735D01*
X115805681Y-170191834D01*
X115966050Y-170191344D01*
X116088149Y-170189722D01*
X116176036Y-170186739D01*
X116233763Y-170182167D01*
X116265387Y-170175777D01*
X116274961Y-170167339D01*
X116274584Y-170165375D01*
X116265553Y-170139640D01*
X116244356Y-170078807D01*
X116212695Y-169987775D01*
X116172273Y-169871443D01*
X116124793Y-169734710D01*
X116071956Y-169582475D01*
X116034845Y-169475507D01*
X115979847Y-169318546D01*
X115929011Y-169176507D01*
X115883997Y-169053787D01*
X115846462Y-168954786D01*
X115818066Y-168883905D01*
X115800468Y-168845541D01*
X115795420Y-168840507D01*
X115786248Y-168866750D01*
X115764590Y-168927869D01*
X115732223Y-169018883D01*
X115690919Y-169134809D01*
X115642454Y-169270664D01*
X115588603Y-169421466D01*
X115556644Y-169510896D01*
X115500927Y-169667354D01*
X115450090Y-169811229D01*
X115405832Y-169937633D01*
X115369846Y-170041676D01*
X115343829Y-170118472D01*
X115329478Y-170163131D01*
X115327167Y-170172355D01*
X114667452Y-170172355D01*
X114779144Y-169889571D01*
X115575204Y-167874084D01*
X115797908Y-167868101D01*
X116020612Y-167862119D01*
X116073190Y-167995101D01*
X116088461Y-168033723D01*
X116118133Y-168108763D01*
X116161041Y-168217274D01*
X116216019Y-168356308D01*
X116281901Y-168522916D01*
X116357521Y-168714150D01*
X116441713Y-168927062D01*
X116533312Y-169158704D01*
X116631151Y-169406127D01*
X116734065Y-169666383D01*
X116840888Y-169936524D01*
X116872794Y-170017209D01*
X117619820Y-171906334D01*
X117782500Y-171906334D01*
X117782500Y-171356977D01*
X118158208Y-171351197D01*
X118533917Y-171345417D01*
X118539357Y-169922448D01*
X118544797Y-168499478D01*
X118168940Y-168493698D01*
X117793083Y-168487917D01*
X117787181Y-168208015D01*
X117785037Y-168094655D01*
X117784908Y-168016614D01*
X117787809Y-167966886D01*
X117794758Y-167938468D01*
X117806772Y-167924357D01*
X117824866Y-167917548D01*
X117829514Y-167916395D01*
X117859992Y-167914141D01*
X117928396Y-167912276D01*
X118030323Y-167910825D01*
X118161368Y-167909813D01*
X118317125Y-167909264D01*
X118493190Y-167909203D01*
X118685159Y-167909654D01*
X118872583Y-167910547D01*
X119867417Y-167916417D01*
X119873305Y-168207458D01*
X119879194Y-168498500D01*
X119137167Y-168498500D01*
X119137167Y-171356000D01*
X119878000Y-171356000D01*
X119878000Y-171906334D01*
X120153167Y-171906334D01*
X120745581Y-171906334D01*
X122383046Y-171906334D01*
X122339751Y-171858709D01*
X122318022Y-171833349D01*
X122272106Y-171778661D01*
X122204762Y-171697962D01*
X122118748Y-171594575D01*
X122016823Y-171471819D01*
X121901747Y-171333015D01*
X121776278Y-171181482D01*
X121643174Y-171020542D01*
X121616395Y-170988140D01*
X120936333Y-170165196D01*
X120936333Y-169899847D01*
X121364958Y-169889911D01*
X121530532Y-169885297D01*
X121660685Y-169879206D01*
X121762330Y-169870355D01*
X121842378Y-169857463D01*
X121907742Y-169839248D01*
X121965335Y-169814429D01*
X122022068Y-169781723D01*
X122051336Y-169762638D01*
X122169849Y-169659998D01*
X122257066Y-169535831D01*
X122313265Y-169396601D01*
X122338724Y-169248773D01*
X122333721Y-169098809D01*
X122298532Y-168953173D01*
X122233437Y-168818329D01*
X122138712Y-168700740D01*
X122014636Y-168606870D01*
X122001367Y-168599440D01*
X121930677Y-168566313D01*
X121851363Y-168540859D01*
X121757520Y-168522377D01*
X121643244Y-168510163D01*
X121502630Y-168503515D01*
X121329776Y-168501731D01*
X121190333Y-168502945D01*
X120756417Y-168509084D01*
X120745581Y-171906334D01*
X120153167Y-171906334D01*
X120153167Y-167905834D01*
X120955638Y-167905834D01*
X121193112Y-167906245D01*
X121392992Y-167907836D01*
X121560011Y-167911136D01*
X121698902Y-167916678D01*
X121814400Y-167924994D01*
X121911237Y-167936615D01*
X121994147Y-167952074D01*
X122067865Y-167971901D01*
X122137123Y-167996629D01*
X122206655Y-168026789D01*
X122259917Y-168052349D01*
X122448545Y-168168355D01*
X122610419Y-168316272D01*
X122743413Y-168493583D01*
X122845405Y-168697770D01*
X122875819Y-168782590D01*
X122904265Y-168881019D01*
X122921504Y-168971863D01*
X122930069Y-169072729D01*
X122932402Y-169175834D01*
X122919877Y-169400684D01*
X122877563Y-169599752D01*
X122802824Y-169779727D01*
X122693026Y-169947302D01*
X122577393Y-170077723D01*
X122448339Y-170194397D01*
X122315296Y-170283470D01*
X122163696Y-170353687D01*
X122055186Y-170391216D01*
X121914622Y-170435250D01*
X122528161Y-171165500D01*
X122690334Y-171358762D01*
X122827054Y-171522282D01*
X122940311Y-171658548D01*
X123032097Y-171770052D01*
X123104405Y-171859280D01*
X123159225Y-171928722D01*
X123198549Y-171980867D01*
X123224370Y-172018205D01*
X123238679Y-172043223D01*
X123243468Y-172058411D01*
X123243500Y-172059414D01*
X123222551Y-172060472D01*
X123160579Y-172061513D01*
X123058892Y-172062534D01*
X122918799Y-172063533D01*
X122741610Y-172064508D01*
X122528634Y-172065457D01*
X122281180Y-172066378D01*
X122000558Y-172067268D01*
X121688077Y-172068126D01*
X121345046Y-172068949D01*
X120972775Y-172069735D01*
X120572572Y-172070482D01*
X120145747Y-172071188D01*
X119693609Y-172071851D01*
X119217468Y-172072468D01*
X118718633Y-172073037D01*
X118198413Y-172073557D01*
X117658117Y-172074025D01*
X117099055Y-172074439D01*
X116522536Y-172074796D01*
X115929869Y-172075095D01*
X115322364Y-172075334D01*
X114701329Y-172075510D01*
X114068074Y-172075622D01*
X113423909Y-172075666D01*
X113327610Y-172075667D01*
X103411720Y-172075667D01*
X103399750Y-172551917D01*
X103335489Y-172558212D01*
X103285299Y-172558176D01*
X103256114Y-172549392D01*
X103249940Y-172523208D01*
X103244984Y-172464109D01*
X103241831Y-172381506D01*
X103241000Y-172306290D01*
X103241000Y-172078303D01*
X101637625Y-172070078D01*
X101338423Y-172068512D01*
X101078371Y-172067031D01*
X100854284Y-172065538D01*
X100662979Y-172063938D01*
X100501273Y-172062135D01*
X100365981Y-172060031D01*
X100253921Y-172057532D01*
X100161908Y-172054541D01*
X100086759Y-172050962D01*
X100025290Y-172046699D01*
X99974317Y-172041656D01*
X99930657Y-172035735D01*
X99891127Y-172028843D01*
X99852542Y-172020881D01*
X99828004Y-172015435D01*
X99494690Y-171919854D01*
X99183231Y-171788995D01*
X98895504Y-171624683D01*
X98633384Y-171428739D01*
X98398747Y-171202987D01*
X98193469Y-170949249D01*
X98019425Y-170669348D01*
X97878491Y-170365107D01*
X97772543Y-170038348D01*
X97765642Y-170011321D01*
X97743807Y-169920067D01*
X97728165Y-169841197D01*
X97717690Y-169764176D01*
X97711355Y-169678466D01*
X97708133Y-169573530D01*
X97706999Y-169438830D01*
X97706934Y-169408667D01*
X97709459Y-169214722D01*
X97718803Y-169051237D01*
X97736637Y-168906655D01*
X97764629Y-168769416D01*
X97804449Y-168627963D01*
X97831665Y-168545150D01*
X97959593Y-168234830D01*
X98122954Y-167945680D01*
X98319128Y-167680320D01*
X98545496Y-167441369D01*
X98799438Y-167231447D01*
X99078334Y-167053173D01*
X99379565Y-166909168D01*
X99519983Y-166856832D01*
X99677602Y-166807621D01*
X99826262Y-166772350D01*
X99978382Y-166749172D01*
X100146383Y-166736241D01*
X100342685Y-166731712D01*
X100362333Y-166731653D01*
X100561724Y-166734870D01*
G37*
X100561724Y-166734870D02*
X100732118Y-166746520D01*
X100886349Y-166768537D01*
X101037253Y-166802853D01*
X101197665Y-166851402D01*
X101230167Y-166862357D01*
X101533480Y-166987832D01*
X101816683Y-167148695D01*
X102077111Y-167341832D01*
X102312101Y-167564127D01*
X102518988Y-167812467D01*
X102695110Y-168083738D01*
X102837801Y-168374824D01*
X102944399Y-168682613D01*
X103000799Y-168932417D01*
X103030667Y-169192520D01*
X103033857Y-169465055D01*
X103011255Y-169737108D01*
X102963746Y-169995765D01*
X102916578Y-170160651D01*
X102890160Y-170236443D01*
X102869394Y-170280985D01*
X102846722Y-170303244D01*
X102814588Y-170312189D01*
X102786528Y-170314989D01*
X102735012Y-170317208D01*
X102715596Y-170307748D01*
X102718384Y-170280261D01*
X102720554Y-170272656D01*
X102799063Y-169969003D01*
X102848252Y-169688081D01*
X102868433Y-169422387D01*
X102859917Y-169164420D01*
X102823019Y-168906676D01*
X102784473Y-168737676D01*
X102730635Y-168566372D01*
X102656073Y-168380038D01*
X102568279Y-168195203D01*
X102474745Y-168028398D01*
X102435330Y-167967366D01*
X102287963Y-167776844D01*
X102109487Y-167589304D01*
X101910619Y-167414256D01*
X101702079Y-167261210D01*
X101513459Y-167149348D01*
X101221440Y-167020230D01*
X100921933Y-166930943D01*
X100618274Y-166880390D01*
X100313800Y-166867475D01*
X100011847Y-166891104D01*
X99715753Y-166950181D01*
X99428854Y-167043610D01*
X99154488Y-167170295D01*
X98895990Y-167329142D01*
X98656698Y-167519053D01*
X98439948Y-167738934D01*
X98249078Y-167987689D01*
X98087423Y-168264222D01*
X98081411Y-168276250D01*
X97973937Y-168525387D01*
X97898423Y-168778967D01*
X97852902Y-169046035D01*
X97835407Y-169335633D01*
X97835155Y-169408667D01*
X97839257Y-169589663D01*
X97850449Y-169742410D01*
X97870897Y-169880707D01*
X97902767Y-170018351D01*
X97948222Y-170169138D01*
X97960099Y-170204965D01*
X98079013Y-170494320D01*
X98233605Y-170765166D01*
X98420375Y-171014546D01*
X98635822Y-171239499D01*
X98876447Y-171437069D01*
X99138750Y-171604296D01*
X99419231Y-171738221D01*
X99714390Y-171835887D01*
X99946445Y-171884052D01*
X99977130Y-171888761D01*
X100006335Y-171892859D01*
X100037071Y-171896384D01*
X100072346Y-171899375D01*
X100115171Y-171901871D01*
X100168556Y-171903912D01*
X100235509Y-171905536D01*
X100319041Y-171906783D01*
X100422162Y-171907690D01*
X100547881Y-171908298D01*
X100699208Y-171908645D01*
X100879152Y-171908770D01*
X101090724Y-171908712D01*
X101336933Y-171908510D01*
X101620788Y-171908203D01*
X101796375Y-171908001D01*
X103241000Y-171906334D01*
X103410333Y-171906334D01*
X103670421Y-171906334D01*
X103576058Y-171834282D01*
X103516028Y-171784265D01*
X103465970Y-171735350D01*
X103447124Y-171712574D01*
X103427728Y-171686926D01*
X103417287Y-171685344D01*
X103412859Y-171713767D01*
X103411504Y-171778135D01*
X103411443Y-171784625D01*
X103410333Y-171906334D01*
X103241000Y-171906334D01*
X103241000Y-171183790D01*
X103410333Y-171183790D01*
X103411818Y-171316042D01*
X103418507Y-171415261D01*
X103433746Y-171490707D01*
X103460885Y-171551641D01*
X103503272Y-171607321D01*
X103564255Y-171667008D01*
X103594966Y-171694396D01*
X103718816Y-171778266D01*
X103853273Y-171824298D01*
X103991951Y-171831558D01*
X104128466Y-171799108D01*
X104172826Y-171779082D01*
X104258677Y-171719034D01*
X104343224Y-171632609D01*
X104414118Y-171534297D01*
X104456494Y-171446305D01*
X104473899Y-171372773D01*
X104485963Y-171278901D01*
X104489833Y-171196860D01*
X104486238Y-171102268D01*
X104472079Y-171027722D01*
X104442300Y-170951293D01*
X104424887Y-170915292D01*
X104339570Y-170783490D01*
X104233172Y-170681655D01*
X104111291Y-170612428D01*
X103979524Y-170578450D01*
X103843469Y-170582362D01*
X103763774Y-170603397D01*
X103653133Y-170656448D01*
X103550097Y-170729951D01*
X103470599Y-170812215D01*
X103460995Y-170825605D01*
X103440364Y-170858809D01*
X103426235Y-170892686D01*
X103417388Y-170935857D01*
X103412603Y-170996946D01*
X103410660Y-171084575D01*
X103410333Y-171183790D01*
X103241000Y-171183790D01*
X103241000Y-170467807D01*
X103292713Y-170454827D01*
X103341115Y-170449162D01*
X103370480Y-170466167D01*
X103385073Y-170512163D01*
X103389161Y-170593471D01*
X103389167Y-170597740D01*
X103389167Y-170725981D01*
X103479125Y-170635529D01*
X103609400Y-170532334D01*
X103754016Y-170466150D01*
X103906772Y-170436971D01*
X104061468Y-170444793D01*
X104211901Y-170489612D01*
X104351872Y-170571421D01*
X104426264Y-170636264D01*
X104482620Y-170703612D01*
X104540567Y-170790179D01*
X104581882Y-170865965D01*
X104613131Y-170935607D01*
X104632732Y-170993683D01*
X104643325Y-171054245D01*
X104647550Y-171131344D01*
X104648112Y-171218417D01*
X104646479Y-171322345D01*
X104640469Y-171398034D01*
X104627591Y-171459537D01*
X104605356Y-171520906D01*
X104587275Y-171561790D01*
X104503814Y-171699879D01*
X104414389Y-171799915D01*
X104301867Y-171906334D01*
X105300518Y-171906334D01*
X105217208Y-171845984D01*
X105092217Y-171733832D01*
X104993428Y-171595029D01*
X104957408Y-171525334D01*
X104931125Y-171463867D01*
X104914761Y-171406398D01*
X104906081Y-171339561D01*
X104902853Y-171249986D01*
X104902583Y-171197250D01*
X104903303Y-171144334D01*
X105061333Y-171144334D01*
X106207697Y-171144334D01*
X106193130Y-171075542D01*
X106144539Y-170929642D01*
X106066740Y-170797774D01*
X105966389Y-170688581D01*
X105850141Y-170610708D01*
X105827347Y-170600393D01*
X105737668Y-170577188D01*
X105627882Y-170568901D01*
X105517287Y-170575554D01*
X105425183Y-170597167D01*
X105418212Y-170599950D01*
X105316701Y-170659288D01*
X105222895Y-170744473D01*
X105144269Y-170845543D01*
X105088293Y-170952532D01*
X105062442Y-171055478D01*
X105061540Y-171075542D01*
X105061333Y-171144334D01*
X104903303Y-171144334D01*
X104904001Y-171093169D01*
X104909756Y-171018056D01*
X104922105Y-170958601D01*
X104943301Y-170901490D01*
X104958154Y-170869167D01*
X105048328Y-170718194D01*
X105160882Y-170600238D01*
X105301515Y-170509408D01*
X105310485Y-170504931D01*
X105390016Y-170468369D01*
X105455061Y-170447496D01*
X105524193Y-170438232D01*
X105615983Y-170436496D01*
X105621805Y-170436536D01*
X105755913Y-170445123D01*
X105867405Y-170472244D01*
X105973934Y-170523373D01*
X106040923Y-170566546D01*
X106142753Y-170659032D01*
X106230851Y-170781177D01*
X106299110Y-170921003D01*
X106341427Y-171066529D01*
X106352500Y-171177969D01*
X106352500Y-171271334D01*
X105055923Y-171271334D01*
X105070305Y-171361292D01*
X105109977Y-171486415D01*
X105185875Y-171609022D01*
X105274166Y-171703786D01*
X105372373Y-171779461D01*
X105470432Y-171823269D01*
X105584542Y-171841392D01*
X105638581Y-171842834D01*
X105777816Y-171826085D01*
X105903387Y-171778697D01*
X106006110Y-171704953D01*
X106053276Y-171649372D01*
X106092687Y-171598755D01*
X106125434Y-171578304D01*
X106162000Y-171579877D01*
X106208566Y-171594807D01*
X106231236Y-171607709D01*
X106232140Y-171635515D01*
X106207255Y-171682170D01*
X106163027Y-171739079D01*
X106105899Y-171797647D01*
X106059571Y-171836649D01*
X105968209Y-171906334D01*
X106648277Y-171906334D01*
X106653847Y-171181375D01*
X106659417Y-170456417D01*
X106786417Y-170456417D01*
X106792660Y-170611105D01*
X106798904Y-170765794D01*
X106896111Y-170657677D01*
X107000247Y-170558749D01*
X107106986Y-170494770D01*
X107227623Y-170459254D01*
X107247288Y-170456029D01*
X107347333Y-170441027D01*
X107347333Y-170514145D01*
X107345144Y-170556059D01*
X107331865Y-170580828D01*
X107297432Y-170597000D01*
X107231782Y-170613123D01*
X107230429Y-170613426D01*
X107095270Y-170664586D01*
X106971853Y-170752490D01*
X106871621Y-170866300D01*
X106807583Y-170957350D01*
X106794749Y-171906334D01*
X107689248Y-171906334D01*
X107682705Y-171900828D01*
X108355354Y-171900828D01*
X108381137Y-171905296D01*
X108441811Y-171906318D01*
X108465202Y-171906334D01*
X108536737Y-171905394D01*
X108573907Y-171900611D01*
X108584670Y-171889038D01*
X108576982Y-171867726D01*
X108575745Y-171865392D01*
X108557402Y-171809439D01*
X108553833Y-171776765D01*
X108553833Y-171729080D01*
X108495625Y-171782711D01*
X108440371Y-171829880D01*
X108386873Y-171870131D01*
X108385082Y-171871337D01*
X108358618Y-171890360D01*
X108355354Y-171900828D01*
X107682705Y-171900828D01*
X107621112Y-171849001D01*
X107544892Y-171760393D01*
X107495508Y-171651731D01*
X107475112Y-171534293D01*
X107478318Y-171499996D01*
X107622500Y-171499996D01*
X107642227Y-171613810D01*
X107697278Y-171713799D01*
X107781460Y-171790321D01*
X107823583Y-171812954D01*
X107900915Y-171833205D01*
X108002259Y-171840816D01*
X108111263Y-171835904D01*
X108211573Y-171818588D01*
X108240678Y-171809935D01*
X108331548Y-171767001D01*
X108418952Y-171705360D01*
X108490206Y-171635415D01*
X108530904Y-171571921D01*
X108543856Y-171516689D01*
X108550197Y-171439775D01*
X108549699Y-171385865D01*
X108544951Y-171315826D01*
X108535019Y-171275563D01*
X108512588Y-171252574D01*
X108470347Y-171234357D01*
X108458583Y-171230079D01*
X108384748Y-171213278D01*
X108275843Y-171202459D01*
X108141083Y-171198326D01*
X108032376Y-171198979D01*
X107954623Y-171203212D01*
X107896493Y-171212662D01*
X107846651Y-171228968D01*
X107808506Y-171246377D01*
X107716303Y-171309317D01*
X107652608Y-171389678D01*
X107623611Y-171479021D01*
X107622500Y-171499996D01*
X107478318Y-171499996D01*
X107485859Y-171419359D01*
X107522087Y-171330397D01*
X107610821Y-171223907D01*
X107730591Y-171145718D01*
X107880672Y-171096148D01*
X108060337Y-171075513D01*
X108109333Y-171074909D01*
X108277768Y-171083884D01*
X108425287Y-171107641D01*
X108518483Y-171135298D01*
X108544140Y-171129574D01*
X108556205Y-171092752D01*
X108556178Y-171033285D01*
X108545555Y-170959628D01*
X108525833Y-170880235D01*
X108498510Y-170803560D01*
X108465083Y-170738058D01*
X108442746Y-170707667D01*
X108362776Y-170632032D01*
X108277060Y-170587046D01*
X108172302Y-170567023D01*
X108108269Y-170564593D01*
X108029610Y-170567464D01*
X107961757Y-170579477D01*
X107888525Y-170604815D01*
X107801940Y-170643750D01*
X107720999Y-170681400D01*
X107669322Y-170702086D01*
X107638263Y-170707682D01*
X107619174Y-170700062D01*
X107606926Y-170686005D01*
X107589056Y-170654197D01*
X107591758Y-170627205D01*
X107620065Y-170599048D01*
X107679013Y-170563747D01*
X107733752Y-170535348D01*
X107903165Y-170467197D01*
X108067143Y-170434848D01*
X108221520Y-170437127D01*
X108362133Y-170472861D01*
X108484819Y-170540876D01*
X108585412Y-170639999D01*
X108659751Y-170769055D01*
X108671579Y-170799689D01*
X108682616Y-170847028D01*
X108690870Y-170921551D01*
X108696558Y-171027132D01*
X108699896Y-171167645D01*
X108701071Y-171326950D01*
X108701842Y-171480180D01*
X108703678Y-171596341D01*
X108706941Y-171680694D01*
X108711994Y-171738496D01*
X108719200Y-171775009D01*
X108728923Y-171795491D01*
X108733750Y-171800500D01*
X108760920Y-171842292D01*
X108765500Y-171866592D01*
X108768662Y-171883608D01*
X108782861Y-171894945D01*
X108815165Y-171901740D01*
X108872645Y-171905132D01*
X108962368Y-171906261D01*
X109012197Y-171906334D01*
X109258894Y-171906334D01*
X109218572Y-171861813D01*
X109206816Y-171846273D01*
X109197491Y-171825299D01*
X109190248Y-171794013D01*
X109184743Y-171747539D01*
X109180629Y-171681000D01*
X109177559Y-171589518D01*
X109175187Y-171468216D01*
X109173166Y-171312217D01*
X109172047Y-171206769D01*
X109165845Y-170596245D01*
X109066214Y-170589831D01*
X109004472Y-170583047D01*
X108973262Y-170568925D01*
X108960798Y-170541180D01*
X108959440Y-170532894D01*
X108964887Y-170484846D01*
X109000857Y-170457009D01*
X109071707Y-170446449D01*
X109088292Y-170446158D01*
X109167667Y-170445834D01*
X109167667Y-170202820D01*
X109167979Y-170098446D01*
X109169940Y-170028800D01*
X109175086Y-169986279D01*
X109184952Y-169963278D01*
X109201077Y-169952193D01*
X109219380Y-169946827D01*
X109267466Y-169941869D01*
X109293463Y-169947673D01*
X109303578Y-169974843D01*
X109310961Y-170038534D01*
X109315108Y-170132991D01*
X109315833Y-170202810D01*
X109315833Y-170444121D01*
X109665083Y-170456417D01*
X109665083Y-170583417D01*
X109313899Y-170595743D01*
X109320158Y-171168104D01*
X109322169Y-171338946D01*
X109324286Y-171472410D01*
X109326910Y-171573450D01*
X109330439Y-171647022D01*
X109335271Y-171698079D01*
X109341807Y-171731577D01*
X109350445Y-171752469D01*
X109361583Y-171765710D01*
X109368750Y-171771402D01*
X109449480Y-171810114D01*
X109543634Y-171815451D01*
X109656537Y-171787384D01*
X109701831Y-171769509D01*
X109734265Y-171773867D01*
X109760306Y-171804553D01*
X109772682Y-171845572D01*
X109764123Y-171880927D01*
X109755862Y-171888378D01*
X109760332Y-171897258D01*
X109800307Y-171903478D01*
X109868991Y-171906002D01*
X109871458Y-171906009D01*
X110014333Y-171906334D01*
X110014333Y-170467807D01*
X110066047Y-170454827D01*
X110114133Y-170449869D01*
X110140130Y-170455673D01*
X110147164Y-170480850D01*
X110152864Y-170547038D01*
X110157237Y-170654505D01*
X110160293Y-170803521D01*
X110162039Y-170994355D01*
X110162500Y-171187916D01*
X110162500Y-171906334D01*
X110909685Y-171906334D01*
X110825396Y-171845275D01*
X110695898Y-171730140D01*
X110602144Y-171596764D01*
X110542493Y-171441738D01*
X110515304Y-171261654D01*
X110513542Y-171207834D01*
X110681354Y-171207834D01*
X110682806Y-171309558D01*
X110689017Y-171382329D01*
X110702280Y-171439455D01*
X110724889Y-171494243D01*
X110733800Y-171512142D01*
X110813378Y-171628822D01*
X110918791Y-171726076D01*
X111040378Y-171797394D01*
X111168481Y-171836265D01*
X111222283Y-171841359D01*
X111274578Y-171836198D01*
X111345650Y-171821425D01*
X111381958Y-171811560D01*
X111512864Y-171751533D01*
X111623615Y-171658502D01*
X111709895Y-171538722D01*
X111767386Y-171398449D01*
X111791773Y-171243937D01*
X111792316Y-171216896D01*
X111779688Y-171059505D01*
X111739376Y-170926829D01*
X111667795Y-170808778D01*
X111632258Y-170766331D01*
X111515924Y-170663985D01*
X111389598Y-170600445D01*
X111258166Y-170574883D01*
X111126509Y-170586473D01*
X110999513Y-170634384D01*
X110882060Y-170717791D01*
X110779034Y-170835865D01*
X110727967Y-170919618D01*
X110704814Y-170971001D01*
X110690663Y-171026901D01*
X110683513Y-171099684D01*
X110681366Y-171201714D01*
X110681354Y-171207834D01*
X110513542Y-171207834D01*
X110513180Y-171196805D01*
X110513892Y-171100274D01*
X110519890Y-171030356D01*
X110534379Y-170971382D01*
X110560566Y-170907682D01*
X110581052Y-170865088D01*
X110663031Y-170733164D01*
X110767790Y-170617290D01*
X110885794Y-170526499D01*
X110993047Y-170474522D01*
X111162020Y-170437029D01*
X111327343Y-170439726D01*
X111484173Y-170480489D01*
X111627670Y-170557192D01*
X111752991Y-170667709D01*
X111855295Y-170809915D01*
X111884309Y-170865809D01*
X111916539Y-170938065D01*
X111936383Y-170998525D01*
X111946776Y-171062238D01*
X111950658Y-171144252D01*
X111951083Y-171207834D01*
X111949386Y-171310674D01*
X111942628Y-171385605D01*
X111928309Y-171446971D01*
X111903928Y-171509120D01*
X111895306Y-171527874D01*
X111831674Y-171638778D01*
X111750721Y-171743961D01*
X111663613Y-171830027D01*
X111612417Y-171867298D01*
X111590543Y-171881357D01*
X111581099Y-171891539D01*
X111588938Y-171898472D01*
X111618915Y-171902782D01*
X111675884Y-171905097D01*
X111764701Y-171906043D01*
X111890220Y-171906248D01*
X111914042Y-171906254D01*
X112279167Y-171906334D01*
X112279167Y-171461154D01*
X112448500Y-171461154D01*
X112448500Y-171906334D01*
X113358667Y-171906334D01*
X113358225Y-171456542D01*
X113356115Y-171246330D01*
X113349560Y-171074124D01*
X113337546Y-170935734D01*
X113319060Y-170826972D01*
X113293087Y-170743648D01*
X113258612Y-170681574D01*
X113214623Y-170636561D01*
X113160104Y-170604420D01*
X113150969Y-170600456D01*
X113046152Y-170578113D01*
X112928083Y-170588483D01*
X112806130Y-170628492D01*
X112689657Y-170695066D01*
X112588030Y-170785133D01*
X112587975Y-170785193D01*
X112544392Y-170835402D01*
X112510965Y-170881652D01*
X112486352Y-170930448D01*
X112469210Y-170988297D01*
X112458196Y-171061704D01*
X112451969Y-171157175D01*
X112449186Y-171281216D01*
X112448504Y-171440333D01*
X112448500Y-171461154D01*
X112279167Y-171461154D01*
X112279167Y-170467807D01*
X112330880Y-170454827D01*
X112376806Y-170448950D01*
X112405662Y-170463505D01*
X112421135Y-170504845D01*
X112426911Y-170579319D01*
X112427333Y-170620985D01*
X112427333Y-170772471D01*
X112538458Y-170663234D01*
X112664997Y-170559373D01*
X112798474Y-170486179D01*
X112933629Y-170443468D01*
X113065202Y-170431057D01*
X113187935Y-170448763D01*
X113296567Y-170496404D01*
X113385839Y-170573795D01*
X113450491Y-170680754D01*
X113456199Y-170695178D01*
X113468065Y-170732465D01*
X113477482Y-170777740D01*
X113484836Y-170836573D01*
X113490516Y-170914535D01*
X113494909Y-171017197D01*
X113498405Y-171150128D01*
X113501391Y-171318899D01*
X113501863Y-171350709D01*
X113509950Y-171906334D01*
X113746516Y-171905696D01*
X113983083Y-171905058D01*
X113987308Y-171894360D01*
X114628667Y-171894360D01*
X114649199Y-171896588D01*
X114708261Y-171898681D01*
X114802049Y-171900601D01*
X114926758Y-171902309D01*
X115078585Y-171903766D01*
X115253726Y-171904933D01*
X115448377Y-171905771D01*
X115658735Y-171906243D01*
X115803417Y-171906334D01*
X116022011Y-171906208D01*
X116227394Y-171905848D01*
X116415761Y-171905275D01*
X116583310Y-171904513D01*
X116726236Y-171903587D01*
X116840735Y-171902517D01*
X116923004Y-171901329D01*
X116969239Y-171900044D01*
X116978167Y-171899161D01*
X116970476Y-171878498D01*
X116948748Y-171823655D01*
X116914997Y-171739625D01*
X116871236Y-171631401D01*
X116819480Y-171503974D01*
X116761742Y-171362337D01*
X116749739Y-171332953D01*
X116521312Y-170773917D01*
X115801982Y-170768353D01*
X115082653Y-170762789D01*
X115059467Y-170821270D01*
X115045301Y-170856512D01*
X115017628Y-170924937D01*
X114978892Y-171020516D01*
X114931539Y-171137219D01*
X114878013Y-171269017D01*
X114832474Y-171381068D01*
X114777237Y-171517388D01*
X114727684Y-171640541D01*
X114685941Y-171745177D01*
X114654133Y-171825941D01*
X114634384Y-171877483D01*
X114628667Y-171894360D01*
X113987308Y-171894360D01*
X114667452Y-170172355D01*
X115327167Y-170172355D01*
X115347509Y-170178335D01*
X115405247Y-170183464D01*
X115495448Y-170187541D01*
X115613180Y-170190365D01*
X115753511Y-170191735D01*
X115805681Y-170191834D01*
X115966050Y-170191344D01*
X116088149Y-170189722D01*
X116176036Y-170186739D01*
X116233763Y-170182167D01*
X116265387Y-170175777D01*
X116274961Y-170167339D01*
X116274584Y-170165375D01*
X116265553Y-170139640D01*
X116244356Y-170078807D01*
X116212695Y-169987775D01*
X116172273Y-169871443D01*
X116124793Y-169734710D01*
X116071956Y-169582475D01*
X116034845Y-169475507D01*
X115979847Y-169318546D01*
X115929011Y-169176507D01*
X115883997Y-169053787D01*
X115846462Y-168954786D01*
X115818066Y-168883905D01*
X115800468Y-168845541D01*
X115795420Y-168840507D01*
X115786248Y-168866750D01*
X115764590Y-168927869D01*
X115732223Y-169018883D01*
X115690919Y-169134809D01*
X115642454Y-169270664D01*
X115588603Y-169421466D01*
X115556644Y-169510896D01*
X115500927Y-169667354D01*
X115450090Y-169811229D01*
X115405832Y-169937633D01*
X115369846Y-170041676D01*
X115343829Y-170118472D01*
X115329478Y-170163131D01*
X115327167Y-170172355D01*
X114667452Y-170172355D01*
X114779144Y-169889571D01*
X115575204Y-167874084D01*
X115797908Y-167868101D01*
X116020612Y-167862119D01*
X116073190Y-167995101D01*
X116088461Y-168033723D01*
X116118133Y-168108763D01*
X116161041Y-168217274D01*
X116216019Y-168356308D01*
X116281901Y-168522916D01*
X116357521Y-168714150D01*
X116441713Y-168927062D01*
X116533312Y-169158704D01*
X116631151Y-169406127D01*
X116734065Y-169666383D01*
X116840888Y-169936524D01*
X116872794Y-170017209D01*
X117619820Y-171906334D01*
X117782500Y-171906334D01*
X117782500Y-171356977D01*
X118158208Y-171351197D01*
X118533917Y-171345417D01*
X118539357Y-169922448D01*
X118544797Y-168499478D01*
X118168940Y-168493698D01*
X117793083Y-168487917D01*
X117787181Y-168208015D01*
X117785037Y-168094655D01*
X117784908Y-168016614D01*
X117787809Y-167966886D01*
X117794758Y-167938468D01*
X117806772Y-167924357D01*
X117824866Y-167917548D01*
X117829514Y-167916395D01*
X117859992Y-167914141D01*
X117928396Y-167912276D01*
X118030323Y-167910825D01*
X118161368Y-167909813D01*
X118317125Y-167909264D01*
X118493190Y-167909203D01*
X118685159Y-167909654D01*
X118872583Y-167910547D01*
X119867417Y-167916417D01*
X119873305Y-168207458D01*
X119879194Y-168498500D01*
X119137167Y-168498500D01*
X119137167Y-171356000D01*
X119878000Y-171356000D01*
X119878000Y-171906334D01*
X120153167Y-171906334D01*
X120745581Y-171906334D01*
X122383046Y-171906334D01*
X122339751Y-171858709D01*
X122318022Y-171833349D01*
X122272106Y-171778661D01*
X122204762Y-171697962D01*
X122118748Y-171594575D01*
X122016823Y-171471819D01*
X121901747Y-171333015D01*
X121776278Y-171181482D01*
X121643174Y-171020542D01*
X121616395Y-170988140D01*
X120936333Y-170165196D01*
X120936333Y-169899847D01*
X121364958Y-169889911D01*
X121530532Y-169885297D01*
X121660685Y-169879206D01*
X121762330Y-169870355D01*
X121842378Y-169857463D01*
X121907742Y-169839248D01*
X121965335Y-169814429D01*
X122022068Y-169781723D01*
X122051336Y-169762638D01*
X122169849Y-169659998D01*
X122257066Y-169535831D01*
X122313265Y-169396601D01*
X122338724Y-169248773D01*
X122333721Y-169098809D01*
X122298532Y-168953173D01*
X122233437Y-168818329D01*
X122138712Y-168700740D01*
X122014636Y-168606870D01*
X122001367Y-168599440D01*
X121930677Y-168566313D01*
X121851363Y-168540859D01*
X121757520Y-168522377D01*
X121643244Y-168510163D01*
X121502630Y-168503515D01*
X121329776Y-168501731D01*
X121190333Y-168502945D01*
X120756417Y-168509084D01*
X120745581Y-171906334D01*
X120153167Y-171906334D01*
X120153167Y-167905834D01*
X120955638Y-167905834D01*
X121193112Y-167906245D01*
X121392992Y-167907836D01*
X121560011Y-167911136D01*
X121698902Y-167916678D01*
X121814400Y-167924994D01*
X121911237Y-167936615D01*
X121994147Y-167952074D01*
X122067865Y-167971901D01*
X122137123Y-167996629D01*
X122206655Y-168026789D01*
X122259917Y-168052349D01*
X122448545Y-168168355D01*
X122610419Y-168316272D01*
X122743413Y-168493583D01*
X122845405Y-168697770D01*
X122875819Y-168782590D01*
X122904265Y-168881019D01*
X122921504Y-168971863D01*
X122930069Y-169072729D01*
X122932402Y-169175834D01*
X122919877Y-169400684D01*
X122877563Y-169599752D01*
X122802824Y-169779727D01*
X122693026Y-169947302D01*
X122577393Y-170077723D01*
X122448339Y-170194397D01*
X122315296Y-170283470D01*
X122163696Y-170353687D01*
X122055186Y-170391216D01*
X121914622Y-170435250D01*
X122528161Y-171165500D01*
X122690334Y-171358762D01*
X122827054Y-171522282D01*
X122940311Y-171658548D01*
X123032097Y-171770052D01*
X123104405Y-171859280D01*
X123159225Y-171928722D01*
X123198549Y-171980867D01*
X123224370Y-172018205D01*
X123238679Y-172043223D01*
X123243468Y-172058411D01*
X123243500Y-172059414D01*
X123222551Y-172060472D01*
X123160579Y-172061513D01*
X123058892Y-172062534D01*
X122918799Y-172063533D01*
X122741610Y-172064508D01*
X122528634Y-172065457D01*
X122281180Y-172066378D01*
X122000558Y-172067268D01*
X121688077Y-172068126D01*
X121345046Y-172068949D01*
X120972775Y-172069735D01*
X120572572Y-172070482D01*
X120145747Y-172071188D01*
X119693609Y-172071851D01*
X119217468Y-172072468D01*
X118718633Y-172073037D01*
X118198413Y-172073557D01*
X117658117Y-172074025D01*
X117099055Y-172074439D01*
X116522536Y-172074796D01*
X115929869Y-172075095D01*
X115322364Y-172075334D01*
X114701329Y-172075510D01*
X114068074Y-172075622D01*
X113423909Y-172075666D01*
X113327610Y-172075667D01*
X103411720Y-172075667D01*
X103399750Y-172551917D01*
X103335489Y-172558212D01*
X103285299Y-172558176D01*
X103256114Y-172549392D01*
X103249940Y-172523208D01*
X103244984Y-172464109D01*
X103241831Y-172381506D01*
X103241000Y-172306290D01*
X103241000Y-172078303D01*
X101637625Y-172070078D01*
X101338423Y-172068512D01*
X101078371Y-172067031D01*
X100854284Y-172065538D01*
X100662979Y-172063938D01*
X100501273Y-172062135D01*
X100365981Y-172060031D01*
X100253921Y-172057532D01*
X100161908Y-172054541D01*
X100086759Y-172050962D01*
X100025290Y-172046699D01*
X99974317Y-172041656D01*
X99930657Y-172035735D01*
X99891127Y-172028843D01*
X99852542Y-172020881D01*
X99828004Y-172015435D01*
X99494690Y-171919854D01*
X99183231Y-171788995D01*
X98895504Y-171624683D01*
X98633384Y-171428739D01*
X98398747Y-171202987D01*
X98193469Y-170949249D01*
X98019425Y-170669348D01*
X97878491Y-170365107D01*
X97772543Y-170038348D01*
X97765642Y-170011321D01*
X97743807Y-169920067D01*
X97728165Y-169841197D01*
X97717690Y-169764176D01*
X97711355Y-169678466D01*
X97708133Y-169573530D01*
X97706999Y-169438830D01*
X97706934Y-169408667D01*
X97709459Y-169214722D01*
X97718803Y-169051237D01*
X97736637Y-168906655D01*
X97764629Y-168769416D01*
X97804449Y-168627963D01*
X97831665Y-168545150D01*
X97959593Y-168234830D01*
X98122954Y-167945680D01*
X98319128Y-167680320D01*
X98545496Y-167441369D01*
X98799438Y-167231447D01*
X99078334Y-167053173D01*
X99379565Y-166909168D01*
X99519983Y-166856832D01*
X99677602Y-166807621D01*
X99826262Y-166772350D01*
X99978382Y-166749172D01*
X100146383Y-166736241D01*
X100342685Y-166731712D01*
X100362333Y-166731653D01*
X100561724Y-166734870D01*
G36*
X122265864Y-173448062D02*
G01*
X122269833Y-173472667D01*
X122260969Y-173507062D01*
X122248667Y-173515000D01*
X122231469Y-173497272D01*
X122227500Y-173472667D01*
X122236364Y-173438272D01*
X122248667Y-173430334D01*
X122265864Y-173448062D01*
G37*
X122265864Y-173448062D02*
X122269833Y-173472667D01*
X122260969Y-173507062D01*
X122248667Y-173515000D01*
X122231469Y-173497272D01*
X122227500Y-173472667D01*
X122236364Y-173438272D01*
X122248667Y-173430334D01*
X122265864Y-173448062D01*
G36*
X121080531Y-173448062D02*
G01*
X121084500Y-173472667D01*
X121075636Y-173507062D01*
X121063333Y-173515000D01*
X121046136Y-173497272D01*
X121042167Y-173472667D01*
X121051031Y-173438272D01*
X121063333Y-173430334D01*
X121080531Y-173448062D01*
G37*
X121080531Y-173448062D02*
X121084500Y-173472667D01*
X121075636Y-173507062D01*
X121063333Y-173515000D01*
X121046136Y-173497272D01*
X121042167Y-173472667D01*
X121051031Y-173438272D01*
X121063333Y-173430334D01*
X121080531Y-173448062D01*
G36*
X117161196Y-173466328D02*
G01*
X117164927Y-173479713D01*
X117155809Y-173509922D01*
X117138469Y-173515000D01*
X117110989Y-173497195D01*
X117105167Y-173470903D01*
X117116319Y-173439870D01*
X117139922Y-173439071D01*
X117161196Y-173466328D01*
G37*
X117161196Y-173466328D02*
X117164927Y-173479713D01*
X117155809Y-173509922D01*
X117138469Y-173515000D01*
X117110989Y-173497195D01*
X117105167Y-173470903D01*
X117116319Y-173439870D01*
X117139922Y-173439071D01*
X117161196Y-173466328D01*
G36*
X123208635Y-173629341D02*
G01*
X123222333Y-173642000D01*
X123243115Y-173668822D01*
X123255867Y-173705176D01*
X123262417Y-173761114D01*
X123264592Y-173846687D01*
X123264667Y-173874834D01*
X123262446Y-173966113D01*
X123256301Y-174031226D01*
X123247001Y-174063223D01*
X123243500Y-174065334D01*
X123232616Y-174045773D01*
X123225104Y-173993421D01*
X123222333Y-173918545D01*
X123218550Y-173806683D01*
X123205645Y-173730994D01*
X123181280Y-173685862D01*
X123143120Y-173665673D01*
X123116062Y-173663167D01*
X123042547Y-173682792D01*
X122999121Y-173715121D01*
X122971081Y-173748618D01*
X122955325Y-173787188D01*
X122948485Y-173843868D01*
X122947167Y-173916205D01*
X122944386Y-173992578D01*
X122936927Y-174045394D01*
X122926112Y-174065332D01*
X122926000Y-174065334D01*
X122916311Y-174045149D01*
X122909263Y-173988420D01*
X122905401Y-173900882D01*
X122904833Y-173843084D01*
X122906756Y-173741353D01*
X122912158Y-173667345D01*
X122920495Y-173626797D01*
X122926000Y-173620834D01*
X122945158Y-173637808D01*
X122947167Y-173650302D01*
X122954970Y-173665354D01*
X122983837Y-173659398D01*
X123025725Y-173639718D01*
X123103232Y-173607498D01*
X123160531Y-173603996D01*
X123208635Y-173629341D01*
G37*
X123208635Y-173629341D02*
X123222333Y-173642000D01*
X123243115Y-173668822D01*
X123255867Y-173705176D01*
X123262417Y-173761114D01*
X123264592Y-173846687D01*
X123264667Y-173874834D01*
X123262446Y-173966113D01*
X123256301Y-174031226D01*
X123247001Y-174063223D01*
X123243500Y-174065334D01*
X123232616Y-174045773D01*
X123225104Y-173993421D01*
X123222333Y-173918545D01*
X123218550Y-173806683D01*
X123205645Y-173730994D01*
X123181280Y-173685862D01*
X123143120Y-173665673D01*
X123116062Y-173663167D01*
X123042547Y-173682792D01*
X122999121Y-173715121D01*
X122971081Y-173748618D01*
X122955325Y-173787188D01*
X122948485Y-173843868D01*
X122947167Y-173916205D01*
X122944386Y-173992578D01*
X122936927Y-174045394D01*
X122926112Y-174065332D01*
X122926000Y-174065334D01*
X122916311Y-174045149D01*
X122909263Y-173988420D01*
X122905401Y-173900882D01*
X122904833Y-173843084D01*
X122906756Y-173741353D01*
X122912158Y-173667345D01*
X122920495Y-173626797D01*
X122926000Y-173620834D01*
X122945158Y-173637808D01*
X122947167Y-173650302D01*
X122954970Y-173665354D01*
X122983837Y-173659398D01*
X123025725Y-173639718D01*
X123103232Y-173607498D01*
X123160531Y-173603996D01*
X123208635Y-173629341D01*
G36*
X122629395Y-173611201D02*
G01*
X122707157Y-173646055D01*
X122768831Y-173707093D01*
X122806583Y-173786244D01*
X122812577Y-173875435D01*
X122810833Y-173886199D01*
X122777010Y-173963097D01*
X122714708Y-174022276D01*
X122635417Y-174058369D01*
X122550628Y-174066011D01*
X122476208Y-174042471D01*
X122428729Y-173994598D01*
X122392813Y-173921054D01*
X122380138Y-173858449D01*
X122429813Y-173858449D01*
X122450069Y-173929438D01*
X122493409Y-173983522D01*
X122552182Y-174015065D01*
X122618744Y-174018432D01*
X122685445Y-173987987D01*
X122704712Y-173971046D01*
X122744844Y-173906864D01*
X122755301Y-173833756D01*
X122739555Y-173762500D01*
X122701075Y-173703874D01*
X122643333Y-173668657D01*
X122605572Y-173663167D01*
X122523123Y-173676378D01*
X122468303Y-173719017D01*
X122440286Y-173776190D01*
X122429813Y-173858449D01*
X122380138Y-173858449D01*
X122376061Y-173838313D01*
X122375667Y-173824592D01*
X122394040Y-173745557D01*
X122441793Y-173673742D01*
X122507873Y-173623246D01*
X122543379Y-173610606D01*
X122629395Y-173611201D01*
G37*
X122629395Y-173611201D02*
X122707157Y-173646055D01*
X122768831Y-173707093D01*
X122806583Y-173786244D01*
X122812577Y-173875435D01*
X122810833Y-173886199D01*
X122777010Y-173963097D01*
X122714708Y-174022276D01*
X122635417Y-174058369D01*
X122550628Y-174066011D01*
X122476208Y-174042471D01*
X122428729Y-173994598D01*
X122392813Y-173921054D01*
X122380138Y-173858449D01*
X122429813Y-173858449D01*
X122450069Y-173929438D01*
X122493409Y-173983522D01*
X122552182Y-174015065D01*
X122618744Y-174018432D01*
X122685445Y-173987987D01*
X122704712Y-173971046D01*
X122744844Y-173906864D01*
X122755301Y-173833756D01*
X122739555Y-173762500D01*
X122701075Y-173703874D01*
X122643333Y-173668657D01*
X122605572Y-173663167D01*
X122523123Y-173676378D01*
X122468303Y-173719017D01*
X122440286Y-173776190D01*
X122429813Y-173858449D01*
X122380138Y-173858449D01*
X122376061Y-173838313D01*
X122375667Y-173824592D01*
X122394040Y-173745557D01*
X122441793Y-173673742D01*
X122507873Y-173623246D01*
X122543379Y-173610606D01*
X122629395Y-173611201D01*
G36*
X122258355Y-173641018D02*
G01*
X122265404Y-173697747D01*
X122269265Y-173785285D01*
X122269833Y-173843084D01*
X122267911Y-173944814D01*
X122262508Y-174018822D01*
X122254171Y-174059370D01*
X122248667Y-174065334D01*
X122238978Y-174045149D01*
X122231929Y-173988420D01*
X122228068Y-173900882D01*
X122227500Y-173843084D01*
X122229422Y-173741353D01*
X122234825Y-173667345D01*
X122243162Y-173626797D01*
X122248667Y-173620834D01*
X122258355Y-173641018D01*
G37*
X122258355Y-173641018D02*
X122265404Y-173697747D01*
X122269265Y-173785285D01*
X122269833Y-173843084D01*
X122267911Y-173944814D01*
X122262508Y-174018822D01*
X122254171Y-174059370D01*
X122248667Y-174065334D01*
X122238978Y-174045149D01*
X122231929Y-173988420D01*
X122228068Y-173900882D01*
X122227500Y-173843084D01*
X122229422Y-173741353D01*
X122234825Y-173667345D01*
X122243162Y-173626797D01*
X122248667Y-173620834D01*
X122258355Y-173641018D01*
G36*
X122012122Y-173500503D02*
G01*
X122019784Y-173541459D01*
X122032437Y-173592874D01*
X122062535Y-173614741D01*
X122074042Y-173617014D01*
X122114472Y-173631425D01*
X122116986Y-173650263D01*
X122083060Y-173662453D01*
X122067894Y-173663167D01*
X122041606Y-173664598D01*
X122026028Y-173674558D01*
X122018841Y-173701548D01*
X122017728Y-173754070D01*
X122020269Y-173837792D01*
X122026417Y-174012417D01*
X122086017Y-174008241D01*
X122129400Y-174012369D01*
X122137303Y-174029408D01*
X122112427Y-174048675D01*
X122065617Y-174060643D01*
X122017064Y-174062213D01*
X121988614Y-174052226D01*
X121981846Y-174025540D01*
X121976645Y-173967115D01*
X121973801Y-173887538D01*
X121973500Y-173850139D01*
X121972225Y-173758190D01*
X121967577Y-173701238D01*
X121958319Y-173672004D01*
X121943215Y-173663206D01*
X121941750Y-173663167D01*
X121913565Y-173652940D01*
X121910000Y-173644265D01*
X121926845Y-173621126D01*
X121941750Y-173613179D01*
X121965552Y-173583978D01*
X121973500Y-173536831D01*
X121980417Y-173486770D01*
X121995917Y-173474923D01*
X122012122Y-173500503D01*
G37*
X122012122Y-173500503D02*
X122019784Y-173541459D01*
X122032437Y-173592874D01*
X122062535Y-173614741D01*
X122074042Y-173617014D01*
X122114472Y-173631425D01*
X122116986Y-173650263D01*
X122083060Y-173662453D01*
X122067894Y-173663167D01*
X122041606Y-173664598D01*
X122026028Y-173674558D01*
X122018841Y-173701548D01*
X122017728Y-173754070D01*
X122020269Y-173837792D01*
X122026417Y-174012417D01*
X122086017Y-174008241D01*
X122129400Y-174012369D01*
X122137303Y-174029408D01*
X122112427Y-174048675D01*
X122065617Y-174060643D01*
X122017064Y-174062213D01*
X121988614Y-174052226D01*
X121981846Y-174025540D01*
X121976645Y-173967115D01*
X121973801Y-173887538D01*
X121973500Y-173850139D01*
X121972225Y-173758190D01*
X121967577Y-173701238D01*
X121958319Y-173672004D01*
X121943215Y-173663206D01*
X121941750Y-173663167D01*
X121913565Y-173652940D01*
X121910000Y-173644265D01*
X121926845Y-173621126D01*
X121941750Y-173613179D01*
X121965552Y-173583978D01*
X121973500Y-173536831D01*
X121980417Y-173486770D01*
X121995917Y-173474923D01*
X122012122Y-173500503D01*
G36*
X121757927Y-173628467D02*
G01*
X121811018Y-173679068D01*
X121822243Y-173702024D01*
X121836229Y-173755963D01*
X121846058Y-173827409D01*
X121851395Y-173905129D01*
X121851905Y-173977892D01*
X121847253Y-174034464D01*
X121837104Y-174063614D01*
X121833081Y-174065334D01*
X121803399Y-174048656D01*
X121799627Y-174041132D01*
X121783097Y-174027515D01*
X121746338Y-174041132D01*
X121673307Y-174063081D01*
X121594046Y-174061508D01*
X121526751Y-174037795D01*
X121507833Y-174023000D01*
X121471174Y-173961344D01*
X121472258Y-173926753D01*
X121529687Y-173926753D01*
X121542423Y-173980308D01*
X121551133Y-173992415D01*
X121595382Y-174016970D01*
X121657458Y-174020998D01*
X121718413Y-174004935D01*
X121744291Y-173987970D01*
X121775020Y-173940779D01*
X121783000Y-173903706D01*
X121765073Y-173860734D01*
X121716637Y-173837919D01*
X121645704Y-173837869D01*
X121606948Y-173846429D01*
X121552686Y-173878225D01*
X121529687Y-173926753D01*
X121472258Y-173926753D01*
X121473225Y-173895904D01*
X121510100Y-173841072D01*
X121556833Y-173813989D01*
X121625847Y-173802655D01*
X121668850Y-173801870D01*
X121734845Y-173800937D01*
X121768931Y-173793610D01*
X121781478Y-173775604D01*
X121783000Y-173754733D01*
X121764806Y-173705470D01*
X121729342Y-173671318D01*
X121691063Y-173650444D01*
X121655918Y-173648104D01*
X121604974Y-173663998D01*
X121591759Y-173669128D01*
X121538420Y-173687793D01*
X121513635Y-173688452D01*
X121507833Y-173672897D01*
X121526204Y-173649181D01*
X121572146Y-173625218D01*
X121591404Y-173618661D01*
X121681993Y-173607346D01*
X121757927Y-173628467D01*
G37*
X121757927Y-173628467D02*
X121811018Y-173679068D01*
X121822243Y-173702024D01*
X121836229Y-173755963D01*
X121846058Y-173827409D01*
X121851395Y-173905129D01*
X121851905Y-173977892D01*
X121847253Y-174034464D01*
X121837104Y-174063614D01*
X121833081Y-174065334D01*
X121803399Y-174048656D01*
X121799627Y-174041132D01*
X121783097Y-174027515D01*
X121746338Y-174041132D01*
X121673307Y-174063081D01*
X121594046Y-174061508D01*
X121526751Y-174037795D01*
X121507833Y-174023000D01*
X121471174Y-173961344D01*
X121472258Y-173926753D01*
X121529687Y-173926753D01*
X121542423Y-173980308D01*
X121551133Y-173992415D01*
X121595382Y-174016970D01*
X121657458Y-174020998D01*
X121718413Y-174004935D01*
X121744291Y-173987970D01*
X121775020Y-173940779D01*
X121783000Y-173903706D01*
X121765073Y-173860734D01*
X121716637Y-173837919D01*
X121645704Y-173837869D01*
X121606948Y-173846429D01*
X121552686Y-173878225D01*
X121529687Y-173926753D01*
X121472258Y-173926753D01*
X121473225Y-173895904D01*
X121510100Y-173841072D01*
X121556833Y-173813989D01*
X121625847Y-173802655D01*
X121668850Y-173801870D01*
X121734845Y-173800937D01*
X121768931Y-173793610D01*
X121781478Y-173775604D01*
X121783000Y-173754733D01*
X121764806Y-173705470D01*
X121729342Y-173671318D01*
X121691063Y-173650444D01*
X121655918Y-173648104D01*
X121604974Y-173663998D01*
X121591759Y-173669128D01*
X121538420Y-173687793D01*
X121513635Y-173688452D01*
X121507833Y-173672897D01*
X121526204Y-173649181D01*
X121572146Y-173625218D01*
X121591404Y-173618661D01*
X121681993Y-173607346D01*
X121757927Y-173628467D01*
G36*
X121270542Y-173638020D02*
G01*
X121275000Y-173655864D01*
X121278025Y-173679107D01*
X121294317Y-173672750D01*
X121313708Y-173655864D01*
X121355054Y-173631573D01*
X121400699Y-173621394D01*
X121435151Y-173626972D01*
X121444333Y-173642000D01*
X121427405Y-173661255D01*
X121415438Y-173663167D01*
X121379814Y-173675453D01*
X121333124Y-173705205D01*
X121330771Y-173707036D01*
X121301884Y-173733365D01*
X121285149Y-173763487D01*
X121277298Y-173809183D01*
X121275064Y-173882232D01*
X121275000Y-173908120D01*
X121273310Y-173991392D01*
X121267205Y-174040103D01*
X121255137Y-174061929D01*
X121243250Y-174065334D01*
X121228751Y-174058520D01*
X121219319Y-174033523D01*
X121213978Y-173983509D01*
X121211751Y-173901644D01*
X121211500Y-173843084D01*
X121212473Y-173741592D01*
X121216044Y-173675569D01*
X121223189Y-173638180D01*
X121234884Y-173622593D01*
X121243250Y-173620834D01*
X121270542Y-173638020D01*
G37*
X121270542Y-173638020D02*
X121275000Y-173655864D01*
X121278025Y-173679107D01*
X121294317Y-173672750D01*
X121313708Y-173655864D01*
X121355054Y-173631573D01*
X121400699Y-173621394D01*
X121435151Y-173626972D01*
X121444333Y-173642000D01*
X121427405Y-173661255D01*
X121415438Y-173663167D01*
X121379814Y-173675453D01*
X121333124Y-173705205D01*
X121330771Y-173707036D01*
X121301884Y-173733365D01*
X121285149Y-173763487D01*
X121277298Y-173809183D01*
X121275064Y-173882232D01*
X121275000Y-173908120D01*
X121273310Y-173991392D01*
X121267205Y-174040103D01*
X121255137Y-174061929D01*
X121243250Y-174065334D01*
X121228751Y-174058520D01*
X121219319Y-174033523D01*
X121213978Y-173983509D01*
X121211751Y-173901644D01*
X121211500Y-173843084D01*
X121212473Y-173741592D01*
X121216044Y-173675569D01*
X121223189Y-173638180D01*
X121234884Y-173622593D01*
X121243250Y-173620834D01*
X121270542Y-173638020D01*
G36*
X121073022Y-173641018D02*
G01*
X121080070Y-173697747D01*
X121083932Y-173785285D01*
X121084500Y-173843084D01*
X121082577Y-173944814D01*
X121077175Y-174018822D01*
X121068838Y-174059370D01*
X121063333Y-174065334D01*
X121053645Y-174045149D01*
X121046596Y-173988420D01*
X121042734Y-173900882D01*
X121042167Y-173843084D01*
X121044089Y-173741353D01*
X121049492Y-173667345D01*
X121057829Y-173626797D01*
X121063333Y-173620834D01*
X121073022Y-173641018D01*
G37*
X121073022Y-173641018D02*
X121080070Y-173697747D01*
X121083932Y-173785285D01*
X121084500Y-173843084D01*
X121082577Y-173944814D01*
X121077175Y-174018822D01*
X121068838Y-174059370D01*
X121063333Y-174065334D01*
X121053645Y-174045149D01*
X121046596Y-173988420D01*
X121042734Y-173900882D01*
X121042167Y-173843084D01*
X121044089Y-173741353D01*
X121049492Y-173667345D01*
X121057829Y-173626797D01*
X121063333Y-173620834D01*
X121073022Y-173641018D01*
G36*
X120331538Y-173616646D02*
G01*
X120388434Y-173637798D01*
X120400363Y-173647292D01*
X120420851Y-173675180D01*
X120405754Y-173682929D01*
X120354272Y-173670705D01*
X120329218Y-173662337D01*
X120260373Y-173650972D01*
X120201826Y-173663062D01*
X120164338Y-173694256D01*
X120156990Y-173731993D01*
X120170360Y-173763019D01*
X120206280Y-173788463D01*
X120273734Y-173814344D01*
X120285517Y-173818127D01*
X120377021Y-173854950D01*
X120427780Y-173895744D01*
X120439348Y-173942723D01*
X120413276Y-173998101D01*
X120412474Y-173999185D01*
X120375935Y-174035755D01*
X120326687Y-174054362D01*
X120267440Y-174060960D01*
X120179216Y-174057413D01*
X120121450Y-174036232D01*
X120093267Y-174005184D01*
X120100309Y-173988047D01*
X120135803Y-173993398D01*
X120149962Y-174000119D01*
X120211616Y-174019071D01*
X120281209Y-174021151D01*
X120340861Y-174007238D01*
X120366306Y-173989476D01*
X120382193Y-173947547D01*
X120357261Y-173908326D01*
X120290917Y-173871172D01*
X120239184Y-173852236D01*
X120173584Y-173827006D01*
X120124853Y-173801231D01*
X120108561Y-173786957D01*
X120099838Y-173737781D01*
X120118964Y-173678794D01*
X120145611Y-173642000D01*
X120192184Y-173618374D01*
X120260140Y-173610047D01*
X120331538Y-173616646D01*
G37*
X120331538Y-173616646D02*
X120388434Y-173637798D01*
X120400363Y-173647292D01*
X120420851Y-173675180D01*
X120405754Y-173682929D01*
X120354272Y-173670705D01*
X120329218Y-173662337D01*
X120260373Y-173650972D01*
X120201826Y-173663062D01*
X120164338Y-173694256D01*
X120156990Y-173731993D01*
X120170360Y-173763019D01*
X120206280Y-173788463D01*
X120273734Y-173814344D01*
X120285517Y-173818127D01*
X120377021Y-173854950D01*
X120427780Y-173895744D01*
X120439348Y-173942723D01*
X120413276Y-173998101D01*
X120412474Y-173999185D01*
X120375935Y-174035755D01*
X120326687Y-174054362D01*
X120267440Y-174060960D01*
X120179216Y-174057413D01*
X120121450Y-174036232D01*
X120093267Y-174005184D01*
X120100309Y-173988047D01*
X120135803Y-173993398D01*
X120149962Y-174000119D01*
X120211616Y-174019071D01*
X120281209Y-174021151D01*
X120340861Y-174007238D01*
X120366306Y-173989476D01*
X120382193Y-173947547D01*
X120357261Y-173908326D01*
X120290917Y-173871172D01*
X120239184Y-173852236D01*
X120173584Y-173827006D01*
X120124853Y-173801231D01*
X120108561Y-173786957D01*
X120099838Y-173737781D01*
X120118964Y-173678794D01*
X120145611Y-173642000D01*
X120192184Y-173618374D01*
X120260140Y-173610047D01*
X120331538Y-173616646D01*
G36*
X119858454Y-173610606D02*
G01*
X119919816Y-173640323D01*
X119976353Y-173693776D01*
X120015590Y-173756704D01*
X120026167Y-173802374D01*
X120024480Y-173826586D01*
X120014012Y-173841652D01*
X119986649Y-173849742D01*
X119934276Y-173853023D01*
X119848781Y-173853664D01*
X119834240Y-173853667D01*
X119743807Y-173854084D01*
X119688192Y-173856674D01*
X119659878Y-173863447D01*
X119651351Y-173876414D01*
X119655095Y-173897584D01*
X119656163Y-173901292D01*
X119695205Y-173970204D01*
X119757340Y-174010705D01*
X119831663Y-174019609D01*
X119907271Y-173993730D01*
X119926583Y-173980294D01*
X119966608Y-173956650D01*
X119991889Y-173955889D01*
X119993139Y-173957433D01*
X119986710Y-173982352D01*
X119954754Y-174016981D01*
X119949430Y-174021305D01*
X119871701Y-174057902D01*
X119783181Y-174062722D01*
X119700745Y-174035730D01*
X119680280Y-174021865D01*
X119637020Y-173971899D01*
X119603789Y-173906737D01*
X119600905Y-173897910D01*
X119593227Y-173808365D01*
X119598720Y-173791347D01*
X119645167Y-173791347D01*
X119664647Y-173800677D01*
X119716373Y-173807681D01*
X119790272Y-173811156D01*
X119812518Y-173811334D01*
X119895803Y-173810542D01*
X119944746Y-173806777D01*
X119967327Y-173797951D01*
X119971529Y-173781976D01*
X119969158Y-173770371D01*
X119933520Y-173705726D01*
X119874804Y-173667364D01*
X119804925Y-173657745D01*
X119735798Y-173679327D01*
X119694733Y-173713736D01*
X119661697Y-173757262D01*
X119645499Y-173788645D01*
X119645167Y-173791347D01*
X119598720Y-173791347D01*
X119619690Y-173726391D01*
X119673066Y-173660050D01*
X119746129Y-173617405D01*
X119831651Y-173606518D01*
X119858454Y-173610606D01*
G37*
X119858454Y-173610606D02*
X119919816Y-173640323D01*
X119976353Y-173693776D01*
X120015590Y-173756704D01*
X120026167Y-173802374D01*
X120024480Y-173826586D01*
X120014012Y-173841652D01*
X119986649Y-173849742D01*
X119934276Y-173853023D01*
X119848781Y-173853664D01*
X119834240Y-173853667D01*
X119743807Y-173854084D01*
X119688192Y-173856674D01*
X119659878Y-173863447D01*
X119651351Y-173876414D01*
X119655095Y-173897584D01*
X119656163Y-173901292D01*
X119695205Y-173970204D01*
X119757340Y-174010705D01*
X119831663Y-174019609D01*
X119907271Y-173993730D01*
X119926583Y-173980294D01*
X119966608Y-173956650D01*
X119991889Y-173955889D01*
X119993139Y-173957433D01*
X119986710Y-173982352D01*
X119954754Y-174016981D01*
X119949430Y-174021305D01*
X119871701Y-174057902D01*
X119783181Y-174062722D01*
X119700745Y-174035730D01*
X119680280Y-174021865D01*
X119637020Y-173971899D01*
X119603789Y-173906737D01*
X119600905Y-173897910D01*
X119593227Y-173808365D01*
X119598720Y-173791347D01*
X119645167Y-173791347D01*
X119664647Y-173800677D01*
X119716373Y-173807681D01*
X119790272Y-173811156D01*
X119812518Y-173811334D01*
X119895803Y-173810542D01*
X119944746Y-173806777D01*
X119967327Y-173797951D01*
X119971529Y-173781976D01*
X119969158Y-173770371D01*
X119933520Y-173705726D01*
X119874804Y-173667364D01*
X119804925Y-173657745D01*
X119735798Y-173679327D01*
X119694733Y-173713736D01*
X119661697Y-173757262D01*
X119645499Y-173788645D01*
X119645167Y-173791347D01*
X119598720Y-173791347D01*
X119619690Y-173726391D01*
X119673066Y-173660050D01*
X119746129Y-173617405D01*
X119831651Y-173606518D01*
X119858454Y-173610606D01*
G36*
X119346494Y-173455258D02*
G01*
X119416584Y-173469218D01*
X119464528Y-173497413D01*
X119500196Y-173543876D01*
X119508707Y-173559506D01*
X119531230Y-173643876D01*
X119513724Y-173723915D01*
X119458254Y-173790781D01*
X119453966Y-173794032D01*
X119393449Y-173838774D01*
X119452206Y-173925595D01*
X119498556Y-173994931D01*
X119523807Y-174036515D01*
X119530965Y-174057396D01*
X119523037Y-174064621D01*
X119511829Y-174065334D01*
X119485519Y-174048829D01*
X119446055Y-174005683D01*
X119404530Y-173948917D01*
X119360683Y-173885923D01*
X119327510Y-173850968D01*
X119293745Y-173835885D01*
X119248120Y-173832509D01*
X119243890Y-173832500D01*
X119160545Y-173832500D01*
X119154148Y-173941961D01*
X119145433Y-174009576D01*
X119130327Y-174051945D01*
X119121292Y-174060142D01*
X119110514Y-174053930D01*
X119102899Y-174023886D01*
X119098029Y-173965255D01*
X119095483Y-173873284D01*
X119094833Y-173760181D01*
X119094833Y-173493834D01*
X119158333Y-173493834D01*
X119158333Y-173790167D01*
X119274750Y-173790167D01*
X119354909Y-173785289D01*
X119407073Y-173768262D01*
X119433500Y-173747834D01*
X119473594Y-173685213D01*
X119476411Y-173622199D01*
X119446426Y-173565393D01*
X119388114Y-173521396D01*
X119305950Y-173496808D01*
X119261312Y-173493834D01*
X119158333Y-173493834D01*
X119094833Y-173493834D01*
X119094833Y-173451500D01*
X119244391Y-173451500D01*
X119346494Y-173455258D01*
G37*
X119346494Y-173455258D02*
X119416584Y-173469218D01*
X119464528Y-173497413D01*
X119500196Y-173543876D01*
X119508707Y-173559506D01*
X119531230Y-173643876D01*
X119513724Y-173723915D01*
X119458254Y-173790781D01*
X119453966Y-173794032D01*
X119393449Y-173838774D01*
X119452206Y-173925595D01*
X119498556Y-173994931D01*
X119523807Y-174036515D01*
X119530965Y-174057396D01*
X119523037Y-174064621D01*
X119511829Y-174065334D01*
X119485519Y-174048829D01*
X119446055Y-174005683D01*
X119404530Y-173948917D01*
X119360683Y-173885923D01*
X119327510Y-173850968D01*
X119293745Y-173835885D01*
X119248120Y-173832509D01*
X119243890Y-173832500D01*
X119160545Y-173832500D01*
X119154148Y-173941961D01*
X119145433Y-174009576D01*
X119130327Y-174051945D01*
X119121292Y-174060142D01*
X119110514Y-174053930D01*
X119102899Y-174023886D01*
X119098029Y-173965255D01*
X119095483Y-173873284D01*
X119094833Y-173760181D01*
X119094833Y-173493834D01*
X119158333Y-173493834D01*
X119158333Y-173790167D01*
X119274750Y-173790167D01*
X119354909Y-173785289D01*
X119407073Y-173768262D01*
X119433500Y-173747834D01*
X119473594Y-173685213D01*
X119476411Y-173622199D01*
X119446426Y-173565393D01*
X119388114Y-173521396D01*
X119305950Y-173496808D01*
X119261312Y-173493834D01*
X119158333Y-173493834D01*
X119094833Y-173493834D01*
X119094833Y-173451500D01*
X119244391Y-173451500D01*
X119346494Y-173455258D01*
G36*
X118677611Y-173628185D02*
G01*
X118692667Y-173642000D01*
X118713448Y-173668822D01*
X118726200Y-173705176D01*
X118732750Y-173761114D01*
X118734925Y-173846687D01*
X118735000Y-173874834D01*
X118732780Y-173966113D01*
X118726634Y-174031226D01*
X118717335Y-174063223D01*
X118713833Y-174065334D01*
X118703192Y-174045621D01*
X118695768Y-173992196D01*
X118692691Y-173913628D01*
X118692667Y-173905192D01*
X118688925Y-173796907D01*
X118676087Y-173724662D01*
X118651734Y-173682694D01*
X118613448Y-173665238D01*
X118591380Y-173663840D01*
X118513881Y-173681640D01*
X118459417Y-173733494D01*
X118427469Y-173820219D01*
X118417500Y-173936942D01*
X118414318Y-174005156D01*
X118405988Y-174051465D01*
X118396333Y-174065334D01*
X118386645Y-174045149D01*
X118379596Y-173988420D01*
X118375734Y-173900882D01*
X118375167Y-173843084D01*
X118377089Y-173741353D01*
X118382492Y-173667345D01*
X118390829Y-173626797D01*
X118396333Y-173620834D01*
X118415105Y-173637980D01*
X118417500Y-173652625D01*
X118423581Y-173669511D01*
X118447781Y-173665939D01*
X118496561Y-173642041D01*
X118573074Y-173608322D01*
X118629779Y-173603704D01*
X118677611Y-173628185D01*
G37*
X118677611Y-173628185D02*
X118692667Y-173642000D01*
X118713448Y-173668822D01*
X118726200Y-173705176D01*
X118732750Y-173761114D01*
X118734925Y-173846687D01*
X118735000Y-173874834D01*
X118732780Y-173966113D01*
X118726634Y-174031226D01*
X118717335Y-174063223D01*
X118713833Y-174065334D01*
X118703192Y-174045621D01*
X118695768Y-173992196D01*
X118692691Y-173913628D01*
X118692667Y-173905192D01*
X118688925Y-173796907D01*
X118676087Y-173724662D01*
X118651734Y-173682694D01*
X118613448Y-173665238D01*
X118591380Y-173663840D01*
X118513881Y-173681640D01*
X118459417Y-173733494D01*
X118427469Y-173820219D01*
X118417500Y-173936942D01*
X118414318Y-174005156D01*
X118405988Y-174051465D01*
X118396333Y-174065334D01*
X118386645Y-174045149D01*
X118379596Y-173988420D01*
X118375734Y-173900882D01*
X118375167Y-173843084D01*
X118377089Y-173741353D01*
X118382492Y-173667345D01*
X118390829Y-173626797D01*
X118396333Y-173620834D01*
X118415105Y-173637980D01*
X118417500Y-173652625D01*
X118423581Y-173669511D01*
X118447781Y-173665939D01*
X118496561Y-173642041D01*
X118573074Y-173608322D01*
X118629779Y-173603704D01*
X118677611Y-173628185D01*
G36*
X118222553Y-173473370D02*
G01*
X118230485Y-173517192D01*
X118235309Y-173592693D01*
X118237415Y-173704311D01*
X118237583Y-173758417D01*
X118236429Y-173885275D01*
X118232708Y-173974293D01*
X118226031Y-174029905D01*
X118216009Y-174056550D01*
X118211125Y-174060042D01*
X118200375Y-174053887D01*
X118192772Y-174023952D01*
X118187898Y-173965489D01*
X118185337Y-173873752D01*
X118184667Y-173758417D01*
X118185496Y-173632565D01*
X118188264Y-173544273D01*
X118193385Y-173488793D01*
X118201276Y-173461380D01*
X118211125Y-173456792D01*
X118222553Y-173473370D01*
G37*
X118222553Y-173473370D02*
X118230485Y-173517192D01*
X118235309Y-173592693D01*
X118237415Y-173704311D01*
X118237583Y-173758417D01*
X118236429Y-173885275D01*
X118232708Y-173974293D01*
X118226031Y-174029905D01*
X118216009Y-174056550D01*
X118211125Y-174060042D01*
X118200375Y-174053887D01*
X118192772Y-174023952D01*
X118187898Y-173965489D01*
X118185337Y-173873752D01*
X118184667Y-173758417D01*
X118185496Y-173632565D01*
X118188264Y-173544273D01*
X118193385Y-173488793D01*
X118201276Y-173461380D01*
X118211125Y-173456792D01*
X118222553Y-173473370D01*
G36*
X117753066Y-173488732D02*
G01*
X117761276Y-173540003D01*
X117761333Y-173546750D01*
X117765225Y-173596792D01*
X117783006Y-173617288D01*
X117815499Y-173620834D01*
X117851512Y-173627553D01*
X117856583Y-173642000D01*
X117826788Y-173659657D01*
X117801561Y-173663167D01*
X117781065Y-173666348D01*
X117769122Y-173681493D01*
X117764012Y-173717007D01*
X117764012Y-173781293D01*
X117765769Y-173837792D01*
X117771917Y-174012417D01*
X117831517Y-174008241D01*
X117874900Y-174012369D01*
X117882803Y-174029408D01*
X117856578Y-174050986D01*
X117808346Y-174060550D01*
X117757074Y-174056727D01*
X117724187Y-174040888D01*
X117709201Y-174003128D01*
X117700200Y-173929137D01*
X117697833Y-173846475D01*
X117695957Y-173756682D01*
X117689130Y-173699571D01*
X117675551Y-173665610D01*
X117660792Y-173650298D01*
X117635332Y-173628691D01*
X117644224Y-173622144D01*
X117660792Y-173621507D01*
X117686996Y-173609800D01*
X117697185Y-173569683D01*
X117697833Y-173546750D01*
X117704718Y-173491957D01*
X117726692Y-173472801D01*
X117729583Y-173472667D01*
X117753066Y-173488732D01*
G37*
X117753066Y-173488732D02*
X117761276Y-173540003D01*
X117761333Y-173546750D01*
X117765225Y-173596792D01*
X117783006Y-173617288D01*
X117815499Y-173620834D01*
X117851512Y-173627553D01*
X117856583Y-173642000D01*
X117826788Y-173659657D01*
X117801561Y-173663167D01*
X117781065Y-173666348D01*
X117769122Y-173681493D01*
X117764012Y-173717007D01*
X117764012Y-173781293D01*
X117765769Y-173837792D01*
X117771917Y-174012417D01*
X117831517Y-174008241D01*
X117874900Y-174012369D01*
X117882803Y-174029408D01*
X117856578Y-174050986D01*
X117808346Y-174060550D01*
X117757074Y-174056727D01*
X117724187Y-174040888D01*
X117709201Y-174003128D01*
X117700200Y-173929137D01*
X117697833Y-173846475D01*
X117695957Y-173756682D01*
X117689130Y-173699571D01*
X117675551Y-173665610D01*
X117660792Y-173650298D01*
X117635332Y-173628691D01*
X117644224Y-173622144D01*
X117660792Y-173621507D01*
X117686996Y-173609800D01*
X117697185Y-173569683D01*
X117697833Y-173546750D01*
X117704718Y-173491957D01*
X117726692Y-173472801D01*
X117729583Y-173472667D01*
X117753066Y-173488732D01*
G36*
X117478834Y-173616814D02*
G01*
X117532082Y-173633712D01*
X117565948Y-173654420D01*
X117570833Y-173664808D01*
X117562459Y-173681351D01*
X117531969Y-173680564D01*
X117471311Y-173662194D01*
X117469659Y-173661619D01*
X117401922Y-173651273D01*
X117349499Y-173667480D01*
X117321994Y-173705608D01*
X117320840Y-173733391D01*
X117335842Y-173765187D01*
X117376248Y-173791772D01*
X117442466Y-173816434D01*
X117521713Y-173845956D01*
X117567439Y-173876300D01*
X117587917Y-173915036D01*
X117591676Y-173953008D01*
X117573481Y-174003485D01*
X117525516Y-174040589D01*
X117458889Y-174061948D01*
X117384708Y-174065189D01*
X117314084Y-174047938D01*
X117271553Y-174021392D01*
X117221583Y-173977451D01*
X117274500Y-173992045D01*
X117388617Y-174015628D01*
X117469572Y-174014114D01*
X117514465Y-173991678D01*
X117537145Y-173948565D01*
X117519851Y-173908149D01*
X117464943Y-173873455D01*
X117407767Y-173854788D01*
X117325090Y-173829519D01*
X117277057Y-173801518D01*
X117256086Y-173765050D01*
X117253333Y-173737939D01*
X117273004Y-173680403D01*
X117326043Y-173632800D01*
X117375374Y-173611222D01*
X117421500Y-173607920D01*
X117478834Y-173616814D01*
G37*
X117478834Y-173616814D02*
X117532082Y-173633712D01*
X117565948Y-173654420D01*
X117570833Y-173664808D01*
X117562459Y-173681351D01*
X117531969Y-173680564D01*
X117471311Y-173662194D01*
X117469659Y-173661619D01*
X117401922Y-173651273D01*
X117349499Y-173667480D01*
X117321994Y-173705608D01*
X117320840Y-173733391D01*
X117335842Y-173765187D01*
X117376248Y-173791772D01*
X117442466Y-173816434D01*
X117521713Y-173845956D01*
X117567439Y-173876300D01*
X117587917Y-173915036D01*
X117591676Y-173953008D01*
X117573481Y-174003485D01*
X117525516Y-174040589D01*
X117458889Y-174061948D01*
X117384708Y-174065189D01*
X117314084Y-174047938D01*
X117271553Y-174021392D01*
X117221583Y-173977451D01*
X117274500Y-173992045D01*
X117388617Y-174015628D01*
X117469572Y-174014114D01*
X117514465Y-173991678D01*
X117537145Y-173948565D01*
X117519851Y-173908149D01*
X117464943Y-173873455D01*
X117407767Y-173854788D01*
X117325090Y-173829519D01*
X117277057Y-173801518D01*
X117256086Y-173765050D01*
X117253333Y-173737939D01*
X117273004Y-173680403D01*
X117326043Y-173632800D01*
X117375374Y-173611222D01*
X117421500Y-173607920D01*
X117478834Y-173616814D01*
G36*
X117152414Y-173626741D02*
G01*
X117161406Y-173649225D01*
X117165511Y-173695423D01*
X117165606Y-173772475D01*
X117164115Y-173836073D01*
X117158791Y-173948005D01*
X117149994Y-174020367D01*
X117137341Y-174055808D01*
X117131625Y-174060087D01*
X117119250Y-174053551D01*
X117111141Y-174020729D01*
X117106662Y-173956442D01*
X117105175Y-173855512D01*
X117105167Y-173844847D01*
X117106082Y-173743255D01*
X117109499Y-173677047D01*
X117116421Y-173639302D01*
X117127852Y-173623098D01*
X117137657Y-173620834D01*
X117152414Y-173626741D01*
G37*
X117152414Y-173626741D02*
X117161406Y-173649225D01*
X117165511Y-173695423D01*
X117165606Y-173772475D01*
X117164115Y-173836073D01*
X117158791Y-173948005D01*
X117149994Y-174020367D01*
X117137341Y-174055808D01*
X117131625Y-174060087D01*
X117119250Y-174053551D01*
X117111141Y-174020729D01*
X117106662Y-173956442D01*
X117105175Y-173855512D01*
X117105167Y-173844847D01*
X117106082Y-173743255D01*
X117109499Y-173677047D01*
X117116421Y-173639302D01*
X117127852Y-173623098D01*
X117137657Y-173620834D01*
X117152414Y-173626741D01*
G36*
X116915250Y-173620461D02*
G01*
X116968362Y-173646291D01*
X116972119Y-173649920D01*
X116995447Y-173676586D01*
X116988476Y-173682531D01*
X116946417Y-173672459D01*
X116852940Y-173656823D01*
X116782102Y-173664374D01*
X116739041Y-173693375D01*
X116728894Y-173742088D01*
X116729485Y-173745833D01*
X116750974Y-173768224D01*
X116801091Y-173795300D01*
X116851167Y-173814883D01*
X116919733Y-173842480D01*
X116973415Y-173872065D01*
X116994141Y-173889857D01*
X117010133Y-173942981D01*
X116993703Y-174001241D01*
X116961400Y-174038875D01*
X116912759Y-174057565D01*
X116841798Y-174064439D01*
X116766775Y-174059737D01*
X116705951Y-174043701D01*
X116691204Y-174035314D01*
X116665286Y-174004518D01*
X116673002Y-173985364D01*
X116705694Y-173987624D01*
X116724842Y-173997343D01*
X116780294Y-174017019D01*
X116847206Y-174021940D01*
X116906326Y-174012084D01*
X116931600Y-173997600D01*
X116957564Y-173951830D01*
X116943010Y-173910914D01*
X116889748Y-173878963D01*
X116877625Y-173874917D01*
X116787138Y-173846118D01*
X116729860Y-173823474D01*
X116698247Y-173801683D01*
X116684753Y-173775440D01*
X116681837Y-173739443D01*
X116681833Y-173737274D01*
X116692228Y-173679465D01*
X116716836Y-173639300D01*
X116770764Y-173616186D01*
X116843143Y-173610166D01*
X116915250Y-173620461D01*
G37*
X116915250Y-173620461D02*
X116968362Y-173646291D01*
X116972119Y-173649920D01*
X116995447Y-173676586D01*
X116988476Y-173682531D01*
X116946417Y-173672459D01*
X116852940Y-173656823D01*
X116782102Y-173664374D01*
X116739041Y-173693375D01*
X116728894Y-173742088D01*
X116729485Y-173745833D01*
X116750974Y-173768224D01*
X116801091Y-173795300D01*
X116851167Y-173814883D01*
X116919733Y-173842480D01*
X116973415Y-173872065D01*
X116994141Y-173889857D01*
X117010133Y-173942981D01*
X116993703Y-174001241D01*
X116961400Y-174038875D01*
X116912759Y-174057565D01*
X116841798Y-174064439D01*
X116766775Y-174059737D01*
X116705951Y-174043701D01*
X116691204Y-174035314D01*
X116665286Y-174004518D01*
X116673002Y-173985364D01*
X116705694Y-173987624D01*
X116724842Y-173997343D01*
X116780294Y-174017019D01*
X116847206Y-174021940D01*
X116906326Y-174012084D01*
X116931600Y-173997600D01*
X116957564Y-173951830D01*
X116943010Y-173910914D01*
X116889748Y-173878963D01*
X116877625Y-173874917D01*
X116787138Y-173846118D01*
X116729860Y-173823474D01*
X116698247Y-173801683D01*
X116684753Y-173775440D01*
X116681837Y-173739443D01*
X116681833Y-173737274D01*
X116692228Y-173679465D01*
X116716836Y-173639300D01*
X116770764Y-173616186D01*
X116843143Y-173610166D01*
X116915250Y-173620461D01*
G36*
X116512911Y-173621004D02*
G01*
X116565371Y-173649641D01*
X116579479Y-173671452D01*
X116559194Y-173680946D01*
X116508477Y-173672632D01*
X116482128Y-173663691D01*
X116418301Y-173653025D01*
X116363829Y-173666754D01*
X116330398Y-173699769D01*
X116325824Y-173731993D01*
X116340010Y-173764092D01*
X116378053Y-173790294D01*
X116447633Y-173816434D01*
X116527066Y-173846076D01*
X116572884Y-173876526D01*
X116593289Y-173915178D01*
X116596842Y-173950928D01*
X116578784Y-174003842D01*
X116531019Y-174042432D01*
X116464460Y-174064298D01*
X116390019Y-174067037D01*
X116318610Y-174048247D01*
X116276720Y-174021392D01*
X116226750Y-173977451D01*
X116279667Y-173992215D01*
X116335667Y-174004284D01*
X116406452Y-174015252D01*
X116420733Y-174016978D01*
X116480201Y-174019895D01*
X116513605Y-174007892D01*
X116533327Y-173981301D01*
X116545634Y-173935434D01*
X116524505Y-173899694D01*
X116466534Y-173870532D01*
X116411600Y-173854452D01*
X116329273Y-173829173D01*
X116281607Y-173800950D01*
X116261023Y-173764017D01*
X116258500Y-173737939D01*
X116277343Y-173679659D01*
X116326429Y-173635319D01*
X116394596Y-173610050D01*
X116470681Y-173608983D01*
X116512911Y-173621004D01*
G37*
X116512911Y-173621004D02*
X116565371Y-173649641D01*
X116579479Y-173671452D01*
X116559194Y-173680946D01*
X116508477Y-173672632D01*
X116482128Y-173663691D01*
X116418301Y-173653025D01*
X116363829Y-173666754D01*
X116330398Y-173699769D01*
X116325824Y-173731993D01*
X116340010Y-173764092D01*
X116378053Y-173790294D01*
X116447633Y-173816434D01*
X116527066Y-173846076D01*
X116572884Y-173876526D01*
X116593289Y-173915178D01*
X116596842Y-173950928D01*
X116578784Y-174003842D01*
X116531019Y-174042432D01*
X116464460Y-174064298D01*
X116390019Y-174067037D01*
X116318610Y-174048247D01*
X116276720Y-174021392D01*
X116226750Y-173977451D01*
X116279667Y-173992215D01*
X116335667Y-174004284D01*
X116406452Y-174015252D01*
X116420733Y-174016978D01*
X116480201Y-174019895D01*
X116513605Y-174007892D01*
X116533327Y-173981301D01*
X116545634Y-173935434D01*
X116524505Y-173899694D01*
X116466534Y-173870532D01*
X116411600Y-173854452D01*
X116329273Y-173829173D01*
X116281607Y-173800950D01*
X116261023Y-173764017D01*
X116258500Y-173737939D01*
X116277343Y-173679659D01*
X116326429Y-173635319D01*
X116394596Y-173610050D01*
X116470681Y-173608983D01*
X116512911Y-173621004D01*
G36*
X115961683Y-173480553D02*
G01*
X115991547Y-173531374D01*
X116030121Y-173607665D01*
X116073809Y-173702546D01*
X116093480Y-173747834D01*
X116143499Y-173865477D01*
X116178522Y-173949784D01*
X116200303Y-174006298D01*
X116210593Y-174040564D01*
X116211144Y-174058124D01*
X116203708Y-174064524D01*
X116193810Y-174065334D01*
X116173025Y-174047617D01*
X116144986Y-174002474D01*
X116129319Y-173970084D01*
X116087186Y-173874834D01*
X115798584Y-173874834D01*
X115762208Y-173970084D01*
X115735213Y-174025818D01*
X115707602Y-174060111D01*
X115695833Y-174065334D01*
X115668741Y-174062302D01*
X115665860Y-174060042D01*
X115674345Y-174029505D01*
X115697155Y-173971169D01*
X115730528Y-173893115D01*
X115770704Y-173803426D01*
X115789104Y-173763726D01*
X115846750Y-173763726D01*
X115846893Y-173794601D01*
X115868491Y-173808050D01*
X115913265Y-173811289D01*
X115949405Y-173811334D01*
X116066495Y-173811334D01*
X116022825Y-173710792D01*
X115994022Y-173643812D01*
X115970122Y-173587096D01*
X115962282Y-173567917D01*
X115950189Y-173547667D01*
X115936244Y-173555346D01*
X115915006Y-173595887D01*
X115903936Y-173620834D01*
X115866339Y-173708209D01*
X115846750Y-173763726D01*
X115789104Y-173763726D01*
X115813921Y-173710182D01*
X115856418Y-173621467D01*
X115894435Y-173545360D01*
X115924211Y-173489945D01*
X115941984Y-173463302D01*
X115944128Y-173462084D01*
X115961683Y-173480553D01*
G37*
X115961683Y-173480553D02*
X115991547Y-173531374D01*
X116030121Y-173607665D01*
X116073809Y-173702546D01*
X116093480Y-173747834D01*
X116143499Y-173865477D01*
X116178522Y-173949784D01*
X116200303Y-174006298D01*
X116210593Y-174040564D01*
X116211144Y-174058124D01*
X116203708Y-174064524D01*
X116193810Y-174065334D01*
X116173025Y-174047617D01*
X116144986Y-174002474D01*
X116129319Y-173970084D01*
X116087186Y-173874834D01*
X115798584Y-173874834D01*
X115762208Y-173970084D01*
X115735213Y-174025818D01*
X115707602Y-174060111D01*
X115695833Y-174065334D01*
X115668741Y-174062302D01*
X115665860Y-174060042D01*
X115674345Y-174029505D01*
X115697155Y-173971169D01*
X115730528Y-173893115D01*
X115770704Y-173803426D01*
X115789104Y-173763726D01*
X115846750Y-173763726D01*
X115846893Y-173794601D01*
X115868491Y-173808050D01*
X115913265Y-173811289D01*
X115949405Y-173811334D01*
X116066495Y-173811334D01*
X116022825Y-173710792D01*
X115994022Y-173643812D01*
X115970122Y-173587096D01*
X115962282Y-173567917D01*
X115950189Y-173547667D01*
X115936244Y-173555346D01*
X115915006Y-173595887D01*
X115903936Y-173620834D01*
X115866339Y-173708209D01*
X115846750Y-173763726D01*
X115789104Y-173763726D01*
X115813921Y-173710182D01*
X115856418Y-173621467D01*
X115894435Y-173545360D01*
X115924211Y-173489945D01*
X115941984Y-173463302D01*
X115944128Y-173462084D01*
X115961683Y-173480553D01*
G36*
X120799027Y-173618864D02*
G01*
X120863395Y-173658493D01*
X120912262Y-173718908D01*
X120941189Y-173792945D01*
X120945737Y-173873441D01*
X120921467Y-173953231D01*
X120877944Y-174012116D01*
X120808701Y-174054003D01*
X120725462Y-174065439D01*
X120644958Y-174045093D01*
X120623543Y-174032383D01*
X120596759Y-174015404D01*
X120582752Y-174017840D01*
X120577380Y-174047148D01*
X120576500Y-174110783D01*
X120576500Y-174117050D01*
X120573702Y-174187663D01*
X120563872Y-174224207D01*
X120544854Y-174234667D01*
X120544750Y-174234667D01*
X120532139Y-174228825D01*
X120523288Y-174207316D01*
X120517579Y-174164168D01*
X120514395Y-174093408D01*
X120513117Y-173989063D01*
X120513000Y-173927750D01*
X120513473Y-173832164D01*
X120576500Y-173832164D01*
X120580660Y-173900750D01*
X120597410Y-173944343D01*
X120632271Y-173979131D01*
X120707172Y-174017499D01*
X120779844Y-174014045D01*
X120829488Y-173985742D01*
X120867770Y-173931645D01*
X120887321Y-173860351D01*
X120890844Y-173797521D01*
X120875862Y-173754182D01*
X120844616Y-173717693D01*
X120773448Y-173672708D01*
X120694696Y-173666398D01*
X120623543Y-173696117D01*
X120593321Y-173726869D01*
X120579357Y-173772770D01*
X120576500Y-173832164D01*
X120513473Y-173832164D01*
X120513604Y-173805842D01*
X120515829Y-173720283D01*
X120520293Y-173665100D01*
X120527613Y-173634320D01*
X120538407Y-173621970D01*
X120544750Y-173620834D01*
X120572913Y-173632551D01*
X120576500Y-173642544D01*
X120592575Y-173648725D01*
X120632993Y-173634866D01*
X120641545Y-173630618D01*
X120723597Y-173607184D01*
X120799027Y-173618864D01*
G37*
X120799027Y-173618864D02*
X120863395Y-173658493D01*
X120912262Y-173718908D01*
X120941189Y-173792945D01*
X120945737Y-173873441D01*
X120921467Y-173953231D01*
X120877944Y-174012116D01*
X120808701Y-174054003D01*
X120725462Y-174065439D01*
X120644958Y-174045093D01*
X120623543Y-174032383D01*
X120596759Y-174015404D01*
X120582752Y-174017840D01*
X120577380Y-174047148D01*
X120576500Y-174110783D01*
X120576500Y-174117050D01*
X120573702Y-174187663D01*
X120563872Y-174224207D01*
X120544854Y-174234667D01*
X120544750Y-174234667D01*
X120532139Y-174228825D01*
X120523288Y-174207316D01*
X120517579Y-174164168D01*
X120514395Y-174093408D01*
X120513117Y-173989063D01*
X120513000Y-173927750D01*
X120513473Y-173832164D01*
X120576500Y-173832164D01*
X120580660Y-173900750D01*
X120597410Y-173944343D01*
X120632271Y-173979131D01*
X120707172Y-174017499D01*
X120779844Y-174014045D01*
X120829488Y-173985742D01*
X120867770Y-173931645D01*
X120887321Y-173860351D01*
X120890844Y-173797521D01*
X120875862Y-173754182D01*
X120844616Y-173717693D01*
X120773448Y-173672708D01*
X120694696Y-173666398D01*
X120623543Y-173696117D01*
X120593321Y-173726869D01*
X120579357Y-173772770D01*
X120576500Y-173832164D01*
X120513473Y-173832164D01*
X120513604Y-173805842D01*
X120515829Y-173720283D01*
X120520293Y-173665100D01*
X120527613Y-173634320D01*
X120538407Y-173621970D01*
X120544750Y-173620834D01*
X120572913Y-173632551D01*
X120576500Y-173642544D01*
X120592575Y-173648725D01*
X120632993Y-173634866D01*
X120641545Y-173630618D01*
X120723597Y-173607184D01*
X120799027Y-173618864D01*
G36*
X123239539Y-173170902D02*
G01*
X123246161Y-173239553D01*
X113830955Y-173244985D01*
X104415750Y-173250417D01*
X104267583Y-173300472D01*
X104019452Y-173405069D01*
X103796571Y-173541545D01*
X103601362Y-173707383D01*
X103436249Y-173900065D01*
X103303653Y-174117071D01*
X103205999Y-174355884D01*
X103185558Y-174425167D01*
X103163461Y-174541811D01*
X103150627Y-174685320D01*
X103147093Y-174841241D01*
X103152896Y-174995123D01*
X103168073Y-175132514D01*
X103183554Y-175208334D01*
X103243187Y-175383100D01*
X103329279Y-175563676D01*
X103433259Y-175734347D01*
X103546556Y-175879395D01*
X103553844Y-175887352D01*
X103746908Y-176067789D01*
X103955926Y-176209037D01*
X104181465Y-176311345D01*
X104424092Y-176374962D01*
X104684375Y-176400138D01*
X104722667Y-176400610D01*
X104976092Y-176380791D01*
X105218440Y-176321736D01*
X105445816Y-176225852D01*
X105654325Y-176095547D01*
X105840071Y-175933229D01*
X105999159Y-175741306D01*
X106120736Y-175536417D01*
X106182257Y-175394822D01*
X106233030Y-175244138D01*
X106269368Y-175097654D01*
X106287586Y-174968660D01*
X106289000Y-174929781D01*
X106289000Y-174827334D01*
X106363083Y-174827334D01*
X106410882Y-174830007D01*
X106431856Y-174846249D01*
X106437040Y-174888397D01*
X106437167Y-174910138D01*
X106433034Y-174973394D01*
X106422204Y-175059295D01*
X106407201Y-175148263D01*
X106335445Y-175413208D01*
X106227194Y-175657782D01*
X106084135Y-175879894D01*
X105907956Y-176077453D01*
X105700345Y-176248368D01*
X105462988Y-176390549D01*
X105368355Y-176435282D01*
X105198917Y-176510084D01*
X104743833Y-176514983D01*
X104587200Y-176516215D01*
X104466102Y-176515843D01*
X104373759Y-176513470D01*
X104303389Y-176508696D01*
X104248212Y-176501126D01*
X104201447Y-176490359D01*
X104172333Y-176481454D01*
X103926863Y-176378659D01*
X103702617Y-176240652D01*
X103502422Y-176070346D01*
X103329102Y-175870655D01*
X103185483Y-175644493D01*
X103074390Y-175394775D01*
X103050674Y-175324750D01*
X103018295Y-175186988D01*
X102997578Y-175022991D01*
X102989130Y-174847393D01*
X102993562Y-174674824D01*
X103011482Y-174519915D01*
X103016149Y-174495219D01*
X103089472Y-174236244D01*
X103199235Y-173996251D01*
X103342756Y-173778051D01*
X103517353Y-173584454D01*
X103720344Y-173418271D01*
X103949047Y-173282310D01*
X104200780Y-173179383D01*
X104300087Y-173150004D01*
X104479250Y-173102250D01*
X123232917Y-173102250D01*
X123239539Y-173170902D01*
G37*
X123239539Y-173170902D02*
X123246161Y-173239553D01*
X113830955Y-173244985D01*
X104415750Y-173250417D01*
X104267583Y-173300472D01*
X104019452Y-173405069D01*
X103796571Y-173541545D01*
X103601362Y-173707383D01*
X103436249Y-173900065D01*
X103303653Y-174117071D01*
X103205999Y-174355884D01*
X103185558Y-174425167D01*
X103163461Y-174541811D01*
X103150627Y-174685320D01*
X103147093Y-174841241D01*
X103152896Y-174995123D01*
X103168073Y-175132514D01*
X103183554Y-175208334D01*
X103243187Y-175383100D01*
X103329279Y-175563676D01*
X103433259Y-175734347D01*
X103546556Y-175879395D01*
X103553844Y-175887352D01*
X103746908Y-176067789D01*
X103955926Y-176209037D01*
X104181465Y-176311345D01*
X104424092Y-176374962D01*
X104684375Y-176400138D01*
X104722667Y-176400610D01*
X104976092Y-176380791D01*
X105218440Y-176321736D01*
X105445816Y-176225852D01*
X105654325Y-176095547D01*
X105840071Y-175933229D01*
X105999159Y-175741306D01*
X106120736Y-175536417D01*
X106182257Y-175394822D01*
X106233030Y-175244138D01*
X106269368Y-175097654D01*
X106287586Y-174968660D01*
X106289000Y-174929781D01*
X106289000Y-174827334D01*
X106363083Y-174827334D01*
X106410882Y-174830007D01*
X106431856Y-174846249D01*
X106437040Y-174888397D01*
X106437167Y-174910138D01*
X106433034Y-174973394D01*
X106422204Y-175059295D01*
X106407201Y-175148263D01*
X106335445Y-175413208D01*
X106227194Y-175657782D01*
X106084135Y-175879894D01*
X105907956Y-176077453D01*
X105700345Y-176248368D01*
X105462988Y-176390549D01*
X105368355Y-176435282D01*
X105198917Y-176510084D01*
X104743833Y-176514983D01*
X104587200Y-176516215D01*
X104466102Y-176515843D01*
X104373759Y-176513470D01*
X104303389Y-176508696D01*
X104248212Y-176501126D01*
X104201447Y-176490359D01*
X104172333Y-176481454D01*
X103926863Y-176378659D01*
X103702617Y-176240652D01*
X103502422Y-176070346D01*
X103329102Y-175870655D01*
X103185483Y-175644493D01*
X103074390Y-175394775D01*
X103050674Y-175324750D01*
X103018295Y-175186988D01*
X102997578Y-175022991D01*
X102989130Y-174847393D01*
X102993562Y-174674824D01*
X103011482Y-174519915D01*
X103016149Y-174495219D01*
X103089472Y-174236244D01*
X103199235Y-173996251D01*
X103342756Y-173778051D01*
X103517353Y-173584454D01*
X103720344Y-173418271D01*
X103949047Y-173282310D01*
X104200780Y-173179383D01*
X104300087Y-173150004D01*
X104479250Y-173102250D01*
X123232917Y-173102250D01*
X123239539Y-173170902D01*
D16*
X123400000Y-162250000D02*
X122380000Y-162250000D01*
X123400000Y-157050000D02*
X122380000Y-157050000D01*
X125940000Y-162250000D02*
X124920000Y-162250000D01*
X125940000Y-157050000D02*
X124920000Y-157050000D01*
X128480000Y-162250000D02*
X127460000Y-162250000D01*
X128480000Y-157050000D02*
X127460000Y-157050000D01*
X131020000Y-162250000D02*
X130000000Y-162250000D01*
X131020000Y-157050000D02*
X130000000Y-157050000D01*
X133560000Y-162250000D02*
X132540000Y-162250000D01*
X133560000Y-157050000D02*
X132540000Y-157050000D01*
X136100000Y-162250000D02*
X135080000Y-162250000D01*
X136100000Y-157050000D02*
X135080000Y-157050000D01*
X138640000Y-162250000D02*
X137620000Y-162250000D01*
X138640000Y-157050000D02*
X137620000Y-157050000D01*
X141180000Y-162250000D02*
X140160000Y-162250000D01*
X141180000Y-157050000D02*
X140160000Y-157050000D01*
X143720000Y-162250000D02*
X142700000Y-162250000D01*
X143720000Y-157050000D02*
X142700000Y-157050000D01*
X120860000Y-162250000D02*
X120290000Y-162250000D01*
X120860000Y-157050000D02*
X120290000Y-157050000D01*
X145810000Y-162250000D02*
X145240000Y-162250000D01*
X145810000Y-157050000D02*
X145240000Y-157050000D01*
X145240000Y-155610000D02*
X145240000Y-157050000D01*
X120290000Y-157050000D02*
X120290000Y-162250000D01*
X145810000Y-157050000D02*
X145810000Y-162250000D01*
D17*
G36*
X94311333Y-181094000D02*
G01*
X88723333Y-181094000D01*
X88723333Y-176437333D01*
X89400666Y-176437333D01*
X89400666Y-180501333D01*
X89993333Y-180501333D01*
X89993333Y-176945333D01*
X91683231Y-176945333D01*
X91706115Y-178702167D01*
X91729000Y-180459000D01*
X93972666Y-180506248D01*
X93972666Y-179908667D01*
X92279333Y-179908667D01*
X92279333Y-176437333D01*
X89400666Y-176437333D01*
X88723333Y-176437333D01*
X88723333Y-175506000D01*
X94311333Y-175506000D01*
X94311333Y-181094000D01*
G37*
X94311333Y-181094000D02*
X88723333Y-181094000D01*
X88723333Y-176437333D01*
X89400666Y-176437333D01*
X89400666Y-180501333D01*
X89993333Y-180501333D01*
X89993333Y-176945333D01*
X91683231Y-176945333D01*
X91706115Y-178702167D01*
X91729000Y-180459000D01*
X93972666Y-180506248D01*
X93972666Y-179908667D01*
X92279333Y-179908667D01*
X92279333Y-176437333D01*
X89400666Y-176437333D01*
X88723333Y-176437333D01*
X88723333Y-175506000D01*
X94311333Y-175506000D01*
X94311333Y-181094000D01*
D11*
X156250000Y-129000000D02*
X156250000Y-129900000D01*
X156250000Y-129000000D02*
X157150000Y-129000000D01*
X163650000Y-129000000D02*
X162750000Y-129000000D01*
X163650000Y-129000000D02*
X163650000Y-129900000D01*
X163650000Y-148000000D02*
X163650000Y-147100000D01*
X163650000Y-148000000D02*
X162750000Y-148000000D01*
X156250000Y-147100000D02*
X155350000Y-147100000D01*
X156250000Y-148000000D02*
X157150000Y-148000000D01*
X156250000Y-148000000D02*
X156250000Y-147100000D01*
D16*
X147160000Y-172408578D02*
X147160000Y-171891422D01*
X145740000Y-172408578D02*
X145740000Y-171891422D01*
X147191422Y-170210000D02*
X147708578Y-170210000D01*
X147191422Y-168790000D02*
X147708578Y-168790000D01*
X94300000Y-113340000D02*
X95500000Y-113340000D01*
X88500000Y-118150000D02*
X90240000Y-118150000D01*
X88500000Y-111850000D02*
X88500000Y-118150000D01*
X90240000Y-111850000D02*
X88500000Y-111850000D01*
X94300000Y-118150000D02*
X92960000Y-118150000D01*
X94300000Y-116660000D02*
X94300000Y-118150000D01*
X94300000Y-111850000D02*
X92960000Y-111850000D01*
X94300000Y-113340000D02*
X94300000Y-111850000D01*
X105440000Y-109937221D02*
X105440000Y-110262779D01*
X106460000Y-109937221D02*
X106460000Y-110262779D01*
X96340000Y-117641422D02*
X96340000Y-118158578D01*
X97760000Y-117641422D02*
X97760000Y-118158578D01*
X103758578Y-108590000D02*
X103241422Y-108590000D01*
X103758578Y-110010000D02*
X103241422Y-110010000D01*
X105458578Y-115740000D02*
X104941422Y-115740000D01*
X105458578Y-117160000D02*
X104941422Y-117160000D01*
X97760000Y-111858578D02*
X97760000Y-111341422D01*
X96340000Y-111858578D02*
X96340000Y-111341422D01*
X143740000Y-171891422D02*
X143740000Y-172408578D01*
X145160000Y-171891422D02*
X145160000Y-172408578D01*
X155008578Y-149340000D02*
X154491422Y-149340000D01*
X155008578Y-150760000D02*
X154491422Y-150760000D01*
X155008578Y-152840000D02*
X154491422Y-152840000D01*
X155008578Y-154260000D02*
X154491422Y-154260000D01*
X154491422Y-156210000D02*
X155008578Y-156210000D01*
X154491422Y-154790000D02*
X155008578Y-154790000D01*
D11*
X130300000Y-202200000D02*
X129400000Y-202200000D01*
X130300000Y-202200000D02*
X130300000Y-203100000D01*
X130300000Y-211600000D02*
X130300000Y-210700000D01*
X130300000Y-211600000D02*
X129400000Y-211600000D01*
X111300000Y-211600000D02*
X112200000Y-211600000D01*
X111300000Y-211600000D02*
X111300000Y-210700000D01*
X112200000Y-202200000D02*
X112200000Y-201300000D01*
X111300000Y-202200000D02*
X111300000Y-203100000D01*
X111300000Y-202200000D02*
X112200000Y-202200000D01*
X152500000Y-202200000D02*
X151600000Y-202200000D01*
X152500000Y-202200000D02*
X152500000Y-203100000D01*
X152500000Y-211600000D02*
X152500000Y-210700000D01*
X152500000Y-211600000D02*
X151600000Y-211600000D01*
X133500000Y-211600000D02*
X134400000Y-211600000D01*
X133500000Y-211600000D02*
X133500000Y-210700000D01*
X134400000Y-202200000D02*
X134400000Y-201300000D01*
X133500000Y-202200000D02*
X133500000Y-203100000D01*
X133500000Y-202200000D02*
X134400000Y-202200000D01*
D16*
X134350000Y-149750000D02*
X133450000Y-149750000D01*
X133450000Y-148850000D02*
X133450000Y-149750000D01*
X133450000Y-138150000D02*
X133450000Y-137250000D01*
X134350000Y-137250000D02*
X133450000Y-137250000D01*
X145050000Y-137250000D02*
X145950000Y-137250000D01*
X145950000Y-138150000D02*
X145950000Y-137250000D01*
X145050000Y-149750000D02*
X145950000Y-149750000D01*
X145950000Y-148850000D02*
X145950000Y-149750000D01*
X147440000Y-143297936D02*
X147440000Y-144502064D01*
X149260000Y-143297936D02*
X149260000Y-144502064D01*
X111610000Y-159450000D02*
X111610000Y-165460000D01*
X104790000Y-161700000D02*
X104790000Y-165460000D01*
X111610000Y-165460000D02*
X110350000Y-165460000D01*
X104790000Y-165460000D02*
X106050000Y-165460000D01*
D15*
X156500000Y-119950000D02*
X155750000Y-119450000D01*
X156500000Y-118950000D02*
X155750000Y-119450000D01*
X155050000Y-109150000D02*
X155050000Y-110050000D01*
X155050000Y-109150000D02*
X154150000Y-109150000D01*
X129450000Y-134750000D02*
X129450000Y-133850000D01*
X129450000Y-134750000D02*
X130350000Y-134750000D01*
X129450000Y-109150000D02*
X130350000Y-109150000D01*
X129450000Y-109150000D02*
X129450000Y-110050000D01*
X155050000Y-134750000D02*
X155050000Y-133850000D01*
X155050000Y-134750000D02*
X154150000Y-134750000D01*
D14*
G36*
X100500000Y-174700000D02*
G01*
X100500000Y-174400000D01*
X102700000Y-174400000D01*
X102700000Y-174700000D01*
X100500000Y-174700000D01*
G37*
X100500000Y-174700000D02*
X100500000Y-174400000D01*
X102700000Y-174400000D01*
X102700000Y-174700000D01*
X100500000Y-174700000D01*
D18*
X105600000Y-176000000D02*
G75*
G03X105600000Y-176000000I-200000J0D01*
G01*
D14*
X95200000Y-175400000D02*
X96200000Y-175400000D01*
X95200000Y-181000000D02*
X95200000Y-175400000D01*
X98300000Y-181000000D02*
X95200000Y-181000000D01*
X108000000Y-181000000D02*
X104900000Y-181000000D01*
X108000000Y-175400000D02*
X107000000Y-175400000D01*
X108000000Y-181000000D02*
X108000000Y-175400000D01*
D16*
X152908578Y-135640000D02*
X152391422Y-135640000D01*
X152908578Y-137060000D02*
X152391422Y-137060000D01*
X120000000Y-197310000D02*
X122450000Y-197310000D01*
X121800000Y-194090000D02*
X120000000Y-194090000D01*
X153030000Y-198000000D02*
X152100000Y-198000000D01*
X152100000Y-198000000D02*
X152100000Y-197430000D01*
X153030000Y-190000000D02*
X152100000Y-190000000D01*
X152100000Y-190000000D02*
X152100000Y-190570000D01*
X162170000Y-198000000D02*
X163100000Y-198000000D01*
X163100000Y-198000000D02*
X163100000Y-197430000D01*
X163100000Y-190000000D02*
X163100000Y-190570000D01*
X162170000Y-190000000D02*
X163100000Y-190000000D01*
X163900000Y-190570000D02*
X163100000Y-190570000D01*
X105800000Y-196560000D02*
X99790000Y-196560000D01*
X103550000Y-189740000D02*
X99790000Y-189740000D01*
X99790000Y-196560000D02*
X99790000Y-195300000D01*
X99790000Y-189740000D02*
X99790000Y-191000000D01*
X142150000Y-196360000D02*
X144600000Y-196360000D01*
X143950000Y-193140000D02*
X142150000Y-193140000D01*
X118250000Y-194550000D02*
G75*
G03X118250000Y-194550000I-950000J0D01*
G01*
X138950000Y-194300000D02*
G75*
G03X138950000Y-194300000I-950000J0D01*
G01*
X161000000Y-182850000D02*
G75*
G03X161000000Y-182850000I-950000J0D01*
G01*
X103758578Y-112540000D02*
X103241422Y-112540000D01*
X103758578Y-113960000D02*
X103241422Y-113960000D01*
X103241422Y-112010000D02*
X103758578Y-112010000D01*
X103241422Y-110590000D02*
X103758578Y-110590000D01*
X114958578Y-126590000D02*
X114441422Y-126590000D01*
X114958578Y-128010000D02*
X114441422Y-128010000D01*
X111508578Y-126590000D02*
X110991422Y-126590000D01*
X111508578Y-128010000D02*
X110991422Y-128010000D01*
X143860000Y-186458578D02*
X143860000Y-185941422D01*
X142440000Y-186458578D02*
X142440000Y-185941422D01*
X141291422Y-184260000D02*
X141808578Y-184260000D01*
X141291422Y-182840000D02*
X141808578Y-182840000D01*
X114058578Y-179190000D02*
X113541422Y-179190000D01*
X114058578Y-180610000D02*
X113541422Y-180610000D01*
X114958578Y-177190000D02*
X114441422Y-177190000D01*
X114958578Y-178610000D02*
X114441422Y-178610000D01*
X124240000Y-185791422D02*
X124240000Y-186308578D01*
X125660000Y-185791422D02*
X125660000Y-186308578D01*
X114391422Y-199160000D02*
X114908578Y-199160000D01*
X114391422Y-197740000D02*
X114908578Y-197740000D01*
X108010000Y-191308578D02*
X108010000Y-190791422D01*
X106590000Y-191308578D02*
X106590000Y-190791422D01*
X116590000Y-197253922D02*
X116590000Y-197771078D01*
X118010000Y-197253922D02*
X118010000Y-197771078D01*
X157410000Y-175958578D02*
X157410000Y-175441422D01*
X155990000Y-175958578D02*
X155990000Y-175441422D01*
X110310000Y-204658578D02*
X110310000Y-204141422D01*
X108890000Y-204658578D02*
X108890000Y-204141422D01*
X155008578Y-162990000D02*
X154491422Y-162990000D01*
X155008578Y-164410000D02*
X154491422Y-164410000D01*
X154491422Y-162460000D02*
X155008578Y-162460000D01*
X154491422Y-161040000D02*
X155008578Y-161040000D01*
X136541422Y-199210000D02*
X137058578Y-199210000D01*
X136541422Y-197790000D02*
X137058578Y-197790000D01*
X162058578Y-184440000D02*
X161541422Y-184440000D01*
X162058578Y-185860000D02*
X161541422Y-185860000D01*
X155008578Y-156740000D02*
X154491422Y-156740000D01*
X155008578Y-158160000D02*
X154491422Y-158160000D01*
X138740000Y-196941422D02*
X138740000Y-197458578D01*
X140160000Y-196941422D02*
X140160000Y-197458578D01*
X121958578Y-151990000D02*
X121441422Y-151990000D01*
X121958578Y-153410000D02*
X121441422Y-153410000D01*
X121958578Y-149990000D02*
X121441422Y-149990000D01*
X121958578Y-151410000D02*
X121441422Y-151410000D01*
X160340000Y-187641422D02*
X160340000Y-188158578D01*
X161760000Y-187641422D02*
X161760000Y-188158578D01*
X139350000Y-188650000D02*
X139350000Y-187050000D01*
X137550000Y-187050000D02*
X137550000Y-188950000D01*
X94300000Y-103440000D02*
X95500000Y-103440000D01*
X88500000Y-108250000D02*
X90240000Y-108250000D01*
X88500000Y-101950000D02*
X88500000Y-108250000D01*
X90240000Y-101950000D02*
X88500000Y-101950000D01*
X94300000Y-108250000D02*
X92960000Y-108250000D01*
X94300000Y-106760000D02*
X94300000Y-108250000D01*
X94300000Y-101950000D02*
X92960000Y-101950000D01*
X94300000Y-103440000D02*
X94300000Y-101950000D01*
X125580000Y-109170000D02*
X125580000Y-110500000D01*
X124250000Y-109170000D02*
X125580000Y-109170000D01*
X122980000Y-109170000D02*
X122980000Y-111830000D01*
X122980000Y-111830000D02*
X112760000Y-111830000D01*
X122980000Y-109170000D02*
X112760000Y-109170000D01*
X112760000Y-109170000D02*
X112760000Y-111830000D01*
D11*
X108100000Y-202150000D02*
X107200000Y-202150000D01*
X108100000Y-202150000D02*
X108100000Y-203050000D01*
X108100000Y-211550000D02*
X108100000Y-210650000D01*
X108100000Y-211550000D02*
X107200000Y-211550000D01*
X99600000Y-211550000D02*
X100500000Y-211550000D01*
X99600000Y-211550000D02*
X99600000Y-210650000D01*
X100500000Y-202150000D02*
X100500000Y-201250000D01*
X99600000Y-202150000D02*
X99600000Y-203050000D01*
X99600000Y-202150000D02*
X100500000Y-202150000D01*
X157200000Y-156950000D02*
X157200000Y-157850000D01*
X157200000Y-156950000D02*
X158100000Y-156950000D01*
X166600000Y-156950000D02*
X165700000Y-156950000D01*
X166600000Y-156950000D02*
X166600000Y-157850000D01*
X166600000Y-165450000D02*
X166600000Y-164550000D01*
X166600000Y-165450000D02*
X165700000Y-165450000D01*
X157200000Y-164550000D02*
X156300000Y-164550000D01*
X157200000Y-165450000D02*
X158100000Y-165450000D01*
X157200000Y-165450000D02*
X157200000Y-164550000D01*
D16*
X121040000Y-122787221D02*
X121040000Y-123112779D01*
X122060000Y-122787221D02*
X122060000Y-123112779D01*
X106000000Y-199000000D02*
X102150000Y-199000000D01*
X106000000Y-197000000D02*
X102150000Y-197000000D01*
X106000000Y-199000000D02*
X106000000Y-197000000D01*
X110560000Y-209685000D02*
X110560000Y-207000000D01*
X108640000Y-209685000D02*
X110560000Y-209685000D01*
X108640000Y-207000000D02*
X108640000Y-209685000D01*
X96340000Y-107741422D02*
X96340000Y-108258578D01*
X97760000Y-107741422D02*
X97760000Y-108258578D01*
X120002064Y-125290000D02*
X118797936Y-125290000D01*
X120002064Y-128010000D02*
X118797936Y-128010000D01*
X114908578Y-195740000D02*
X114391422Y-195740000D01*
X114908578Y-197160000D02*
X114391422Y-197160000D01*
X162340000Y-187641422D02*
X162340000Y-188158578D01*
X163760000Y-187641422D02*
X163760000Y-188158578D01*
X159758578Y-198640000D02*
X159241422Y-198640000D01*
X159758578Y-200060000D02*
X159241422Y-200060000D01*
X153391422Y-189360000D02*
X153908578Y-189360000D01*
X153391422Y-187940000D02*
X153908578Y-187940000D01*
X153391422Y-187410000D02*
X153908578Y-187410000D01*
X153391422Y-185990000D02*
X153908578Y-185990000D01*
X108010000Y-195258578D02*
X108010000Y-194741422D01*
X106590000Y-195258578D02*
X106590000Y-194741422D01*
X98997936Y-189260000D02*
X100202064Y-189260000D01*
X98997936Y-186540000D02*
X100202064Y-186540000D01*
X127752064Y-196490000D02*
X126547936Y-196490000D01*
X127752064Y-199210000D02*
X126547936Y-199210000D01*
X123090000Y-195291422D02*
X123090000Y-195808578D01*
X124510000Y-195291422D02*
X124510000Y-195808578D01*
X154491422Y-166410000D02*
X155008578Y-166410000D01*
X154491422Y-164990000D02*
X155008578Y-164990000D01*
X137058578Y-195840000D02*
X136541422Y-195840000D01*
X137058578Y-197260000D02*
X136541422Y-197260000D01*
X154491422Y-160110000D02*
X155008578Y-160110000D01*
X154491422Y-158690000D02*
X155008578Y-158690000D01*
X149002064Y-196340000D02*
X147797936Y-196340000D01*
X149002064Y-199060000D02*
X147797936Y-199060000D01*
X145290000Y-194141422D02*
X145290000Y-194658578D01*
X146710000Y-194141422D02*
X146710000Y-194658578D01*
X113780000Y-133720000D02*
X113780000Y-139120000D01*
X127380000Y-136120000D02*
X127380000Y-138845000D01*
X127380000Y-136120000D02*
X124930000Y-133720000D01*
X113780000Y-133720000D02*
X124930000Y-133720000D01*
X124930000Y-147320000D02*
X127380000Y-144920000D01*
X125530000Y-143330000D02*
X125530000Y-142080000D01*
X126155000Y-142705000D02*
X124905000Y-142705000D01*
X127380000Y-144920000D02*
X127380000Y-142195000D01*
X124930000Y-147320000D02*
X113780000Y-147320000D01*
X113780000Y-147320000D02*
X113780000Y-141920000D01*
X163750000Y-176060000D02*
X163490000Y-176060000D01*
X161210000Y-176060000D02*
X159440000Y-176060000D01*
X159440000Y-176060000D02*
X159440000Y-175680000D01*
X159440000Y-168440000D02*
X161210000Y-168440000D01*
X163490000Y-168440000D02*
X163750000Y-168440000D01*
X159440000Y-168440000D02*
X159440000Y-168820000D01*
X74250000Y-172200000D02*
X74250000Y-171650000D01*
X69350000Y-171650000D02*
X69750000Y-171650000D01*
X69350000Y-171250000D02*
X69350000Y-171650000D01*
X69350000Y-166350000D02*
X69750000Y-166350000D01*
X69350000Y-166750000D02*
X69350000Y-166350000D01*
X74650000Y-171650000D02*
X74250000Y-171650000D01*
X74650000Y-171250000D02*
X74650000Y-171650000D01*
X74650000Y-166350000D02*
X74000000Y-166350000D01*
X74650000Y-167000000D02*
X74650000Y-166350000D01*
X74250000Y-185200000D02*
X74250000Y-184650000D01*
X69350000Y-184650000D02*
X69750000Y-184650000D01*
X69350000Y-184250000D02*
X69350000Y-184650000D01*
X69350000Y-179350000D02*
X69750000Y-179350000D01*
X69350000Y-179750000D02*
X69350000Y-179350000D01*
X74650000Y-184650000D02*
X74250000Y-184650000D01*
X74650000Y-184250000D02*
X74650000Y-184650000D01*
X74650000Y-179350000D02*
X74000000Y-179350000D01*
X74650000Y-180000000D02*
X74650000Y-179350000D01*
X155700000Y-171550000D02*
X157000000Y-171550000D01*
X157250000Y-173350000D02*
X155700000Y-173350000D01*
X107040000Y-106600000D02*
X107040000Y-101400000D01*
X107040000Y-101400000D02*
X107610000Y-101400000D01*
X109130000Y-101400000D02*
X110150000Y-101400000D01*
X111670000Y-101400000D02*
X112690000Y-101400000D01*
X114210000Y-101400000D02*
X115230000Y-101400000D01*
X116750000Y-101400000D02*
X117770000Y-101400000D01*
X119290000Y-101400000D02*
X120310000Y-101400000D01*
X121830000Y-101400000D02*
X122850000Y-101400000D01*
X124370000Y-101400000D02*
X125390000Y-101400000D01*
X126910000Y-101400000D02*
X127930000Y-101400000D01*
X129450000Y-101400000D02*
X130470000Y-101400000D01*
X131990000Y-101400000D02*
X133010000Y-101400000D01*
X134530000Y-101400000D02*
X135550000Y-101400000D01*
X137070000Y-101400000D02*
X138090000Y-101400000D01*
X139610000Y-101400000D02*
X140630000Y-101400000D01*
X142150000Y-101400000D02*
X143170000Y-101400000D01*
X144690000Y-101400000D02*
X145710000Y-101400000D01*
X147230000Y-101400000D02*
X148250000Y-101400000D01*
X149770000Y-101400000D02*
X150790000Y-101400000D01*
X152310000Y-101400000D02*
X153330000Y-101400000D01*
X154850000Y-101400000D02*
X155870000Y-101400000D01*
X157390000Y-101400000D02*
X157960000Y-101400000D01*
X157960000Y-106600000D02*
X157960000Y-101400000D01*
X107040000Y-106600000D02*
X107610000Y-106600000D01*
X109130000Y-106600000D02*
X110150000Y-106600000D01*
X111670000Y-106600000D02*
X112690000Y-106600000D01*
X114210000Y-106600000D02*
X115230000Y-106600000D01*
X116750000Y-106600000D02*
X117770000Y-106600000D01*
X119290000Y-106600000D02*
X120310000Y-106600000D01*
X121830000Y-106600000D02*
X122850000Y-106600000D01*
X124370000Y-106600000D02*
X125390000Y-106600000D01*
X126910000Y-106600000D02*
X127930000Y-106600000D01*
X129450000Y-106600000D02*
X130470000Y-106600000D01*
X131990000Y-106600000D02*
X133010000Y-106600000D01*
X134530000Y-106600000D02*
X135550000Y-106600000D01*
X137070000Y-106600000D02*
X138090000Y-106600000D01*
X139610000Y-106600000D02*
X140630000Y-106600000D01*
X142150000Y-106600000D02*
X143170000Y-106600000D01*
X144690000Y-106600000D02*
X145710000Y-106600000D01*
X147230000Y-106600000D02*
X148250000Y-106600000D01*
X149770000Y-106600000D02*
X150790000Y-106600000D01*
X152310000Y-106600000D02*
X153330000Y-106600000D01*
X154850000Y-106600000D02*
X155870000Y-106600000D01*
X157390000Y-106600000D02*
X157960000Y-106600000D01*
X107610000Y-101400000D02*
X107610000Y-100040000D01*
X151760000Y-143297936D02*
X151760000Y-144502064D01*
X149940000Y-143297936D02*
X149940000Y-144502064D01*
X155350000Y-144404128D02*
X155350000Y-143200000D01*
X152350000Y-144404128D02*
X152350000Y-143200000D01*
X127950000Y-152950000D02*
X132250000Y-152950000D01*
X132250000Y-152950000D02*
X132250000Y-147250000D01*
X127950000Y-152950000D02*
X127950000Y-147250000D01*
X142158578Y-180290000D02*
X141641422Y-180290000D01*
X142158578Y-181710000D02*
X141641422Y-181710000D01*
X142158578Y-178340000D02*
X141641422Y-178340000D01*
X142158578Y-179760000D02*
X141641422Y-179760000D01*
X102290000Y-145041422D02*
X102290000Y-145558578D01*
X103710000Y-145041422D02*
X103710000Y-145558578D01*
X98510000Y-204658578D02*
X98510000Y-204141422D01*
X97090000Y-204658578D02*
X97090000Y-204141422D01*
X122240000Y-185791422D02*
X122240000Y-186308578D01*
X123660000Y-185791422D02*
X123660000Y-186308578D01*
X86710000Y-204658578D02*
X86710000Y-204141422D01*
X85290000Y-204658578D02*
X85290000Y-204141422D01*
X119330000Y-167080000D02*
X118000000Y-167080000D01*
X119330000Y-165750000D02*
X119330000Y-167080000D01*
X119330000Y-164480000D02*
X116670000Y-164480000D01*
X116670000Y-164480000D02*
X116670000Y-151720000D01*
X119330000Y-164480000D02*
X119330000Y-151720000D01*
X119330000Y-151720000D02*
X116670000Y-151720000D01*
X146985000Y-180040000D02*
X144300000Y-180040000D01*
X146985000Y-181960000D02*
X146985000Y-180040000D01*
X144300000Y-181960000D02*
X146985000Y-181960000D01*
X146985000Y-178090000D02*
X144300000Y-178090000D01*
X146985000Y-180010000D02*
X146985000Y-178090000D01*
X144300000Y-180010000D02*
X146985000Y-180010000D01*
X102040000Y-140015000D02*
X102040000Y-142700000D01*
X103960000Y-140015000D02*
X102040000Y-140015000D01*
X103960000Y-142700000D02*
X103960000Y-140015000D01*
X98760000Y-209685000D02*
X98760000Y-207000000D01*
X96840000Y-209685000D02*
X98760000Y-209685000D01*
X96840000Y-207000000D02*
X96840000Y-209685000D01*
X86960000Y-209685000D02*
X86960000Y-207000000D01*
X85040000Y-209685000D02*
X86960000Y-209685000D01*
X85040000Y-207000000D02*
X85040000Y-209685000D01*
X125041422Y-167260000D02*
X125558578Y-167260000D01*
X125041422Y-165840000D02*
X125558578Y-165840000D01*
X132160000Y-144002064D02*
X132160000Y-142797936D01*
X130340000Y-144002064D02*
X130340000Y-142797936D01*
X108950000Y-155000000D02*
G75*
G03X108950000Y-155000000I-950000J0D01*
G01*
X128350000Y-132800000D02*
G75*
G03X128350000Y-132800000I-950000J0D01*
G01*
X87197936Y-186540000D02*
X88402064Y-186540000D01*
X87197936Y-189260000D02*
X88402064Y-189260000D01*
X74102064Y-186490000D02*
X72897936Y-186490000D01*
X74102064Y-189210000D02*
X72897936Y-189210000D01*
X111047936Y-117710000D02*
X112252064Y-117710000D01*
X111047936Y-114990000D02*
X112252064Y-114990000D01*
X157797936Y-118560000D02*
X159002064Y-118560000D01*
X157797936Y-115840000D02*
X159002064Y-115840000D01*
X94000000Y-196560000D02*
X87990000Y-196560000D01*
X91750000Y-189740000D02*
X87990000Y-189740000D01*
X87990000Y-196560000D02*
X87990000Y-195300000D01*
X87990000Y-189740000D02*
X87990000Y-191000000D01*
X81200000Y-196560000D02*
X75190000Y-196560000D01*
X78950000Y-189740000D02*
X75190000Y-189740000D01*
X75190000Y-196560000D02*
X75190000Y-195300000D01*
X75190000Y-189740000D02*
X75190000Y-191000000D01*
X96160000Y-191308578D02*
X96160000Y-190791422D01*
X94740000Y-191308578D02*
X94740000Y-190791422D01*
X83410000Y-191308578D02*
X83410000Y-190791422D01*
X81990000Y-191308578D02*
X81990000Y-190791422D01*
X126741422Y-123960000D02*
X127258578Y-123960000D01*
X126741422Y-122540000D02*
X127258578Y-122540000D01*
X127258578Y-120290000D02*
X126741422Y-120290000D01*
X127258578Y-121710000D02*
X126741422Y-121710000D01*
X149458578Y-135640000D02*
X148941422Y-135640000D01*
X149458578Y-137060000D02*
X148941422Y-137060000D01*
D11*
X96350000Y-202150000D02*
X95450000Y-202150000D01*
X96350000Y-202150000D02*
X96350000Y-203050000D01*
X96350000Y-211550000D02*
X96350000Y-210650000D01*
X96350000Y-211550000D02*
X95450000Y-211550000D01*
X87850000Y-211550000D02*
X88750000Y-211550000D01*
X87850000Y-211550000D02*
X87850000Y-210650000D01*
X88750000Y-202150000D02*
X88750000Y-201250000D01*
X87850000Y-202150000D02*
X87850000Y-203050000D01*
X87850000Y-202150000D02*
X88750000Y-202150000D01*
X84700000Y-202150000D02*
X83800000Y-202150000D01*
X84700000Y-202150000D02*
X84700000Y-203050000D01*
X84700000Y-211550000D02*
X84700000Y-210650000D01*
X84700000Y-211550000D02*
X83800000Y-211550000D01*
X76200000Y-211550000D02*
X77100000Y-211550000D01*
X76200000Y-211550000D02*
X76200000Y-210650000D01*
X77100000Y-202150000D02*
X77100000Y-201250000D01*
X76200000Y-202150000D02*
X76200000Y-203050000D01*
X76200000Y-202150000D02*
X77100000Y-202150000D01*
D16*
X94300000Y-199000000D02*
X90450000Y-199000000D01*
X94300000Y-197000000D02*
X90450000Y-197000000D01*
X94300000Y-199000000D02*
X94300000Y-197000000D01*
X83000000Y-199000000D02*
X79150000Y-199000000D01*
X83000000Y-197000000D02*
X79150000Y-197000000D01*
X83000000Y-199000000D02*
X83000000Y-197000000D01*
X96180000Y-194808578D02*
X96180000Y-194291422D01*
X94760000Y-194808578D02*
X94760000Y-194291422D01*
X97760000Y-102158578D02*
X97760000Y-101641422D01*
X96340000Y-102158578D02*
X96340000Y-101641422D01*
X122160000Y-119958578D02*
X122160000Y-119441422D01*
X120740000Y-119958578D02*
X120740000Y-119441422D01*
X124240000Y-116891422D02*
X124240000Y-117408578D01*
X125660000Y-116891422D02*
X125660000Y-117408578D01*
X127090000Y-116941422D02*
X127090000Y-117458578D01*
X128510000Y-116941422D02*
X128510000Y-117458578D01*
D11*
X91650000Y-165520000D02*
X93850000Y-165520000D01*
X91650000Y-165520000D02*
X91650000Y-164220000D01*
X91650000Y-165520000D02*
X90350000Y-165520000D01*
X91650000Y-154720000D02*
X90750000Y-154720000D01*
X91650000Y-154720000D02*
X91650000Y-155620000D01*
X80850000Y-154720000D02*
X80850000Y-155620000D01*
X80850000Y-154720000D02*
X81750000Y-154720000D01*
X80850000Y-165520000D02*
X81750000Y-165520000D01*
X80850000Y-165520000D02*
X80850000Y-164620000D01*
D16*
X101650000Y-168300000D02*
G75*
G03X101650000Y-168300000I-950000J0D01*
G01*
X99841422Y-164560000D02*
X100358578Y-164560000D01*
X99841422Y-163140000D02*
X100358578Y-163140000D01*
X100060000Y-157871078D02*
X100060000Y-157353922D01*
X98640000Y-157871078D02*
X98640000Y-157353922D01*
X100358578Y-165140000D02*
X99841422Y-165140000D01*
X100358578Y-166560000D02*
X99841422Y-166560000D01*
X96650000Y-157353922D02*
X96650000Y-157871078D01*
X98070000Y-157353922D02*
X98070000Y-157871078D01*
X98080000Y-161298578D02*
X98080000Y-160781422D01*
X96660000Y-161298578D02*
X96660000Y-160781422D01*
X100090000Y-161308578D02*
X100090000Y-160791422D01*
X98670000Y-161308578D02*
X98670000Y-160791422D01*
X75190000Y-181841422D02*
X75190000Y-182358578D01*
X76610000Y-181841422D02*
X76610000Y-182358578D01*
X75190000Y-168841422D02*
X75190000Y-169358578D01*
X76610000Y-168841422D02*
X76610000Y-169358578D01*
X68910000Y-169168578D02*
X68910000Y-168651422D01*
X67490000Y-169168578D02*
X67490000Y-168651422D01*
X68830000Y-182208578D02*
X68830000Y-181691422D01*
X67410000Y-182208578D02*
X67410000Y-181691422D01*
X128350000Y-113200000D02*
G75*
G03X128350000Y-113200000I-950000J0D01*
G01*
X115660000Y-151608578D02*
X115660000Y-151091422D01*
X114240000Y-151608578D02*
X114240000Y-151091422D01*
X113660000Y-151608578D02*
X113660000Y-151091422D01*
X112240000Y-151608578D02*
X112240000Y-151091422D01*
X114340000Y-115416422D02*
X114340000Y-115933578D01*
X115760000Y-115416422D02*
X115760000Y-115933578D01*
X109008578Y-109040000D02*
X108491422Y-109040000D01*
X109008578Y-110460000D02*
X108491422Y-110460000D01*
X105941422Y-158760000D02*
X106458578Y-158760000D01*
X105941422Y-157340000D02*
X106458578Y-157340000D01*
X128100000Y-184000000D02*
X128100000Y-188000000D01*
X131400000Y-184000000D02*
X128100000Y-184000000D01*
X127890000Y-181010000D02*
X127890000Y-182300000D01*
X127440000Y-181010000D02*
X127890000Y-181010000D01*
X127440000Y-180560000D02*
X127440000Y-181010000D01*
X127440000Y-173790000D02*
X127890000Y-173790000D01*
X127440000Y-174240000D02*
X127440000Y-173790000D01*
X134660000Y-181010000D02*
X134210000Y-181010000D01*
X134660000Y-180560000D02*
X134660000Y-181010000D01*
X134660000Y-173790000D02*
X134210000Y-173790000D01*
X134660000Y-174240000D02*
X134660000Y-173790000D01*
X143558578Y-176190000D02*
X143041422Y-176190000D01*
X143558578Y-177610000D02*
X143041422Y-177610000D01*
X143558578Y-174290000D02*
X143041422Y-174290000D01*
X143558578Y-175710000D02*
X143041422Y-175710000D01*
X142360000Y-171708578D02*
X142360000Y-171191422D01*
X140940000Y-171708578D02*
X140940000Y-171191422D01*
X83417500Y-194808578D02*
X83417500Y-194291422D01*
X81997500Y-194808578D02*
X81997500Y-194291422D01*
X109958578Y-157340000D02*
X109441422Y-157340000D01*
X109958578Y-158760000D02*
X109441422Y-158760000D01*
X133435000Y-187133578D02*
X133435000Y-186616422D01*
X132015000Y-187133578D02*
X132015000Y-186616422D01*
X126240000Y-185791422D02*
X126240000Y-186308578D01*
X127660000Y-185791422D02*
X127660000Y-186308578D01*
X120240000Y-185791422D02*
X120240000Y-186308578D01*
X121660000Y-185791422D02*
X121660000Y-186308578D01*
X117858578Y-179140000D02*
X117341422Y-179140000D01*
X117858578Y-180560000D02*
X117341422Y-180560000D01*
X133666422Y-184885000D02*
X134183578Y-184885000D01*
X133666422Y-183465000D02*
X134183578Y-183465000D01*
X123908578Y-176690000D02*
X123391422Y-176690000D01*
X123908578Y-178110000D02*
X123391422Y-178110000D01*
M02*
