M48
; DRILL file {KiCad 5.1.5-52549c5~86~ubuntu18.04.1} date Fri 03 Apr 2020 10:47:48 PM CEST
; FORMAT={3:3/ absolute / metric / suppress leading zeros}
; #@! TF.CreationDate,2020-04-03T22:47:48+02:00
; #@! TF.GenerationSoftware,Kicad,Pcbnew,5.1.5-52549c5~86~ubuntu18.04.1
; #@! TF.FileFunction,Plated,1,2,PTH
FMAT,2
METRIC,TZ
T1C0.300
T2C0.700
T3C0.750
T4C1.000
T5C1.400
T6C1.500
T7C1.800
%
G90
G05
T1
X67500Y-155000
X67500Y-162000
X67500Y-187500
X67500Y-192500
X67500Y-197500
X67500Y-202500
X67500Y-208500
X69000Y-165500
X70500Y-200000
X71000Y-193000
X71000Y-197000
X71100Y-188700
X71250Y-186350
X71500Y-155000
X71500Y-163500
X75000Y-200000
X75000Y-205000
X75000Y-208500
X75500Y-155000
X75500Y-159500
X75500Y-163500
X75900Y-179900
X75950Y-171400
X76000Y-167000
X76100Y-175500
X77300Y-174700
X77300Y-181200
X77500Y-197500
X77700Y-168100
X78100Y-170900
X78450Y-194300
X78600Y-192500
X79300Y-181600
X79500Y-183200
X79900Y-174000
X80000Y-208500
X80150Y-169850
X80500Y-200500
X81000Y-181700
X81000Y-183250
X82200Y-175700
X82300Y-173750
X83000Y-183400
X83000Y-188000
X83000Y-206500
X83500Y-194000
X83650Y-191650
X83850Y-175650
X84000Y-200500
X84350Y-174050
X84600Y-208950
X86500Y-198000
X88500Y-200500
X88500Y-208500
X89600Y-186450
X90050Y-189100
X90100Y-100800
X90100Y-107000
X90100Y-110700
X90100Y-116900
X90500Y-191000
X91000Y-196000
X91800Y-192750
X92000Y-199500
X93000Y-207500
X93100Y-103200
X93100Y-109400
X93100Y-113100
X93100Y-119300
X93500Y-104400
X93500Y-105800
X93500Y-114300
X93500Y-115700
X95000Y-183100
X95500Y-186600
X95500Y-200500
X95700Y-101000
X95700Y-110700
X95700Y-118650
X95950Y-108250
X96350Y-209000
X96459Y-115885
X96500Y-104000
X96500Y-105900
X96500Y-113900
X96500Y-191800
X96500Y-193450
X97000Y-198000
X97350Y-114750
X97950Y-163400
X97950Y-165850
X98032Y-113450
X98037Y-115935
X98250Y-100500
X98400Y-118750
X98550Y-107750
X99050Y-174350
X99450Y-112261
X99650Y-116550
X99882Y-110263
X100400Y-115300
X100400Y-161000
X100500Y-200000
X100650Y-159500
X100825Y-162825
X101000Y-100500
X101000Y-138500
X101000Y-144000
X101000Y-148500
X101000Y-208500
X101100Y-114050
X101350Y-186450
X101450Y-111000
X101500Y-112600
X101550Y-109950
X101600Y-174350
X101750Y-108050
X101800Y-189100
X102133Y-161413
X102500Y-191000
X103000Y-118500
X103000Y-196500
X103050Y-139300
X103150Y-116450
X103250Y-174350
X103500Y-187500
X103500Y-200000
X103550Y-192750
X104000Y-148500
X104500Y-207000
X104800Y-117700
X104800Y-172100
X105000Y-138000
X105000Y-144500
X105000Y-174600
X105500Y-114850
X105500Y-162500
X105500Y-164500
X105500Y-167000
X105500Y-168800
X105550Y-111950
X105600Y-113450
X106000Y-100500
X106000Y-107500
X106950Y-175550
X107100Y-108750
X107300Y-173000
X107500Y-200000
X107600Y-156800
X107945Y-183155
X108000Y-111000
X108050Y-180955
X108150Y-113450
X108150Y-208850
X108200Y-162300
X108200Y-164300
X108250Y-191800
X108250Y-193450
X109000Y-197500
X109050Y-175850
X109150Y-112550
X109300Y-173950
X109400Y-156800
X109500Y-129500
X109500Y-133500
X109500Y-187500
X110050Y-114400
X110500Y-193000
X111000Y-131000
X111000Y-162500
X111000Y-164500
X111000Y-167000
X111900Y-176300
X112000Y-196500
X112000Y-200000
X112050Y-115400
X112500Y-208500
X112500Y-188000
X113000Y-129500
X113000Y-191000
X113100Y-169300
X113200Y-175850
X113500Y-135500
X113500Y-138500
X113500Y-143500
X113500Y-159500
X113500Y-162000
X113500Y-164500
X113500Y-167000
X114155Y-167945
X114450Y-117475
X114500Y-101400
X114500Y-190000
X114700Y-182100
X114700Y-184650
X114750Y-173400
X114850Y-128500
X114850Y-176650
X115000Y-193500
X115050Y-141900
X115500Y-108750
X115550Y-182950
X115600Y-168000
X115850Y-117475
X115850Y-184100
X116000Y-133000
X116000Y-145500
X116000Y-200500
X116850Y-176550
X116900Y-178550
X117050Y-167950
X117350Y-181100
X117500Y-143250
X117750Y-115250
X117800Y-147700
X117900Y-128700
X117900Y-138100
X118000Y-109000
X118440Y-141800
X118450Y-167950
X118460Y-139330
X118500Y-108100
X118550Y-176650
X119000Y-198000
X119000Y-201000
X119086Y-181296
X119300Y-126600
X119493Y-182768
X119550Y-177800
X119750Y-108500
X119750Y-115250
X119750Y-186350
X120000Y-167700
X120000Y-208500
X120189Y-181184
X120500Y-133000
X120500Y-148250
X120550Y-117900
X120558Y-177950
X120700Y-176122
X120750Y-166900
X121000Y-182000
X121225Y-183525
X121250Y-154850
X121500Y-115250
X121500Y-108500
X121700Y-167850
X122000Y-128600
X122050Y-117850
X122100Y-176250
X122350Y-183350
X122500Y-101400
X122500Y-200000
X123000Y-115250
X123000Y-157150
X123050Y-170550
X123296Y-174785
X123300Y-138100
X123450Y-143200
X123450Y-147750
X123500Y-133750
X123550Y-197650
X124500Y-145500
X124500Y-199500
X124600Y-171250
X124600Y-190150
X124650Y-174200
X124800Y-119200
X125000Y-132000
X125000Y-123250
X125000Y-136000
X125000Y-208500
X125100Y-194800
X125100Y-195850
X125299Y-180850
X125792Y-174076
X126250Y-165300
X126300Y-119050
X126500Y-117750
X126650Y-187750
X126700Y-154800
X127000Y-130000
X127150Y-181350
X127450Y-109150
X127750Y-191500
X127750Y-193850
X127800Y-171850
X127850Y-166800
X128000Y-119250
X128000Y-157100
X128153Y-176642
X128850Y-179050
X129000Y-118250
X129000Y-138000
X129050Y-177500
X129500Y-142500
X129500Y-200500
X129553Y-171876
X129921Y-168250
X130000Y-127000
X130000Y-140500
X130200Y-101400
X130450Y-177350
X130600Y-157100
X130604Y-180221
X130782Y-175828
X130950Y-183450
X131000Y-196000
X131200Y-168600
X131500Y-138000
X131500Y-140000
X131500Y-208500
X131550Y-170100
X131647Y-174963
X132215Y-180105
X132581Y-174571
X132650Y-169200
X132950Y-167000
X133150Y-157100
X133750Y-177350
X133869Y-175550
X133875Y-186500
X134000Y-200000
X134200Y-169350
X134400Y-166900
X134500Y-138000
X134500Y-140000
X134500Y-196000
X135250Y-133500
X135350Y-173594
X135550Y-186114
X135550Y-167000
X135625Y-184875
X135650Y-157100
X136000Y-125000
X136002Y-169185
X136050Y-181850
X136300Y-170950
X136570Y-188950
X136650Y-165500
X137000Y-169250
X137200Y-182950
X137500Y-138000
X137500Y-140000
X137500Y-142500
X137569Y-175919
X137700Y-106700
X137720Y-179780
X137950Y-165600
X138000Y-129000
X138000Y-134000
X138287Y-185649
X138453Y-169178
X138500Y-208500
X138565Y-180559
X138600Y-189700
X138800Y-166950
X138900Y-183950
X139000Y-114000
X139000Y-121000
X139150Y-172150
X139375Y-154925
X139450Y-169100
X139475Y-181675
X139650Y-170600
X139755Y-193605
X139800Y-178300
X139825Y-187825
X140050Y-166800
X140315Y-173111
X140600Y-189150
X140750Y-193500
X141500Y-200500
X141700Y-166800
X141850Y-189550
X141900Y-154925
X141950Y-197150
X142000Y-111000
X142800Y-101400
X143000Y-116000
X143250Y-172400
X144000Y-124000
X144000Y-129000
X144000Y-134000
X144300Y-189500
X144450Y-154925
X145000Y-200500
X145500Y-197000
X145600Y-177650
X145650Y-182300
X146350Y-184050
X146600Y-191900
X146700Y-174700
X146700Y-175900
X146800Y-167400
X146800Y-185150
X146850Y-183000
X146900Y-163600
X146950Y-155500
X146950Y-157400
X147000Y-112000
X147000Y-208500
X147400Y-195000
X147900Y-101300
X148000Y-121000
X148000Y-126000
X148000Y-131000
X148000Y-200000
X150000Y-117000
X151000Y-128000
X151250Y-182900
X151400Y-167400
X151400Y-184050
X151500Y-174500
X151500Y-176000
X151850Y-185200
X152000Y-199500
X152250Y-155450
X152300Y-163650
X152400Y-157350
X152500Y-171900
X153000Y-203000
X153550Y-135050
X153600Y-181600
X154000Y-117000
X154400Y-185200
X154600Y-168300
X154600Y-171450
X154800Y-190000
X154850Y-160450
X155000Y-111000
X155000Y-205000
X155000Y-208500
X155500Y-178600
X155600Y-106800
X155700Y-170900
X155800Y-186200
X155800Y-188200
X156000Y-122000
X156000Y-128000
X156000Y-132000
X156000Y-201500
X156750Y-155450
X156750Y-166250
X157000Y-157500
X157400Y-199750
X157900Y-181500
X158050Y-176500
X158150Y-170900
X158650Y-197900
X158950Y-168700
X159000Y-156500
X159700Y-175750
X159750Y-115250
X159750Y-119000
X160000Y-124500
X160300Y-179000
X160500Y-165500
X161150Y-117050
X161500Y-158000
X161500Y-162500
X162200Y-167700
X162250Y-176800
X163500Y-119500
X163500Y-127500
X163500Y-202500
X163500Y-208500
X163600Y-181700
X163800Y-185200
X164000Y-149000
X164000Y-156000
X164000Y-160000
X164000Y-164500
T2
X100700Y-168300
X160050Y-182850
X127400Y-132800
X108000Y-155000
X117300Y-194550
X127400Y-113200
X138000Y-194300
T3
X151975Y-191460
X151975Y-194000
X151975Y-196540
X163225Y-191460
X163225Y-194000
X163225Y-196540
T4
X114090Y-110500
X116630Y-110500
X119170Y-110500
X121710Y-110500
X124250Y-110500
X118000Y-153050
X118000Y-155590
X118000Y-158130
X118000Y-160670
X118000Y-163210
X118000Y-165750
T5
X90350Y-203450
X93850Y-203450
X136000Y-203500
X139500Y-203500
X143000Y-203500
X146500Y-203500
X150000Y-203500
X102100Y-203450
X105600Y-203450
X113800Y-203500
X117300Y-203500
X120800Y-203500
X124300Y-203500
X127800Y-203500
X160750Y-131500
X160750Y-135000
X160750Y-138500
X160750Y-142000
X160750Y-145500
X78700Y-203450
X82200Y-203450
X158500Y-159450
X158500Y-162950
T6
X132090Y-111790
X132090Y-121950
X132090Y-132110
X152410Y-119410
X152410Y-124490
X152410Y-132110
T7
X109640Y-104000
X155360Y-104000
T0
M30
