M48
; DRILL file {KiCad 5.1.5-52549c5~86~ubuntu18.04.1} date Fri 03 Apr 2020 10:47:48 PM CEST
; FORMAT={3:3/ absolute / metric / suppress leading zeros}
; #@! TF.CreationDate,2020-04-03T22:47:48+02:00
; #@! TF.GenerationSoftware,Kicad,Pcbnew,5.1.5-52549c5~86~ubuntu18.04.1
; #@! TF.FileFunction,NonPlated,1,2,NPTH
FMAT,2
METRIC,TZ
T1C1.000
T2C1.200
T3C2.700
%
G90
G05
T1
X108370Y-102730
X108370Y-105270
X110910Y-102730
X110910Y-105270
X113450Y-102730
X113450Y-105270
X115990Y-102730
X115990Y-105270
X118530Y-102730
X118530Y-105270
X121070Y-102730
X121070Y-105270
X123610Y-102730
X123610Y-105270
X126150Y-102730
X126150Y-105270
X128690Y-102730
X128690Y-105270
X131230Y-102730
X131230Y-105270
X133770Y-102730
X133770Y-105270
X136310Y-102730
X136310Y-105270
X138850Y-102730
X138850Y-105270
X141390Y-102730
X141390Y-105270
X143930Y-102730
X143930Y-105270
X146470Y-102730
X146470Y-105270
X149010Y-102730
X149010Y-105270
X151550Y-102730
X151550Y-105270
X154090Y-102730
X154090Y-105270
X156630Y-102730
X156630Y-105270
T2
X86250Y-160120
X71000Y-182000
X157110Y-192730
X71000Y-169000
T3
X103500Y-153000
X161450Y-152950
X160000Y-205000
X71000Y-205000
X103500Y-104000
X161500Y-104000
X71000Y-159000
T0
M30
