G04 #@! TF.GenerationSoftware,KiCad,Pcbnew,5.1.5-52549c5~86~ubuntu18.04.1*
G04 #@! TF.CreationDate,2020-04-03T22:47:33+02:00*
G04 #@! TF.ProjectId,7001-ventilator_mainboard,37303031-2d76-4656-9e74-696c61746f72,2.0*
G04 #@! TF.SameCoordinates,Original*
G04 #@! TF.FileFunction,Profile,NP*
%FSLAX46Y46*%
G04 Gerber Fmt 4.6, Leading zero omitted, Abs format (unit mm)*
G04 Created by KiCad (PCBNEW 5.1.5-52549c5~86~ubuntu18.04.1) date 2020-04-03 22:47:33*
%MOMM*%
%LPD*%
G04 APERTURE LIST*
%ADD10C,0.200000*%
G04 APERTURE END LIST*
D10*
X100000000Y-149800000D02*
X100000000Y-138000000D01*
X97000000Y-153500000D02*
X66000000Y-153500000D01*
X163400000Y-177150000D02*
X163400000Y-167350000D01*
X165000000Y-178750000D02*
X165000000Y-210000000D01*
X165000000Y-178750000D02*
G75*
G02X163400000Y-177150000I0J1600000D01*
G01*
X163400000Y-167350000D02*
G75*
G02X165000000Y-165750000I1600000J0D01*
G01*
X100000000Y-150500000D02*
X100000000Y-149800000D01*
X101000000Y-137000000D02*
X104000000Y-137000000D01*
X105000000Y-136000000D02*
G75*
G02X104000000Y-137000000I-1000000J0D01*
G01*
X104000000Y-120000000D02*
X88000000Y-120000000D01*
X100000000Y-150500000D02*
G75*
G02X97000000Y-153500000I-3000000J0D01*
G01*
X100000000Y-138000000D02*
G75*
G02X101000000Y-137000000I1000000J0D01*
G01*
X88000000Y-120000000D02*
X88000000Y-99500000D01*
X105000000Y-136000000D02*
X105000000Y-121000000D01*
X104000000Y-120000000D02*
G75*
G02X105000000Y-121000000I0J-1000000D01*
G01*
X66000000Y-210000000D02*
X66000000Y-153500000D01*
X165000000Y-112940000D02*
X159700000Y-112940000D01*
X165000000Y-112940000D02*
X165000000Y-165750000D01*
X158700000Y-108340000D02*
G75*
G02X159700000Y-107340000I1000000J0D01*
G01*
X159700000Y-112940000D02*
G75*
G02X158700000Y-111940000I0J1000000D01*
G01*
X159700000Y-107340000D02*
X165000000Y-107340000D01*
X158700000Y-108340000D02*
X158700000Y-111940000D01*
X165000000Y-99500000D02*
X165000000Y-107340000D01*
X88000000Y-99500000D02*
X165000000Y-99500000D01*
X66000000Y-210000000D02*
X165000000Y-210000000D01*
M02*
